<?xml version="1.0" standalone="no"?>
<!DOCTYPE svg PUBLIC "-//W3C//DTD SVG 1.1//EN" "http://www.w3.org/Graphics/SVG/1.1/DTD/svg11.dtd" >
<svg xmlns="http://www.w3.org/2000/svg" xmlns:xlink="http://www.w3.org/1999/xlink" version="1.1">
<metadata>
Created by FontForge 20170910 at Sun Mar  4 08:07:28 2018
 By Jimmy Wärting
Copyright (c) 2018 by Octotype. All rights reserved.
</metadata>
<defs>
<font id="AfterNight" horiz-adv-x="338" >
  <font-face 
    font-family="After Night"
    font-weight="400"
    font-stretch="normal"
    units-per-em="750"
    panose-1="0 0 0 0 0 0 0 0 0 0"
    ascent="562"
    descent="-188"
    x-height="327"
    cap-height="602.5"
    bbox="-268 -325.281 1011 765"
    underline-thickness="50"
    underline-position="-100"
    unicode-range="U+000D-2212"
  />
<missing-glyph horiz-adv-x="200" 
 />
    <glyph glyph-name=".notdef" horiz-adv-x="200" 
 />
    <glyph glyph-name="NULL" horiz-adv-x="0" 
 />
    <glyph glyph-name="NULL" horiz-adv-x="0" 
 />
    <glyph glyph-name="nonmarkingreturn" unicode="&#xd;" horiz-adv-x="200" 
 />
    <glyph glyph-name="space" unicode=" " horiz-adv-x="200" 
 />
    <glyph glyph-name="four" unicode="4" horiz-adv-x="517" 
d="M477 662q10 -6 14 -15.5t4 -19t-2 -18.5t-4 -15q-23 -48 -57 -124.5t-66 -170.5q5 2 9.5 3.5t8.5 3.5q2 2 4.5 3t4.5 3q12 10 16 19t4 16q0 8 -3 15q8 2 13.5 0t10.5 -7t10 -13q16 -26 14.5 -49t-7.5 -38q-8 -19 -31.5 -36t-74.5 -22q-3 -1 -9 -1h-1q-4 -20 -8 -47.5
t-4 -55t4.5 -52t18.5 -37.5q-10 -2 -21 -3q-9 -1 -21 -1.5t-23 1.5l-6 2q-18 4 -27.5 15t-14.5 23t-5.5 23.5t-0.5 18.5q2 28 6 57t10 58q-35 2 -67.5 6.5t-65.5 11.5l-10 3q-33 8 -48.5 21.5t-19.5 19.5l-5 8q-2 4 -2 5q-9 18 -5.5 47t35.5 70l6 7l22 24q34 36 75.5 69
t85 63t86.5 56.5t81 47.5l3 2l7 3q7 4 18 5q9 2 18.5 1t19.5 -6zM264 284q20 72 45.5 138t48.5 118q-32 -23 -65.5 -47.5t-66.5 -51.5l-27 -24q-7 -5 -19 -17.5t-25.5 -29t-25.5 -36t-18 -38.5q17 -5 36 -6l32 -5q9 -1 32.5 -2t52.5 1zM420 245q11 8 16 19q5 9 5 22.5
t-11 30.5q1 -1 3 -6.5t2 -15t-3 -22t-12 -28.5zM246 70q0 -14 4 -25q4 -10 13 -19t29 -11q-2 0 -7 2.5t-12 8.5t-14 16.5t-13 27.5zM39 319q-4 -10 -5 -21q-1 -9 2.5 -18.5t14.5 -16.5q-1 2 -7.5 17t-4.5 39z" />
    <glyph glyph-name="five" unicode="5" horiz-adv-x="539" 
d="M469 745q8 2 14 -0.5t11 -7.5t10 -12q16 -26 14.5 -49.5t-7.5 -37.5q-8 -20 -31.5 -37t-75.5 -22h-9q-8 -1 -16 -1h-16q-22 0 -35 0.5t-24 2t-23 3.5l-30 5q-4 -11 -10 -28t-11 -36.5t-9.5 -40t-5.5 -38.5q19 -2 42.5 -7t49 -15t52.5 -25.5t52 -38.5t37 -46.5t16 -46
t1 -43.5t-9 -37q-7 -21 -14 -33.5t-8 -13.5q-20 -27 -43.5 -52t-51 -44t-58.5 -31t-66 -13q-36 -2 -63 3.5t-45 13.5t-27.5 15t-10.5 9q-3 2 -6 5.5t-6 6.5q-16 19 -22.5 42.5t-8 44.5t0 36.5t2.5 19.5v1q5 24 14.5 45t25.5 36q23 22 44 27t36 1q18 -4 33 -17
q-10 -12 -25 -41.5t-26 -71.5q-8 -31 -6.5 -50.5t8.5 -30.5q1 -2 5.5 -8.5t13.5 -13t23 -11t33 -2.5q26 2 49 13.5t43 29.5t37 40.5t31 46.5l1 1q1 3 5 9q14 27 9 50t-22 41.5t-42 33.5t-51 26.5t-50 18.5t-38 11l-16 3q-4 2 -6 2q-17 7 -25 19t-11 25t-2.5 24.5t2.5 18.5
q6 32 17 68t23 68q0 1 1 1q3 8 9.5 19t16.5 20.5t24.5 16t32.5 4.5h3l33 -5h5q12 -1 30 -1.5t39.5 2t44 8t43.5 15.5l9 5q12 10 16 19.5t4 16.5q0 8 -4 15zM96 274q-11 -5 -20 -13q-8 -8 -14.5 -19.5t-8.5 -31.5q0 1 3.5 8t9 16.5t13 20t17.5 19.5zM468 620q11 5 19 15
q6 8 9.5 21t-4.5 31q0 -2 1 -7.5t-0.5 -14t-7 -20.5t-17.5 -25z" />
    <glyph glyph-name="six" unicode="6" horiz-adv-x="560" 
d="M381 670q54 -2 84.5 -19.5t44.5 -41.5q13 -22 16.5 -46t2 -45t-5.5 -36.5t-5 -18.5q0 -1 -1 -1q-8 -23 -20.5 -42t-31.5 -32q-26 -19 -47.5 -20.5t-35.5 4.5q-18 6 -30 21q11 11 30.5 37.5t36.5 67.5q18 42 14 64.5t-16 33.5q-14 12 -38 15q-30 0 -56 -13t-48 -33.5
t-40.5 -46.5t-33.5 -53q-35 -64 -59 -145v-2q22 20 57 36.5t89 15.5q98 -2 148.5 -57.5t39.5 -148.5q0 -6 -2.5 -20.5t-9.5 -31.5q0 -1 -0.5 -1t-0.5 -1q-5 -11 -11 -21.5t-14 -20.5q-10 -12 -25 -24.5t-35 -22t-46.5 -15.5t-59.5 -6h-5q-56 0 -95.5 10.5t-66.5 27.5
q-26 16 -41.5 37t-23.5 44v1l-1 1q-9 27 -11 56.5t1 59t9 56.5t13 49q2 7 4.5 14.5l5.5 16.5q2 7 4 12t4 9t3 7q17 40 45 88.5t67 89.5t88 67.5t109 23.5zM245 312q-8 -2 -26 -8t-37.5 -18t-37 -31.5t-23.5 -47.5q-4 -17 0 -34q3 -14 12 -31t30 -30q14 -11 32.5 -16.5
t35.5 -7.5q19 -3 40 -3q54 0 82.5 17.5t41.5 39t14 40.5t1 24q0 11 -3 24t-11 26q-11 20 -31.5 36t-53.5 22q-32 6 -66 -2zM69 104q4 -14 14 -25q8 -10 21.5 -20.5t35.5 -16.5q-1 0 -8 4.5t-17.5 12t-23 19t-22.5 26.5zM404 389q12 -8 23.5 -4.5t20.5 10.5q11 8 21 20
q-14 -11 -25.5 -16.5t-20.5 -7.5q-11 -3 -19 -2z" />
    <glyph glyph-name="seven" unicode="7" horiz-adv-x="486" 
d="M445 537q-24 -23 -53.5 -53.5t-62 -67.5t-67 -78.5t-67.5 -87.5l-17 -25q-5 -8 -15 -25t-20 -38.5t-16.5 -45.5t-4.5 -45q0 -7 1 -10q4 -16 10.5 -23.5t12.5 -10.5q7 -4 15 -3q-2 -8 -6.5 -12.5t-10.5 -6.5q-7 -3 -15 -3q-31 -4 -51 7.5t-31 23.5q-14 15 -20 43.5
t12 77.5l3 8q1 0 1 1l13 29q28 56 66 112t78.5 106.5t80 93.5t70.5 74q-12 1 -37 3t-54.5 1.5t-59.5 -4.5t-51 -13q-4 -1 -10 -5q-13 -10 -17 -18.5t-4 -15.5q0 -8 3 -15q-8 -2 -14 0.5t-11 7.5t-9 13q-15 26 -12.5 49.5t9.5 37.5q8 19 32.5 35.5t76.5 18.5h9h16t16 -1
q58 -3 107 -10t98 -21q7 -2 19.5 -12.5t14.5 -33.5q1 -18 -10 -34t-18 -24zM51 64q2 -13 9 -24q6 -9 17.5 -15.5t31.5 -4.5q-9 1 -19 5q-8 4 -18.5 13t-20.5 26zM102 556q-4 8 -4 19q0 9 3 22.5t14 30.5q-11 -8 -17 -19q-5 -9 -6 -22.5t10 -30.5z" />
    <glyph glyph-name="eight" unicode="8" horiz-adv-x="506" 
d="M335 671q76 -4 114 -54.5t27 -132.5q-1 -5 -3 -17.5t-8 -27.5q0 -1 -0.5 -1t-0.5 -1q-4 -9 -8.5 -18.5t-12.5 -17.5q-11 -15 -30 -29t-47 -22q52 -23 77 -71.5t17 -114.5q-1 -6 -3.5 -20.5t-9.5 -31.5q0 -1 -1 -2q-4 -11 -10 -21.5t-15 -20.5q-10 -12 -24.5 -24.5
t-34.5 -22t-46.5 -15.5t-59.5 -6h-5q-39 0 -70 5t-55 14q-43 14 -64.5 38t-30.5 42q-6 12 -11 34.5t0 57.5q3 27 17.5 55t38.5 52t58 42t77 25q-32 13 -48.5 34.5t-22.5 38.5q-5 11 -8.5 31t1.5 50q4 26 17.5 52t36 48t53 36t69.5 16q6 0 12.5 0.5t13.5 -0.5zM385 187
q5 35 -3 57.5t-21 36.5q-17 17 -43 27q-5 2 -11 3.5t-13 2.5q-31 6 -65 -2q-6 -2 -15.5 -4.5t-21.5 -7.5q-8 -4 -18.5 -10.5t-21 -17.5t-20 -26t-15.5 -35q-5 -17 -5 -34q0 -15 6 -32t24 -31q2 -2 4 -2q14 -11 33 -16.5t36 -7.5q19 -3 40 -3h10q10 1 18.5 2t16.5 3
q28 7 44.5 23t25.5 33q11 19 15 41zM417 519q3 27 -3.5 45.5t-17 30.5t-22.5 18t-21 8q-1 0 -1 0.5t-1 0.5q-23 6 -51 -1q-2 0 -3 -0.5t-3 -0.5q-19 -6 -43 -24t-37 -59q-7 -23 -5 -43q2 -17 12 -35t37 -29q19 -7 38 -9q10 -1 18 -1h4q11 0 26.5 4t30.5 15t26.5 30t15.5 50z
M57 104q4 -14 13 -25q8 -10 21.5 -20.5t35.5 -16.5q-1 0 -8 4.5t-17.5 12t-22.5 19t-22 26.5zM158 449q0 -9 4 -19q3 -8 10.5 -17t21.5 -14q-8 7 -15 16q-6 8 -12 16.5t-9 17.5z" />
    <glyph glyph-name="nine" unicode="9" horiz-adv-x="579" 
d="M539 550q10 -27 12 -57t-1 -59t-9 -56t-13 -49q-2 -7 -4.5 -15t-5.5 -17q-3 -7 -4.5 -11.5t-3.5 -8.5t-3 -7q-17 -39 -43.5 -85.5t-63 -87t-83 -68t-102.5 -29.5q-36 -2 -62.5 3.5t-44.5 13.5t-28 15t-11 9q-3 2 -6 5.5t-5 6.5q-16 19 -23 42.5t-8.5 44.5t0 36.5
t2.5 19.5v1q5 24 14.5 45t26.5 36q23 22 43.5 27t36.5 1q18 -4 33 -17q-10 -12 -25 -41.5t-26 -71.5q-8 -31 -6.5 -50.5t7.5 -30.5q1 -2 6 -8.5t14 -13t22.5 -11t32.5 -2.5q28 2 53 16t46.5 35t39.5 46.5t32 52.5q33 62 57 141q0 1 0.5 1t0.5 1q-22 -20 -57.5 -36.5
t-88.5 -15.5q-91 2 -141 49t-50 128q1 17 8 48.5t29.5 63t64.5 55.5t114 26q54 -1 92.5 -11t65.5 -27q26 -17 41.5 -37.5t23.5 -44.5v-1zM458 464q4 17 0 34q-3 14 -12.5 30.5t-29.5 30.5q-15 11 -33.5 16.5t-35.5 7.5q-19 3 -40 3q-54 -1 -82.5 -18t-41 -38.5t-14 -41
t-1.5 -24.5q0 -24 14 -50q11 -20 32 -35.5t54 -22.5q33 -6 65 3q9 2 27 8t37.5 18t37 31t23.5 48zM497 592q19 -38 27 -61t9 -25q-1 20 -6.5 36.5t-12.5 27.5q-8 13 -17 22zM100 274q-11 -5 -20 -13q-8 -8 -14.5 -19.5t-8.5 -31.5q0 1 3.5 8t9 16.5t13 20t17.5 19.5z" />
    <glyph glyph-name="A" unicode="A" horiz-adv-x="839" 
d="M877 573q2 -8 1 -19t-8 -26q-23 -47 -57.5 -125t-67.5 -175q36 13 66 31q12 -20 15 -39q2 -17 -4.5 -36.5t-31.5 -35.5q-11 -7 -30.5 -13.5t-45.5 -11.5q-5 -20 -8.5 -47.5t-3.5 -54.5t5 -50t18 -36q-10 -3 -21 -4q-9 -2 -21 -1.5t-23 2.5q-4 0 -6 1q-17 5 -27 15.5
t-14.5 22.5t-5.5 24t-1 19q2 24 5.5 49t8.5 51q-33 0 -69.5 4t-76.5 13q-62 -57 -126.5 -95t-126.5 -42q-52 -3 -92 12t-66.5 41.5t-39 62t-10 74.5t21 78t53.5 73q3 3 14 10.5t26.5 13t34.5 4.5t40 -14q20 -14 47.5 -31t61 -34t72 -32.5t80.5 -26.5q74 66 150 152.5
t146 186.5q4 6 8 9q11 11 29 21t42 7q8 -1 16 -5q7 -3 13 -8.5t9 -14.5zM172 89q42 -11 95 8.5t115 63.5q-57 23 -113.5 58t-113.5 89q-27 -53 -37 -98q-4 -19 -4.5 -38.5t4.5 -36t18 -28.5t36 -18zM709 402q-33 -45 -72.5 -95.5t-84.5 -98.5q22 -2 44 -3t45 1
q15 53 32.5 102t35.5 94zM68 76q13 -19 33 -33q17 -12 44 -21.5t65 -6.5q-29 2 -54.5 12t-45.5 21q-23 12 -42 28zM772 161q-33 -9 -67 -15q-29 -5 -64.5 -9t-68.5 -1q36 -5 71 -4q30 1 65 6.5t64 22.5zM625 0q0 -14 4 -25q4 -10 13.5 -19t29.5 -11q-2 0 -7 2.5t-12 8.5
t-14.5 16.5t-13.5 27.5z" />
    <glyph glyph-name="B" unicode="B" horiz-adv-x="684" 
d="M623 161q3 -64 -25.5 -111t-77.5 -75.5t-112 -39t-127 -2.5q-8 1 -24 3.5t-36 9.5t-41 18.5t-39 31.5q-20 20 -29 41.5t-11.5 40.5t0 34.5t5.5 24.5q5 14 18.5 30t40.5 18q9 1 16 -1q6 -2 12 -5t8 -11q-9 -2 -16 -7q-6 -5 -11 -15t-4 -28q0 -18 8.5 -36.5t23.5 -34.5
t35.5 -26.5t44.5 -11.5q-4 -1 10.5 -2.5t39 -0.5t55 6t58 17t47.5 32.5t24 53.5t-3.5 58t-23.5 42.5t-37.5 29t-45.5 17.5l-17 -2q-11 -1 -20.5 -1h-18.5q-6 -15 -16 -43t-16.5 -58.5t-6 -58.5t14.5 -43q-10 -3 -21 -4q-22 -3 -44 1q-9 2 -17.5 5t-14.5 8q-5 4 -7.5 8.5
t-4.5 8.5v2l-1 1l-2 6q-2 11 -1.5 22.5t2.5 18.5q14 58 31.5 110t36.5 97t38 83t35 68l14 3q29 5 53 6.5t44 0.5q-17 -32 -38 -71.5t-50 -102.5q7 0 14 0.5t15 1.5q16 1 35 6q34 8 61 21l11 6l12 6l19 14l5 4q1 3 4 4q5 5 8.5 10t6.5 11q2 3 4 9t2 9q0 2 0.5 2.5t0.5 2.5
v6.5t-1 7.5q-5 26 -35 49.5t-88 28.5q-2 0 -3.5 0.5t-3.5 0.5h-26q-12 0 -25.5 -1t-28.5 -3q-1 0 -1.5 -0.5t-1.5 -0.5q-3 0 -5 -1q-2 0 -4 -0.5t-4 -0.5l-12 -3h-2l-12 -3l-22 -6l-10 -3l-11 -4q-45 -17 -79 -41t-58.5 -48.5t-39.5 -45.5t-20 -33q-8 3 -15 8
q-6 4 -12.5 10.5t-11.5 16.5l-3 7q-2 6 -4 16t0 24q0 3 2 11q1 3 1 6t2 6l4 13l3 6q12 22 31 40q3 4 11 10q16 14 34.5 25t38.5 20l7 3l22 9l7 2q10 4 15 5q22 8 40 12l17 4q4 0 6 1l21 4l17 2l29 3q4 1 11 1q3 1 11 1q2 0 5 0.5t6 0.5q5 0 11 0.5t12 0.5h36q6 0 12 -0.5
t12 -0.5l25 -2q9 -2 18 -3t18 -3l12 -2l23 -6q5 -2 10.5 -4t10.5 -4q25 -10 48 -26q15 -12 28 -30q4 -6 5 -9l5 -9l4 -10v-1l3 -11l2 -7l2 -19v-11t-1 -12q-1 -2 -1 -6l-5 -20l-6 -13l-3 -7l-9 -14l-5 -7q-6 -8 -12 -14q-5 -5 -10.5 -10t-12.5 -10t-14.5 -9.5t-15.5 -9.5
l-12 -6q-6 -3 -12.5 -5.5t-13.5 -5.5l-30 -10q18 -6 37 -15.5t34.5 -24.5t26 -35.5t12.5 -47.5zM388 278q39 0 84 15l7 2q6 2 10.5 4.5t9.5 4.5q2 2 3 2t3 1q1 0 3 2q-6 -2 -7 -2q-31 -11 -66.5 -18.5t-73.5 -7.5h-2q1 0 1.5 -0.5t1.5 -0.5h3q6 -2 12 -2h11zM159 172
q-13 -4 -24 -14q-9 -8 -16.5 -22t-5.5 -36q1 3 3.5 11t7.5 18.5t13.5 22t21.5 20.5zM57 378q0 1 -0.5 1.5t-0.5 1.5q-1 7 -0.5 14t1.5 14q0 5 0.5 8t1.5 7q2 12 4 20.5t3 10.5q-12 -14 -15 -28t-1 -26q2 -13 4 -17q1 -4 3 -6zM596 84q-32 -45 -53 -63.5t-29 -23.5
q20 8 35 23t26 29q12 17 21 35zM358 474q-5 -8 -10 -17q-5 -8 -9.5 -17.5t-9.5 -18.5q1 3 7 11t14 18t18 18t20 11q-7 -1 -13 -2q-5 -1 -10 -1.5t-7 -1.5zM510 310q-1 -1 -2 -1h1q1 0 1 1zM512 311q-1 -1 -2 -1h1q1 0 1 1zM357 281l-1 1q0 -1 1 -1z" />
    <glyph glyph-name="C" unicode="C" horiz-adv-x="552" 
d="M44 52q-9 27 -11 57t0.5 59t8.5 56t13 49q2 7 4.5 15t6.5 17q2 6 4 11t4 9t3 7q17 40 45 88.5t67 89.5t88 68t109 24q54 -3 84.5 -20t44.5 -42q13 -22 16.5 -46t2 -45t-5.5 -36t-5 -19l-1 -1q-8 -23 -20.5 -42t-31.5 -32q-26 -19 -47.5 -20t-35.5 5q-18 7 -30 21
q11 10 30.5 36.5t36.5 67.5q17 42 13.5 64.5t-15.5 33.5q-14 12 -38 15q-30 0 -56 -13t-48.5 -33t-40.5 -46.5t-33 -53.5q-34 -64 -59 -145q-17 -61 -16 -102t14 -67.5t34.5 -40.5t45.5 -19.5t47.5 -4.5t39.5 3q48 10 73 39t25 62q0 18 -5 28t-11 15q-7 5 -16 7q2 8 8.5 11
t12.5 5q7 2 15 1q27 -2 41 -18t19 -30q2 -6 4.5 -17.5t1.5 -27.5t-6.5 -35t-18.5 -41q-17 -27 -41.5 -44t-50.5 -26.5t-49.5 -13t-37.5 -4.5h-4q-56 0 -95.5 10.5t-67.5 27.5q-25 17 -40.5 37.5t-23.5 44.5zM290 -48q-61 -1 -89 6.5t-34 10.5q20 -12 41.5 -16.5t39.5 -4.5
q21 0 42 4zM456 57q11 20 11.5 36t-3.5 27q-5 13 -15 24q8 -15 10.5 -30.5t1.5 -28.5q-1 -15 -5 -28zM404 319q12 -8 23.5 -4.5t20.5 10.5q11 8 21 20q-14 -11 -25.5 -16.5t-20.5 -7.5q-11 -3 -19 -2z" />
    <glyph glyph-name="D" unicode="D" horiz-adv-x="771" 
d="M85 333q-19 8 -30 22q-10 12 -15.5 32t4.5 51q10 34 38 59.5t63 43.5t71.5 29.5t63.5 17.5q46 10 103 15t127 -8q76 -15 132 -57q24 -18 46 -44t37.5 -61.5t22.5 -82t0 -105.5q-18 -98 -73 -171q-23 -31 -57 -60t-80.5 -49.5t-107.5 -30t-138 -1.5q-8 1 -25.5 3.5
t-39.5 9t-44.5 18.5t-40.5 32q-20 20 -27.5 41.5t-8 40.5t3.5 34.5t7 24.5q5 14 18.5 30t40.5 18q9 1 16 -1q6 -2 12 -5t8 -11q-9 -2 -16 -7q-6 -5 -11 -15t-4 -28q0 -29 19.5 -54t55.5 -37q6 -2 18 -5t30.5 -4.5t43.5 -1t57 5.5q39 6 70 18.5t55.5 28t42.5 34t32 36.5
q32 42 46 93q10 55 3 105.5t-31.5 90t-66 66t-100.5 33.5q-9 -20 -22 -48.5t-28 -62.5t-31 -72.5t-30 -80.5q-5 -14 -12.5 -42.5t-11.5 -60t-1 -60.5t19 -44q-10 -3 -21 -4q-9 -2 -21 -1.5t-23 2.5q-9 2 -17.5 5t-15.5 8q-5 4 -8.5 8.5t-5.5 8.5v2l-1 1l-2 6q-4 11 -4 22.5
t1 18.5q8 58 24 114t34 106t36 92t31 72q-58 -12 -103.5 -37.5t-78.5 -53.5t-53 -54t-26 -39zM401 -44q-30 -2 -52.5 -1.5t-37.5 3t-23.5 5t-11.5 3.5q20 -11 42 -14t41 -2q21 1 42 6zM68 456q-12 -14 -15 -28t-2 -25q1 -13 7 -25q-2 14 -0.5 28.5t3.5 25.5q3 13 7 24z
M169 172q-13 -4 -24 -14q-9 -8 -16 -22.5t-5 -36.5q0 1 2.5 9.5t7.5 19.5t13.5 23t21.5 21z" />
    <glyph glyph-name="E" unicode="E" horiz-adv-x="569" 
d="M265 -68q-84 3 -132.5 28.5t-70.5 61.5t-22 77.5t14 77.5q4 12 12 25q20 38 51.5 56.5t60.5 26.5q28 7 43 8q10 1 18 1q-28 12 -43 40q-14 25 -15 58t11 68q10 27 22.5 46t23.5 30q1 1 13 13.5t34.5 25.5t56 22t77.5 4l16 -2t16 -3q9 -3 24.5 -9.5t31.5 -20t29 -33.5
t17 -50q3 -32 -3 -58t-8 -31v-1q-8 -23 -21 -42t-31 -32q-26 -19 -47.5 -20t-35.5 5q-18 7 -30 21q11 10 30.5 36.5t36.5 67.5q11 26 13 44.5t-1.5 31t-11 20t-15.5 11.5q-17 6 -32 6h-8q-21 -2 -37 -11.5t-23 -15.5q-8 -8 -14 -15t-11 -13q-5 -7 -9 -14
q-27 -51 -22.5 -83.5t21.5 -51.5q19 -22 54 -34q0 -17 -3.5 -32t-8.5 -26q-5 -13 -12 -23q-23 4 -48.5 2.5t-49.5 -9.5t-44 -22t-31 -34q-11 -18 -12 -41q-2 -26 10.5 -43t30.5 -28.5t35 -17t24 -6.5q1 -1 2 -1h1q25 -6 49 -5.5t41 2.5q48 10 73 39t25 62q0 18 -5 28t-11 15
q-7 5 -16 7q2 8 8 11t12 5q7 2 16 1q27 -2 41 -18t19 -30q2 -6 4.5 -17.5t1.5 -27.5t-6.5 -35t-18.5 -41q-17 -27 -41.5 -44t-50.5 -26.5t-49.5 -13t-37.5 -4.5h-4q-8 0 -14.5 0.5t-12.5 0.5zM318 -48q-61 -1 -89.5 6.5t-34.5 10.5q20 -12 42 -16.5t40 -4.5q21 0 42 4z
M473 57q11 20 11.5 36t-3.5 27q-5 13 -15 24q8 -15 10.5 -30.5t1.5 -28.5q-1 -15 -5 -28zM421 319q12 -8 23.5 -4.5t20.5 10.5q11 8 21 20q-14 -11 -25.5 -16.5t-20.5 -7.5q-11 -3 -19 -2z" />
    <glyph glyph-name="F" unicode="F" horiz-adv-x="484" 
d="M221 243q-36 -2 -63 3q-3 0 -5.5 0.5t-5.5 1.5q-8 2 -15 3.5t-13 3.5l-8 3q-37 15 -54 37t-23 40q-2 4 -2.5 7.5t-1.5 6.5v3q-1 2 -1 6v4q-1 12 0 22q1 38 20 69q1 3 5 9q2 4 5.5 8t6.5 8l6 8q33 36 82 61l19 9l19 8l10 4l9 3q21 8 41.5 13.5t38.5 9.5l15 3q8 2 18 3
t22 2q7 1 14.5 1.5t15.5 0.5q2 0 5 0.5t6 0.5q17 1 34.5 1h36.5l38 -2t38 -3q33 -3 61 -9q6 -1 11.5 -2t11.5 -3l21 -6l10 -3l18 -8q6 -2 8 -4q5 -2 8 -4.5t7 -4.5q8 -6 12 -10l5 -5l4 -6l6 -11q2 -5 4 -9.5t3 -9.5q5 -12 3 -23v-3q-1 -2 -1 -6q-3 -10 -7 -15l-3 -3l-8 -7
q-2 -2 -3 -2l-3 -2q-4 -2 -5 -2q-2 2 -4 3.5t-5 3.5q-22 14 -70 28l-22 7l-40 10l-25 6q-26 5 -50.5 9.5t-47.5 6.5q-16 -33 -37 -79.5t-43 -101.5q24 5 48 5.5t46 -7.5q26 -11 32.5 -29t3.5 -37q-4 -22 -17 -46q-3 13 -15.5 21t-31.5 11.5t-44 2.5t-53 -4q-9 -26 -17 -51.5
t-16 -52.5q-4 -14 -10 -43.5t-8 -62t2 -63t20 -45.5q-9 -3 -20 -4q-9 -2 -21 -1.5t-23 2.5q-5 0 -7 1q-17 5 -27 15.5t-14.5 22.5t-5 24t-0.5 19q3 55 15.5 113.5t30.5 115.5zM326 513q-5 0 -15 -2l-50 -12l-31 -11l-19 -8l-17 -8q-8 -5 -15 -9t-13 -9l-16 -14
q-3 -2 -5 -4.5t-4 -4.5q-13 -14 -18.5 -28.5t-6.5 -27.5q-2 -14 3 -24l3 -7q7 -14 22.5 -22t36.5 -12q20 -4 49 -4q3 0 6 0.5t6 0.5q21 62 43.5 115t40.5 91zM235 510q-1 0 -1.5 -0.5t-2.5 -0.5q-3 0 -6.5 -0.5t-8.5 -1.5l-5 -2q-12 -3 -24.5 -10t-23.5 -19l-3 -3l-3 -3
l-2 -3q1 1 5 4q2 2 6 5t9 6q4 3 12 7q10 5 21.5 10t25.5 8l13 3h-12zM708 484q1 4 1 12l-2 9q-2 5 -4.5 8.5t-4.5 7.5l-3 4q-11 11 -15 13l-3 3q0 -1 2 -3l6 -8q3 -4 7 -12l3 -5q4 -8 5.5 -14t3.5 -11q0 -2 0.5 -4t0.5 -3v-4zM193 0q0 -14 4 -25q4 -10 13 -18.5t27 -11.5
q-5 2 -19.5 12.5t-24.5 42.5zM433 262q-9 5 -20 8q-10 2 -25 2.5t-35 -5.5q15 2 30 2q13 0 26 -1.5t24 -5.5z" />
    <glyph glyph-name="G" unicode="G" horiz-adv-x="541" 
d="M44 52q-10 27 -12 57t1 59t9 56t13 49q2 7 4.5 15t5.5 17q2 6 4 11t4 9t3 7q17 40 45 88.5t67 89.5t88 68t109 24q54 -3 84.5 -20t45.5 -42q13 -22 16 -46t1.5 -45t-5.5 -36t-5 -19v-1q-8 -23 -21 -42t-31 -32q-26 -19 -47 -20t-36 5q-18 7 -31 21q12 10 31 36.5t36 67.5
q18 42 14 64.5t-16 33.5q-14 12 -37 15q-30 0 -56 -13t-48.5 -33t-40.5 -46.5t-33 -53.5q-34 -64 -59 -145q-17 -61 -16 -102t14 -67.5t34.5 -40.5t45.5 -19.5t47.5 -4.5t39.5 3q45 9 69.5 35t27.5 57h-3q-14 0 -43.5 -1t-61 -6.5t-58.5 -16.5t-37 -31q-6 8 -10 19
q-4 8 -7 19.5t-5 23.5q-3 18 3 35q2 5 5.5 10t6.5 8q1 0 1 1q1 0 1 1q1 1 2 1.5t2 1.5t2 1q10 7 20.5 10l17.5 5q35 5 69 7.5t66 2.5q7 -1 17 -3t21.5 -6.5t22.5 -11.5t20 -19q8 -11 12.5 -24t6.5 -31q1 -17 -3.5 -40t-21.5 -49q-17 -27 -41.5 -44t-50.5 -26.5t-49.5 -13
t-37.5 -4.5h-4q-57 0 -96.5 10.5t-66.5 27.5q-26 17 -41.5 37.5t-23.5 44.5v1zM318 -43q-59 -5 -87.5 -0.5t-36.5 7.5q20 -11 42 -13.5t40 -0.5q21 2 42 7zM418 323q13 -6 24 -2.5t20 11.5q10 9 19 22q-13 -12 -24.5 -18t-19.5 -9q-11 -4 -19 -4zM228 175q-13 -3 -19.5 -9
t-9 -11.5t-2.5 -10v-5.5q1 6 6.5 12.5t10.5 11.5q6 6 14 12z" />
    <glyph glyph-name="H" unicode="H" horiz-adv-x="925" 
d="M688 114q-43 0 -91.5 7t-101.5 24q0 -1 -1 -1q-2 -4 -4 -6l-1 -2l-2 -2l-2 -2l-5 -8q-1 0 -1 -0.5t-1 -0.5l-5 -7q-11 -15 -24 -29q-11 -12 -25.5 -26t-29.5 -25q-24 -18 -50 -29t-54 -13q-52 -3 -92 12t-66.5 41.5t-39 62t-10 74.5t21 78t53.5 73q3 3 13.5 10.5t26 13
t34.5 4.5t40 -14q32 -22 82 -50.5t112 -51.5l8 16q0 2 1 3q2 2 2.5 5t2.5 6q4 8 7 16.5t6 16.5q2 6 3.5 11.5t3.5 10.5l5 22q2 6 2 11q2 5 2 10t1 10l2 11q1 8 1.5 15t0.5 15q1 14 0.5 28t-1.5 27q-3 31 -9 53q-4 20 -11 35q-2 8 -5 13t-5 10l1 1l4 2q3 2 8 3.5t13 3.5
q4 1 9 1.5t10 -0.5q13 0 29 -8q8 -4 12 -7l8 -7q6 -5 12 -12q2 -4 4 -5q2 -4 4 -6l7 -12l6 -13q7 -20 9 -42q3 -17 1 -38v-8l-3 -24q-2 -14 -5 -27t-6 -27l-6 -21l-5 -14l-2 -7l-5 -12q-2 -5 -3.5 -9t-3.5 -9l-4 -10l-5 -10q0 -2 -2 -4l-4 -9l-2 -3q0 -1 -0.5 -1.5
t-0.5 -1.5l-8 -16q-2 -2 -2 -3l-8 -15q40 -10 81.5 -14.5t84.5 -1.5q20 75 47 143.5t50 122.5q27 62 56 118l15 5q8 2 18 4t24 2t23 -3t14 -6q6 -4 10 -9q-25 -47 -51 -103q-23 -48 -49.5 -112.5t-52.5 -139.5q35 13 66 31q12 -20 15 -39q2 -17 -4.5 -36.5t-31.5 -35.5
q-11 -7 -30.5 -13.5t-46.5 -11.5q-4 -20 -8 -47.5t-4 -54.5t5 -50t19 -36q-10 -3 -21 -4q-9 -2 -21 -1.5t-23 2.5q-4 0 -6 1q-18 5 -27.5 15.5t-14.5 22.5t-5.5 24t-0.5 19q2 24 5 49t8 51zM224 308q-27 -53 -37 -98q-4 -19 -4.5 -38.5t4.5 -36t18 -28.5t36 -18
q42 -11 89 8.5t91 75.5q-49 23 -98.5 55.5t-98.5 79.5zM278 15q-29 2 -54 12t-45 21q-23 12 -42 28q13 -19 33 -33q17 -12 43.5 -21.5t64.5 -6.5zM841 161q-33 -9 -67 -15q-29 -5 -64.5 -9t-68.5 -1q36 -5 71 -4q30 1 65 6.5t64 22.5zM694 0q-1 -14 3 -25q4 -10 13 -18.5
t27 -11.5q-2 1 -7.5 4t-11.5 9t-12.5 16t-11.5 26zM592 531q-5 19 -17 32q-8 10 -19 15l-7 3h-1l-2 1l10 -8q2 -1 6 -5l4 -4l4 -4q3 -3 7 -9l3 -3l6 -8l3 -5l2 -4q0 -1 1 -1z" />
    <glyph glyph-name="I" unicode="I" horiz-adv-x="539" 
d="M162 -67q-44 7 -69.5 24t-46.5 50q-11 17 -14 36.5t-1 36.5q2 19 8 37q7 21 18 34t22 19.5t21 8.5t17 2q-5 -22 -7 -45t3 -42.5t18 -34.5t37 -22q21 -5 43 -3t45 13q44 26 75 64.5t51 77.5l17 37l3 6q2 4 2 7q9 22 15 40.5t9 30.5q15 63 13 117.5t-10 95.5
q-29 -21 -54.5 -49t-45 -61t-32 -70t-13.5 -76q-29 12 -50 30q-18 15 -30 37.5t-4 52.5q4 16 20 41.5t43 54.5t65.5 59t88.5 55q7 3 18 5.5t24.5 0t28 -12t29.5 -30.5q19 -27 24.5 -62.5t2.5 -73.5t-12.5 -75t-19.5 -67q-2 -8 -13.5 -40t-33.5 -75.5t-55 -91t-79 -86.5
q-3 -2 -6 -4.5t-6 -5.5q-26 -18 -66.5 -35t-92.5 -11zM206 -44q-29 2 -54.5 13t-45.5 23q-23 14 -42 31q13 -20 33 -36q17 -14 44 -24t65 -7zM525 401q8 30 7.5 53t-5.5 39q-5 18 -14 33q7 -25 9.5 -47.5t3.5 -39.5q1 -20 -1 -38zM239 418q-12 -13 -17 -27q-5 -12 -5 -27
t13 -30q0 1 -2 6t-2.5 15t2 25.5t11.5 37.5z" />
    <glyph glyph-name="J" unicode="J" horiz-adv-x="619" 
d="M600 560q16 -27 21.5 -62.5t3.5 -74t-9 -76t-17 -67.5q-10 -39 -26 -82q-14 -37 -36 -84t-53 -97h1q-26 -43 -58 -83q-27 -34 -63.5 -68.5t-78.5 -53.5q-23 -11 -50.5 -17.5t-59.5 -4.5q-38 2 -68.5 17.5t-51.5 40.5q-5 6 -9 12t-7 12l-7 13q-12 30 -12.5 65.5t7.5 70.5
q10 41 30 76q17 30 46.5 59.5t76.5 41.5q38 11 66.5 3t42.5 -16q15 -9 27.5 -28.5t10.5 -48.5q-1 -9 -5 -16q-3 -6 -8 -11t-13 -6q1 9 -3 17q-4 7 -12.5 14t-26.5 11q-30 6 -60 -10q-24 -12 -40 -27.5t-26.5 -30t-15.5 -26.5t-6 -17q-11 -32 -3 -63q7 -25 24 -41
q14 -14 38.5 -21t64.5 6q14 6 32 17q14 10 33.5 25.5t40.5 41.5q44 49 75.5 107.5t51.5 110.5q24 60 40 121q15 63 13.5 117.5t-9.5 95.5q-29 -21 -54.5 -49t-45.5 -61t-32 -70t-13 -76q-29 12 -50 30q-18 15 -30.5 37.5t-4.5 52.5q4 16 20 41.5t43.5 54.5t65.5 59t88 55h1
q7 3 18.5 6t25.5 0.5t28.5 -12t27.5 -31.5zM591 526q7 -25 9 -47.5t3 -39.5q0 -20 -1 -38q8 30 7.5 53t-4.5 39q-5 18 -14 33zM317 418q-11 -13 -17 -27q-5 -12 -5.5 -27t12.5 -30q0 1 -2 6t-2.5 15t2.5 25.5t12 37.5zM179 180q44 7 64.5 3t25.5 -6q-16 10 -32 11.5
t-29 -0.5q-15 -3 -29 -8z" />
    <glyph glyph-name="K" unicode="K" horiz-adv-x="714" 
d="M371 24q-8 -9 -17 -18t-19 -17q-3 -2 -6 -4.5t-6 -5.5h-1q-26 -18 -66.5 -35t-92.5 -11q-44 7 -69 24t-46 50q-12 17 -15 36.5t-1 36.5q2 19 8 37q7 21 18 34t22 19.5t21.5 8.5t16.5 2q-5 -22 -7 -45t3 -42.5t18.5 -34.5t37.5 -22q20 -5 42 -3t45 13q45 26 75.5 64.5
t50.5 77.5q9 17 17 37l3 6l3 7q9 22 14.5 40.5t8.5 30.5q15 63 13.5 117.5t-9.5 95.5q-29 -21 -54.5 -49t-45.5 -61t-32 -70t-13 -76q-29 12 -50 30q-18 15 -30.5 37.5t-4.5 52.5q4 16 20 41.5t43 54.5t65.5 59t88.5 55h1q7 3 17.5 5.5t24 0t28.5 -12t30 -30.5
q19 -27 24 -62.5t2 -73.5t-12 -75t-19 -67q-2 -5 -6 -18t-12 -32.5t-19 -43.5t-26 -50l-6 -10q0 -1 -0.5 -1.5t-0.5 -1.5l-5 -8q-3 -5 -10 -14l1 -1q-1 0 -1 -1q2 -1 2.5 -2t2.5 -3l23 -31l1 -1q31 -38 74.5 -76t98.5 -58l1 -1q6 -2 30 -9.5t56.5 -11t67.5 0.5t63 25
q-1 -5 -4.5 -16t-5.5 -16q-16 -36 -41.5 -56.5t-64.5 -30.5q-51 -12 -93.5 -0.5t-70.5 27.5l-13 9q-25 16 -48.5 39t-45 48.5t-40 50.5t-31.5 45zM758 436q-2 32 -14 49t-26 25q-17 9 -36 10q1 -22 -15.5 -69t-47.5 -102.5t-73.5 -112t-92.5 -98.5q-2 -3 -3 -5.5t-3 -4.5
q0 -1 -0.5 -1.5t-0.5 -1.5l-5 -8l-9 -15l4 -6q7 -8 14 -18.5t9 -12.5l1 -1q28 15 61 39t66.5 53.5t65 63.5t55 70.5t37.5 73.5t13 72zM660 -167q12 -5 28 -6q14 -1 32 1.5t40 13.5q-5 -2 -31.5 -6.5t-68.5 -2.5zM743 407v4v8v10t-2 11q-2 16 -9 32l-5 11l2 -2l2 -3l6 -8
l3 -5l2 -6t2 -7q1 -2 1 -5q1 -2 1 -6v-6q0 -13 -3 -28zM743 407v4v8v10t-2 11q-2 16 -9 32l-5 11l2 -2l2 -3l6 -8l3 -5l2 -6t2 -7q1 -2 1 -5q1 -2 1 -6v-6q0 -13 -3 -28zM452 60l4 2l-5 -2h1z" />
    <glyph glyph-name="L" unicode="L" horiz-adv-x="577" 
d="M936 -72q9 -22 9 -41q0 -17 -8.5 -35t-35.5 -31q-15 -7 -45.5 -12.5t-71.5 -4.5t-90.5 9.5t-103 28t-110 52t-110.5 81.5l-18 -18t-19 -17l-12 -10q-26 -19 -66.5 -35.5t-93.5 -10.5q-43 7 -68.5 24t-46.5 50q-11 17 -14 36.5t-1 35.5q2 18 7 37q10 29 29 51
q17 19 45.5 34.5t73.5 15.5q28 0 51 -7t43 -18.5t37.5 -26t34.5 -29.5q8 11 14.5 22t13.5 23q4 6 10 18t13 25.5t13 27.5t10 23l3 6l3 7q8 22 14 40.5t9 30.5q15 63 16.5 122.5t-7.5 99.5q-5 18 -11.5 29.5t-12.5 17.5q-7 7 -15 11q7 3 21.5 7t32 3.5t35.5 -9.5t32 -31
q18 -27 23.5 -63t3 -74t-11.5 -74.5t-19 -66.5q-2 -6 -10.5 -30t-24 -59t-37.5 -77t-52 -83q46 -33 105 -65.5t126.5 -51.5t140 -19.5t146.5 31.5zM256 -3q28 18 51 39q-10 9 -24 21t-29.5 22.5t-31 18.5t-29.5 9q-17 2 -32 -2q-13 -3 -25.5 -11t-18.5 -25q-5 -15 -2 -27.5
t9 -21.5t13 -15t10 -8q9 -6 21 -9q42 -12 88 9zM64 -26q13 -21 33 -37q17 -14 43.5 -23.5t64.5 -6.5q-29 2 -54 13t-45 23q-23 14 -42 31zM683 -164q35 -8 70 -12q30 -3 65.5 -2t66.5 14q-33 -5 -68 -7q-30 -2 -66 -1t-68 8zM550 401q8 30 7.5 53t-5.5 39q-5 18 -14 33
q7 -25 9.5 -47.5t3.5 -39.5q1 -20 -1 -38z" />
    <glyph glyph-name="M" unicode="M" horiz-adv-x="865" 
d="M81 368q-16 10 -27 25q-9 13 -12.5 33.5t9.5 50.5q11 25 32 44.5t48 34.5t56.5 24.5t56.5 15.5q9 2 28.5 4t41 -0.5t42.5 -13t34 -32.5q17 -29 16.5 -57.5t-9.5 -56.5q39 45 77 71t72 21l10 -2t10 -3q18 -7 29 -21t15.5 -31.5t4 -37.5t-4.5 -38q-2 -5 -3.5 -11.5
t-5.5 -17.5q-1 0 -1 -1q-1 -3 -2 -5.5t-2 -4.5q30 47 61 91.5t62.5 78.5t62 54.5t57.5 19.5q9 0 22 -3.5t25 -14.5q23 -20 26.5 -53.5t-5.5 -66.5l-9 -28l-1 -2q-10 -24 -24.5 -60.5t-30.5 -76t-30 -78.5t-23 -69q-2 -5 -3.5 -12.5l-3.5 -17.5q-2 -9 -6 -28t-6 -43
t-0.5 -48.5t10.5 -43.5l5 -10q8 -13 17 -17.5t16 -5.5q8 -1 15 2q2 -8 -1 -14t-8 -10t-13 -8q-28 -14 -51 -10.5t-37 11.5q-18 9 -33.5 34.5t-14.5 77.5v9l3 32q4 39 17.5 90.5t31 105t35.5 103.5t32 87q7 17 9 28t-5 19q-8 6 -22 -1q-7 -4 -14 -10q-30 -26 -62.5 -63
t-63 -79.5t-57.5 -88.5t-47 -89l-3 -7q-3 -6 -7 -18t-7.5 -27t-5.5 -32t0 -35q2 -13 6 -23l5 -10q8 -13 17 -17.5t16 -5.5q8 -1 15 2q2 -8 -1.5 -13.5t-8.5 -10.5t-13 -9q-27 -13 -50 -9.5t-37 11.5q-19 9 -34 34.5t-14 76.5v10q0 14 3 32q8 65 32 129.5t52 138.5
q7 17 8.5 28.5t-4.5 18.5q-5 4 -11.5 3t-11.5 -4q-7 -4 -13 -10q-69 -58 -125 -130t-91 -162q-17 -51 -20 -97t20 -84q-36 -6 -63 1q-24 6 -43.5 25t-21.5 62q-2 49 17 104t46 108.5t56 103t49 87.5q6 12 14 27t15 29t10.5 25t1.5 14t-10 2t-17.5 -3.5t-20 -5.5t-17.5 -6
q-39 -14 -70.5 -33t-55 -38.5t-38 -37t-20.5 -27.5zM868 577q-16 11 -31 9.5t-28 -7.5q-15 -7 -28 -20q19 13 35.5 17.5t27.5 4.5q13 0 24 -4zM59 415q0 13 2.5 26t5.5 23.5t6 17.5t4 9q-13 -13 -17.5 -26t-4.5 -24q0 -13 4 -26zM562 516q-14 8 -29 6t-26 -7q-14 -6 -26 -16
q17 8 31.5 11.5t25.5 5.5q13 1 24 0zM703 -48q1 -11 6 -22q5 -9 15.5 -17.5t30.5 -10.5q-1 1 -7.5 4t-14.5 9t-16.5 15t-13.5 22zM144 11q-1 -13 3 -24q3 -10 11 -18.5t25 -13.5q-8 6 -15 14q-6 7 -13 17.5t-11 24.5z" />
    <glyph glyph-name="N" unicode="N" horiz-adv-x="587" 
d="M223 116q-7 -29 -10.5 -56t-1.5 -52q3 -44 26 -77l-8 -2t-9 -1h-11q-14 0 -31 3t-32.5 13t-27.5 28t-15 47q-4 50 9.5 104.5t35 108t46 102.5t41.5 88q4 11 10.5 24.5t11.5 26.5t8.5 24t3.5 17q-1 5 -9 5q-11 0 -28 -5.5t-28 -9.5q-38 -14 -68 -33t-51.5 -38.5t-35 -37
t-18.5 -27.5q-12 5 -21 15q-8 8 -14.5 20.5t-8.5 30.5q-3 39 20.5 70t59.5 52.5t78 33t76 11.5q19 0 40 -5.5t39 -18t30.5 -33t15.5 -51.5q2 -26 -3.5 -49.5t-13.5 -45.5q25 30 51.5 54.5t53 42.5t51.5 28t47 10t37.5 -8.5t25.5 -22t14 -30t4 -33.5q0 -20 -10 -52t-24.5 -71
t-30 -82t-27.5 -83q-3 -9 -11.5 -38.5t-8.5 -90.5q0 -28 5.5 -47t13.5 -30t17 -16t16 -5t9 1t3 2q0 -15 -8 -23t-18.5 -12.5t-21.5 -5.5t-17 -1q-17 0 -34 5t-30 19t-21 39.5t-8 67.5q8 87 32 178t56 174q4 11 6.5 18.5t2.5 14.5q0 18 -20 18q-21 0 -57 -21.5t-75 -61.5
t-74.5 -95.5t-54.5 -124.5zM13 415q-2 27 4 49.5t8 26.5q-12 -13 -15.5 -27t-2.5 -25q0 -5 1 -9.5t2 -7.5q1 -4 3 -7zM535 508q8 0 13.5 -1.5t7.5 -2.5q-14 10 -28 10q-12 0 -22.5 -5t-18.5 -10q-10 -6 -17 -14q20 14 36.5 18.5t28.5 4.5zM440 -48q0 -1 0.5 -8t5.5 -15.5
t15.5 -16t30.5 -10.5q-1 1 -7.5 4t-15 9t-16.5 15t-13 22zM134 11q0 -1 1 -8.5t5 -16.5t12.5 -18t24.5 -13q-8 6 -16 14q-7 7 -14.5 17.5t-12.5 24.5z" />
    <glyph glyph-name="O" unicode="O" horiz-adv-x="646" 
d="M156 501q27 32 55.5 51t55.5 29.5t50 14.5t38 6q95 8 164 -18q29 -11 55 -31t42.5 -52.5t21 -78.5t-8.5 -109q-18 -83 -48 -144t-67.5 -104t-79.5 -70t-84 -41.5t-81 -19.5t-69 -3q-45 3 -76 14.5t-50.5 28.5t-29.5 38t-13 42q-8 50 13 112q9 23 22 44q2 4 11 17.5t25 31
t39.5 36.5t55.5 33q5 2 9 3.5t6 3.5q3 1 5 2h1q26 8 49.5 11t43.5 -3q29 -8 39 -23t12 -30q2 -18 -6 -37q-11 3 -35 8t-59 -1q-8 -2 -20 -5.5t-27 -11t-30.5 -19.5t-30.5 -30q-8 -11 -13.5 -21t-9.5 -18q-4 -9 -7 -17q-9 -24 -9.5 -43t5 -32.5t15 -23.5t21.5 -16
q27 -15 68 -19q36 -3 67.5 5t58 23t48.5 35.5t39 42.5q40 51 67 119q25 69 30 117.5t-4.5 81t-30.5 51t-46 27.5q-60 21 -152 2q-50 -13 -81.5 -44t-36.5 -64q-4 -18 -1 -27.5t8 -14.5q6 -5 15 -5q-4 -8 -10.5 -12t-12.5 -6q-8 -2 -16 -2q-27 1 -38.5 15.5t-13.5 28.5
q-1 6 -1.5 18.5t3.5 28.5t13 35t27 40zM552 382q7 16 8 34q0 15 -6.5 32.5t-28.5 32.5q11 -13 18 -29q6 -14 10 -32t-1 -38zM342 289q1 17 -6.5 25t-17.5 11q-11 4 -26 3q16 -2 26 -8.5t15 -13.5q6 -8 9 -17zM131 382q-1 -10 3 -18q3 -7 11 -12t25 -5q-1 0 -16 8t-23 27z
" />
    <glyph glyph-name="P" unicode="P" horiz-adv-x="633" 
d="M57 438q7 17 18.5 31.5t25.5 27.5q3 3 6 5.5t6 4.5q11 9 23.5 16.5t25.5 14.5q20 11 41 19t41 14q17 5 31.5 9t27.5 7q4 0 6 1l21 4q11 2 22.5 3t24.5 2q19 3 43 3q23 1 47.5 0t47.5 -4q6 -1 12 -1.5t12 -2.5q24 -5 44 -12q5 -2 10.5 -4t10.5 -4l10 -5l9 -6q13 -8 25 -19
q16 -15 25 -32l5 -10q1 -3 2 -5.5t2 -4.5l3 -11v-2q0 -1 0.5 -1.5t0.5 -2.5q0 -1 0.5 -1.5t0.5 -1.5v-4q0 -2 0.5 -2.5t0.5 -2.5v-5q1 -5 1 -11v-13q0 -4 -0.5 -7.5t-0.5 -7.5q-1 -3 -1 -8l-2 -8q-1 -5 -1.5 -9t-2.5 -9l-2 -8q-5 -16 -12 -28q-11 -20 -28.5 -41t-44.5 -40
q-16 -11 -41 -24l-16 -7l-17 -7q-18 -7 -37 -12q-11 -4 -20 -5q-13 -4 -22 -5l-8 -2l-15 -2l-19 -3q-6 -1 -12 -1.5t-12 -0.5q-2 0 -3.5 -0.5t-3.5 -0.5h-10q-4 0 -8 -0.5t-8 -0.5h-6q-6 0 -11.5 0.5t-11.5 0.5q-2 0 -2.5 0.5t-2.5 0.5l-10 -28q-3 -9 -8.5 -28.5t-10 -43
t-5 -48t6.5 -43.5q0 -3 1 -5.5t2 -4.5q7 -14 15.5 -18.5t15.5 -5.5q8 -1 16 3q1 -8 -3.5 -13.5t-9.5 -10.5q-6 -5 -14 -9q-29 -13 -51 -9.5t-36 11.5q-17 9 -30 34t-7 77q0 6 1 9v1l6 31q7 32 15.5 62.5t17.5 59.5l-8 3q-8 4 -14.5 8t-11.5 8q-15 11 -23.5 21.5t-11.5 15.5
q-1 0 -1 1q-1 1 -1 2v1q1 2 10 15t22 24l6 4q2 2 4.5 3t4.5 3l2 1v-1q0 -1 6 -7.5t17 -15.5l11 -9l15 -8q29 76 60.5 135.5t52.5 94.5l-18 -4t-17 -5l-11 -3q-14 -5 -26.5 -10.5t-24.5 -10.5q-38 -18 -67.5 -40t-51.5 -43t-36 -39.5t-20 -28.5q-6 2 -11 6q-5 3 -10 8t-10 13
l-2 2q-5 9 -6.5 20.5t0.5 27.5q0 3 1 5q0 2 1 5l2 6q2 8 4 12zM471 526q-19 -29 -55 -94.5t-81 -167.5q2 0 3.5 -0.5t3.5 -0.5h14q4 0 7.5 0.5t7.5 0.5q5 1 11 1.5t12 2.5l16 4l16 4l24 9q26 11 47 24l14 10l14 11l13 11l12 13q4 5 8 9.5t8 9.5q1 2 2 3.5t2 3.5q4 5 6.5 11
t5.5 11l6 16l4 16v3q1 5 0 11q-2 16 -10 27q-2 5 -5.5 8.5l-8.5 8.5l-8 6t-9 6q-9 5 -17 8l-15 6l-16 4q-4 0 -6 1q-3 0 -6 0.5t-7 1.5h-6.5t-6.5 1zM337 218q8 -2 15 -2.5t15 -1.5h11q2 0 3 0.5t3 0.5q6 0 11.5 0.5t10.5 1.5q5 0 11 2q4 0 5 1q4 0 10 2l10 3q5 2 10.5 3.5
t10.5 3.5q1 0 2 0.5t2 0.5q2 2 5 2.5t5 1.5q8 4 15 8q1 0 1.5 0.5t1.5 0.5t1 1q-4 -2 -7 -3l-6 -2l-26 -8q-12 -4 -23 -6l-11 -3l-35 -5q-7 -1 -13 -1.5t-11 -0.5q-5 -1 -9.5 -1h-7.5h-8q-2 0 -2 1zM66 378q0 7 0.5 13t1.5 13q1 2 1 5q4 18 8.5 31t5.5 15l-2 -2
q-14 -15 -17 -30t-2 -26v-6q1 -2 1 -5q0 -4 2 -6q1 -1 1 -2zM289 -43q-9 -3 -20 -3q-10 0 -22.5 4t-26.5 16q6 -12 16 -18q8 -6 21 -7.5t32 8.5zM390 523q6 0 8 1q-2 -1 -8 -1zM398 524q6 0 8 1q-2 -1 -8 -1zM247 287l-3 -7zM363 518h3h-3z" />
    <glyph glyph-name="Q" unicode="Q" horiz-adv-x="666" 
d="M383 -147q-35 17 -75.5 30.5t-83.5 18.5t-87.5 -1.5t-87.5 -28.5q-8 16 -9 31q-1 13 5 27t26 25q20 12 70 17q-35 26 -49 59t-18 63q-4 35 2 72q3 12 6 22.5t8 21.5q1 4 7.5 17.5t19.5 31t33.5 36.5t49.5 33l14 7l6 2h1q23 8 46 11t45 -3q30 -8 43 -23t17 -30
q4 -18 0 -37q-11 3 -36 8t-59 -1q-7 -2 -18.5 -5.5t-25 -11t-27.5 -19.5t-25 -30q-6 -11 -10 -21t-6 -18q-3 -9 -4 -17q-5 -24 -2 -43t10.5 -32.5t19 -23.5t24.5 -16q30 -15 71 -19q37 -3 67 5t54 23t42 35.5t32 42.5q31 51 46 119q13 69 9.5 117.5t-18.5 81t-39 51
t-51 27.5q-63 21 -153 2q-48 -13 -73.5 -44t-26.5 -64q-1 -18 4 -27.5t11 -14.5q7 -5 16 -5q-2 -8 -8 -12t-12 -6q-7 -2 -16 -2q-27 1 -40.5 15.5t-18.5 28.5q-2 6 -4.5 18.5t-1.5 28.5t6.5 35t19.5 40q21 32 46.5 51t51 29.5t47.5 14.5t36 6q94 8 167 -18q31 -11 60.5 -31
t52 -52.5t35.5 -78.5t11 -109q-4 -100 -31 -168.5t-66.5 -112t-87.5 -66t-93 -30.5l22 -10t22 -11q5 -2 15 -6.5t19 -7.5q25 -6 45 0.5t32 22.5q8 11 10.5 19.5t0.5 13.5q-2 6 -7 11q8 5 19 0l10 -6q15 -14 16 -29.5t-2 -26.5t-14.5 -32t-38.5 -33l-12 -4t-14 -3
q-28 -5 -54.5 2.5t-43.5 16.5zM546 382q5 16 2 34q-2 14 -12 31.5t-33 32.5q2 -2 9.5 -10.5t15.5 -22t13.5 -30t4.5 -35.5zM293 328q15 -2 25.5 -8t17 -12t10 -11.5t4.5 -7.5q-3 17 -12 25t-19 11q-11 4 -26 3zM123 382q1 -10 6 -18q5 -7 13.5 -12t25.5 -5q-1 0 -17.5 8
t-27.5 27zM96 -50q-16 -3 -24 -9t-11 -11q-4 -7 -3 -14q3 6 9 12t13 11t16 11z" />
    <glyph glyph-name="R" unicode="R" horiz-adv-x="659" 
d="M42 438q10 34 38 59.5t63.5 44t71.5 30t63 16.5q21 4 54 8t72 4.5t79.5 -4.5t77 -18.5t64 -37.5t40.5 -61q17 -60 2 -113q-6 -23 -20.5 -46.5t-40 -45t-63.5 -39t-93 -29.5q-20 -4 -37 -6t-33 -4q12 -23 30.5 -50t42 -54t52 -51t62.5 -40q0 -1 1 -1q6 -3 29.5 -12.5
t55.5 -16t67 -6t65 18.5q-2 -5 -7 -15t-7 -15q-19 -35 -46 -53t-67 -24q-26 -4 -49.5 -1t-44 9.5t-37.5 15.5t-30 18q-3 2 -6 4.5t-6 5.5q-35 27 -62.5 60.5t-49 66.5t-37 64t-24.5 54q-1 -2 -1 -5q-2 -9 -6 -28.5t-6 -43t-0.5 -48t10.5 -43.5q1 -4 5 -10q8 -14 17 -18.5
t16 -5.5q8 -1 15 3q2 -8 -1.5 -13.5t-8.5 -10.5t-13 -9q-27 -13 -50 -9.5t-37 11.5q-19 9 -34 34t-14 77v10q0 14 3 31q7 68 24.5 132t38.5 119t41.5 98.5t34.5 71.5l14 3q14 2 27.5 4t25.5 3q-14 -1 -30 -2.5t-33 -4.5l-14 -3q-58 -12 -102.5 -37.5t-76 -53.5t-50 -54
t-24.5 -39q-19 8 -30 22q-10 12 -15.5 32t4.5 51zM456 525q-17 -29 -51 -94.5t-67 -166.5q34 -3 74 8t75.5 33.5t60.5 55t28 73.5q1 13 -5.5 28t-21 28t-38 22.5t-55.5 12.5zM344 218q31 -6 59 -2.5t50 10.5q26 8 48 21q-32 -13 -60 -19t-50 -8q-26 -3 -47 -2zM687 -99
q-12 -2 -28 -3q-14 -1 -32.5 -1t-41.5 4q12 -5 28 -8q14 -2 32.5 -1t41.5 9zM56 378q-2 14 0 28.5t4 25.5q3 13 7 24q-12 -14 -15 -28t-2 -25q1 -13 6 -25zM322 -43q-9 -3 -20 -3q-10 0 -22.5 4t-28.5 16q7 -12 18 -18q9 -6 22.5 -7.5t30.5 8.5z" />
    <glyph glyph-name="S" unicode="S" horiz-adv-x="438" 
d="M134 485q0 1 8.5 16.5t26.5 34t47.5 36.5t72.5 26q9 2 17 2.5t16 1.5q9 0 26 -2t36 -10.5t37 -24.5t30 -43q12 -30 13.5 -56.5t1.5 -31.5v-1q-2 -25 -8.5 -47t-20.5 -39q-20 -26 -40 -33t-36 -5q-18 2 -35 12q8 13 19 44t16 75q3 28 0 46.5t-9.5 29.5t-15.5 15.5t-18 6.5
q-18 1 -33 -3q-2 0 -8 -2q-20 -8 -32 -21.5t-17 -20.5q-13 -21 -17 -35q-3 -9 -4 -16q-6 -26 -5 -52q1 -23 7.5 -50.5t26.5 -52.5q20 -26 48.5 -51t51 -54.5t32 -65.5t-7.5 -84q-8 -20 -23.5 -39.5t-40.5 -35t-60 -24.5t-81 -9q-42 0 -70 10t-45.5 25t-26.5 33t-12.5 34.5
t-3.5 28.5t1 16l3 14q3 14 7.5 23.5t6.5 12.5q11 20 23 30.5t19 15.5h1q13 8 33 11.5t43 -11.5q8 -6 12 -11t6 -11t-1 -14q-5 3 -11 4q-5 1 -13 -0.5t-16 -7.5t-18 -22t-9 -35q1 -5 4 -13.5t11 -17t22 -15t38 -7.5h13t18.5 0.5t18 1t11.5 1.5q11 4 24 11q20 13 26 32t7 30v1
q0 3 -1.5 12.5t-9 25t-24.5 36.5t-47 45q-37 29 -54 62.5t-24 61.5q-8 33 -6 64q2 29 8.5 50.5t14.5 35.5zM438 386q-17 -28 -32.5 -37.5t-18.5 -10.5q14 -2 23.5 5t15.5 17q7 11 12 26zM43 130q14 12 31.5 19.5t20.5 9.5q-13 2 -22.5 -2.5t-16.5 -10.5q-8 -7 -13 -16z" />
    <glyph glyph-name="T" unicode="T" horiz-adv-x="377" 
d="M312 -4q8 -14 17 -18.5t16 -5.5q8 -1 16 3q2 -8 -1.5 -13.5t-8.5 -10.5t-13 -9q-28 -13 -51 -9.5t-37 11.5q-18 9 -33 34t-15 77v9l1 1q0 8 0.5 15.5t1.5 15.5q7 67 23 130t34.5 118t37.5 98.5t33 71.5q-66 -11 -111 -34.5t-74.5 -50.5t-44.5 -52t-21 -39q-19 8 -30 22
q-10 12 -15.5 32t4.5 51q10 34 35.5 59t57.5 43t66 29t61 16q15 3 35 6q26 3 58 4t83 1q17 0 47.5 -0.5t66.5 0t73.5 2.5t69.5 7.5t54 14.5t26 24q8 -5 14 -13q5 -7 9 -18.5t2 -28.5q-2 -28 -35 -49t-114 -23q-67 -1 -118 0.5t-90 1.5q-20 -37 -54.5 -116.5t-71.5 -203.5
l-7 -30q-2 -9 -6 -28.5t-6 -43t0 -48t11 -43.5q1 -3 2 -5.5t2 -4.5zM55 383q-2 14 -0.5 28.5t3.5 25.5q3 13 7 24q-12 -14 -15 -28t-2 -25q1 -13 7 -25zM250 -26q7 -12 18 -18q9 -6 22 -7.5t31 8.5q-9 -3 -20 -3q-10 0 -22.5 4t-28.5 16zM786 599q-10 -23 -18.5 -33
t-12.5 -12q11 3 17.5 10.5t9.5 15.5q4 9 4 19z" />
    <glyph glyph-name="U" unicode="U" horiz-adv-x="656" 
d="M50 480q10 25 31.5 44.5t48 34t56.5 24.5t57 16q9 2 28.5 4t41 -1t42.5 -13t34 -32q15 -27 15.5 -54t-6.5 -52.5t-18 -49t-20 -42.5v1q-14 -33 -31.5 -68t-34.5 -70t-32 -70.5t-24 -68.5q-7 -26 -4 -39.5t8 -19.5q6 -7 17 -8q23 -1 49 17t53.5 49t55.5 71t53.5 82.5
t48 84t39.5 75.5t28 56.5t13 27.5q11 26 21 47.5t18 36.5q9 18 16 31q6 3 15 6q8 2 18 4t24 2t23 -3t14 -6q6 -4 10 -9q-31 -59 -63 -129q-27 -60 -58 -138.5t-57 -166.5l-8 -30q-2 -9 -5.5 -28.5t-5.5 -43t-0.5 -48t10.5 -43.5q1 -4 5 -10q8 -14 17 -18.5t16 -5.5
q8 -1 15 3q2 -8 -1.5 -13.5t-8.5 -10.5t-13 -9q-27 -13 -50.5 -9.5t-37.5 11.5q-18 9 -33 34t-15 77q0 2 0.5 4.5t0.5 4.5v1q0 8 0.5 15.5t1.5 15.5q3 24 7.5 48.5t9.5 49.5q-24 -42 -51 -81t-57 -71q-36 -39 -76 -54t-69 -15q-22 0 -38 4t-25 9l-7 3l-4 2q-1 0 -1 1
q-15 10 -25.5 28t-11.5 47q-2 49 17 104t46 108.5t56 102.5t49 87q6 12 14 27.5t15 29.5t10.5 24.5t1.5 13.5t-10 2t-17.5 -3t-20 -5.5t-17.5 -6.5q-39 -14 -71 -33t-55 -38.5t-37.5 -37t-20.5 -27.5q-16 9 -27 25q-9 14 -12.5 34.5t9.5 50.5zM58 418q0 27 7.5 49t9.5 26
q-13 -12 -17 -25.5t-4 -24.5q0 -13 4 -25zM578 -86q-9 -3 -20 -3q-10 0 -22.5 4t-28.5 16q7 -12 18 -18q9 -6 22 -7.5t31 8.5zM150 18q-1 -13 3 -24q3 -10 11 -19t24 -13q-8 5 -15 13q-6 7 -12.5 17.5t-10.5 25.5z" />
    <glyph glyph-name="V" unicode="V" horiz-adv-x="559" 
d="M50 480q11 25 32 44.5t48 34t56.5 24.5t56.5 16q9 2 28.5 4t41 -1t42.5 -13t34 -32q15 -27 15.5 -54t-6.5 -52.5t-18 -49t-20 -42.5v1q-18 -42 -41 -87t-43.5 -90.5t-34 -89.5t-13.5 -83q22 27 52.5 63.5t64.5 80.5t69.5 93.5t69.5 101.5q3 5 6.5 12t8.5 15
q4 8 13.5 25.5t18 39.5t14 46t2.5 45q0 3 -0.5 5.5t-1.5 5.5q-5 14 -12 21.5t-13 10.5q-8 4 -15 2q1 8 5.5 12.5t10.5 7.5q6 4 15 5q30 5 51.5 -5.5t32.5 -21.5q15 -14 22 -42.5t-8 -77.5l-3 -8v-2q-5 -15 -12 -29q-20 -47 -49 -95t-62 -94t-68.5 -88t-67.5 -78t-59 -63.5
t-44 -43.5q-11 -10 -21 -14t-19 -6q-11 -2 -20 -2q-14 1 -29.5 5t-28.5 14t-21.5 27t-9.5 44q-2 49 17 104t46 108.5t56 102.5t49 87q6 12 14 27.5t15 29.5t10.5 24.5t1.5 13.5t-10 2t-17.5 -3t-20 -5.5t-17.5 -6.5q-39 -14 -71 -33t-55 -38.5t-37.5 -37t-20.5 -27.5
q-16 9 -27 25q-9 14 -12.5 34.5t9.5 50.5zM58 418q0 27 8 49t10 26q-13 -12 -17.5 -25.5t-4.5 -24.5q0 -13 4 -25zM617 543q-4 13 -12 22q-7 8 -19 13t-32 1q9 1 20 -3q9 -3 20 -10.5t23 -22.5zM145 18q0 -13 4 -24q3 -10 11 -19t24 -13q-8 5 -15 13q-6 7 -13 17.5t-11 25.5
z" />
    <glyph glyph-name="W" unicode="W" horiz-adv-x="797" 
d="M492 410q5 21 3 42q-2 8 -2 11q-5 15 -11 23.5t-13 12.5q-8 4 -16 5q1 8 5.5 11.5t10.5 5.5t15 2q17 -1 31.5 -6t25.5 -12q5 -4 14.5 -13t18.5 -24.5t14 -38t1 -53.5q-2 -11 -4 -22.5t-7 -25.5q-11 -39 -24.5 -80.5t-24 -82.5t-15 -80t2.5 -75q18 27 41.5 63.5t49.5 80.5
t53 93.5t51 101.5l10 27q3 8 9.5 25.5t11 39.5t5.5 46t-5 45q-1 3 -2 5.5t-3 5.5q-8 14 -15.5 21.5t-14.5 10.5q-8 4 -16 2q-1 8 3 12.5t9 7.5q6 4 14 5q30 5 53 -5.5t36 -21.5q18 -14 30.5 -42.5t5.5 -77.5q0 -3 -0.5 -4.5t-0.5 -3.5v-2q-2 -16 -7 -29q-11 -45 -30 -91.5
t-43 -90.5t-50.5 -85.5t-52 -76.5t-47.5 -63.5t-37 -46.5q-18 -21 -35 -26t-25 -4h-5q-14 1 -29.5 5t-30 14t-26 27t-17.5 44q-5 20 -5 41.5t2 43.5q-26 -49 -46.5 -87t-33.5 -60q-13 -20 -28 -24t-20 -5q-14 0 -31 4t-33 13.5t-29 27t-19 46.5q-11 49 -2 104t26.5 108.5
t38 102.5t33.5 87q4 12 9.5 27.5t9.5 29.5t5.5 24.5t-1.5 13.5q-2 3 -9.5 2t-16.5 -3t-19 -5.5t-17 -6.5q-37 -14 -65 -33t-48 -38.5t-31.5 -37t-15.5 -27.5q-19 9 -31 25q-11 14 -18 34.5t-1 50.5q6 25 24 44.5t42 34t52 24.5t54 16q9 2 28 4t41.5 -1t45 -13t39.5 -32
q19 -27 24.5 -54t3.5 -52.5t-9 -49t-13 -42.5v1q-11 -42 -26 -87t-27 -90.5t-18 -89.5t2 -83q18 27 41.5 63.5t49.5 80.5t52.5 93.5t50.5 101.5q4 9 11 27q5 10 13 34zM31 418q-3 14 -3 28t2 25q2 12 5 23q-11 -12 -13 -25.5t0 -24.5q2 -13 9 -26zM810 543q-6 13 -16 22
q-8 8 -21 13t-32 1q9 1 20 -3q9 -3 22 -10.5t27 -22.5zM191 18q1 -13 7 -24q5 -10 14.5 -19t26.5 -13q-9 5 -18 13q-8 7 -16 17.5t-14 25.5z" />
    <glyph glyph-name="X" unicode="X" horiz-adv-x="739" 
d="M580 591q25 -17 37.5 -41t17.5 -50t5 -52v-47q1 -14 1 -29v-30l12 12q35 42 57.5 76t35.5 58q6 11 11 23.5t10 24.5l1 1q6 17 10 33t5 30v10q-3 15 -9 23t-12 12q-7 4 -15 4q2 8 7.5 12t11.5 6q7 3 15 3q31 1 50.5 -12t29.5 -25q13 -17 16.5 -46t-18.5 -76l-3 -7l-1 -1
q-5 -12 -15 -28q-3 -6 -14.5 -25.5t-35 -51.5t-60 -75.5t-89.5 -97.5q0 -42 3.5 -82.5t12.5 -75.5t25 -62.5t43 -44.5q-29 -20 -57 -26q-24 -5 -51 3.5t-46 46.5q-15 29 -23 65.5t-11 77.5l-57 -50q-44 -41 -90 -78t-89 -60l-14 -7q-15 -6 -34 -12t-41 -9t-46 -1.5t-49 9.5
q-38 13 -59 36t-34 60q-2 5 -5 16t-4 16q26 -23 61 -30t67 -6t57 6t32 7l1 1q34 9 76.5 33.5t84.5 55.5t79.5 63.5t62.5 58.5q2 54 6 104t5 88q1 13 1.5 30t0 33t-2 27t-4.5 13q-3 1 -9.5 -2.5t-14.5 -10t-15.5 -14l-13.5 -13.5q-29 -29 -49 -60t-32.5 -59t-18 -50t-6.5 -34
q-20 1 -36 11q-14 8 -25 25.5t-13 49.5q-2 27 9 54t28.5 51.5t40 46.5t44.5 40q7 6 23.5 16t37.5 17t44 7t44 -15zM127 -66q16 -7 35 -10q17 -2 38.5 0t47.5 13q-18 -4 -37 -6q-17 -2 -38.5 -2t-45.5 5zM326 399q-7 -17 -5 -30.5t7 -24.5q5 -12 15 -22q-7 13 -10 27t-5 25
q-2 13 -2 25zM854 601q-2 13 -9 24q-6 9 -17.5 15.5t-31.5 4.5q9 -1 19 -5q8 -4 18.5 -13t20.5 -26z" />
    <glyph glyph-name="Y" unicode="Y" horiz-adv-x="910" 
d="M550 -296q-44 -20 -90 -25.5t-86.5 -3t-72.5 9t-49 11.5q-29 9 -61 23t-61 33.5t-52 45.5t-34 58q-11 30 -6 50.5t16 32.5q12 14 31 22q4 -9 14.5 -25t27 -35t39.5 -39t53 -38q68 -38 125 -46.5t99 -3.5q49 5 90 26q35 17 65 50.5t55 75.5t45 87.5t34.5 87.5t24 75.5
t14.5 50.5q-32 -62 -69.5 -122t-81.5 -108q-36 -39 -76 -54t-69 -15q-22 0 -38 4t-26 9l-7 3q-2 1 -3 2q-1 0 -1 1q-15 10 -25.5 28t-11.5 47q-2 49 17 104t46 108.5t56 102.5t49 87q6 12 14 27.5t15 29.5t10.5 24.5t0.5 13.5q-2 3 -9.5 2t-17.5 -3t-20 -5.5t-18 -6.5
q-39 -14 -70.5 -33t-55 -38.5t-38 -37t-20.5 -27.5q-17 9 -27 25q-9 14 -12 34.5t10 50.5q10 25 31.5 44.5t48 34t56.5 24.5t57 16q9 2 28.5 4t41 -1t42.5 -13t34 -32q15 -27 15.5 -54t-6.5 -52.5t-18 -49t-20 -42.5v1q-14 -33 -31.5 -68t-34.5 -70t-32 -70.5t-24 -68.5
q-7 -26 -4 -39.5t8 -19.5q6 -7 16 -8q26 -2 56 21t61 60.5t61.5 84.5t57.5 94.5t49 90.5t36 72q7 37 12 67t8 52q4 26 5 46q5 2 13 1q6 -1 15.5 -3.5t20.5 -10.5t18.5 -16t12.5 -14q5 -7 8 -13q-8 -61 -20 -127q-11 -57 -28.5 -127.5t-42.5 -142.5q-12 -41 -28 -84
q-14 -38 -32.5 -83t-42.5 -90q-3 -6 -7 -13q-4 -6 -9 -14.5t-12 -19.5q-11 -16 -21.5 -30t-21.5 -26l-9 -10q-48 -48 -111 -77zM56 -130q3 -16 11 -32q7 -14 19 -29t32 -27q-12 13 -23 27q-10 12 -20.5 28t-18.5 33zM300 418q0 27 8 49t10 26q-13 -12 -17 -25.5t-4 -24.5
q0 -13 3 -25zM389 18q-1 -13 3 -24q3 -10 11 -19t24 -13q-8 5 -15 13q-6 7 -12.5 17.5t-10.5 25.5z" />
    <glyph glyph-name="Z" unicode="Z" horiz-adv-x="460" 
d="M130 -64q-12 0 -21 0.5t-14 1.5q-21 4 -34.5 13t-21.5 18t-11.5 16.5t-4.5 9.5q-5 17 -2 42t20 59q1 2 2 3.5t2 3.5q0 1 1 1q3 7 7 13.5t9 13.5q18 28 41.5 57t49.5 59q-8 8 -16 17.5t-16 25.5l-0.5 6t2 15t9 20t19.5 22l1 1q11 -18 23 -32.5t25 -25.5q58 60 120 114.5
t115 98.5q-42 -2 -81.5 -7.5t-72 -13t-56 -16.5t-34.5 -18q-11 18 -13 36q-2 16 4.5 35.5t32.5 39.5q28 22 65.5 32.5t80.5 12t88.5 -3.5t89.5 -15l9 -3t12.5 -7.5t12 -13.5t7.5 -21t-2 -24.5t-10.5 -21t-15 -18t-16.5 -15.5q-56 -45 -124 -102.5t-133 -119.5q14 -5 31 -9
t35.5 -5t36.5 2t35 11l-13 -21q-17 -25 -36.5 -38t-50.5 -15q-26 -2 -49 5t-42 18l-18 -20q-9 -9 -20 -24q-6 -6 -17 -20.5t-23 -33.5t-22 -40.5t-12 -42.5q42 6 82.5 9.5t77.5 3.5h16t16 -1h1q2 0 4 -0.5t4 -0.5q52 -5 75 -23t30 -38q6 -14 7 -37.5t-15 -49.5
q-5 -7 -10 -12t-11 -7.5t-14 0.5q4 7 4 15q0 7 -4 16t-16 20q-4 4 -9 5q-21 11 -52.5 17t-62 8.5t-55.5 2t-34 -1.5q-3 -1 -8 -1q-2 0 -5 -0.5t-5 -0.5zM198 506q6 13 15 24t17 19q10 10 19 17q-17 -5 -27.5 -15t-15.5 -20q-6 -11 -8 -25zM369 -9q20 -14 30.5 -31t12.5 -21
q-2 16 -9 26t-15 16q-9 7 -19 10zM294 187q9 -3 20 -3q9 0 21 2.5t26 10.5q-2 -1 -20 -4.5t-47 -5.5z" />
    <glyph glyph-name="a" unicode="a" horiz-adv-x="351" 
d="M389 225q14 -7 11.5 -25.5t-15.5 -41.5q-6 -11 -21.5 -39t-38 -56t-51.5 -48t-63 -15q-10 2 -20 8q-8 5 -16.5 15.5t-12.5 27.5q-14 -23 -39 -39.5t-63 -13.5q-25 2 -41 10.5t-25.5 21t-13.5 28.5t-5 32q-2 38 13 84t35.5 75.5t44 47t48.5 24t48 6.5q26 0 39.5 -6.5
t20.5 -14.5l8 18q14 5 31 7q14 2 32.5 -0.5t38.5 -11.5q-25 -56 -43 -102q-8 -20 -14.5 -39t-10.5 -34.5t-4.5 -26.5t3.5 -14q1 -3 5 -3q3 0 7 2t10 9t14 19t16.5 26t17.5 28t16 25q4 8 10 12q5 4 12 6t16 -2zM184 195q3 9 5 19.5t2.5 20.5t-1.5 17t-8 10q-11 5 -24 0
t-27 -18.5t-27.5 -35.5t-23.5 -50q-7 -21 -9 -38q-2 -14 1.5 -27t17.5 -15q9 -2 19.5 1t22 13.5t23.5 30t23 51.5v1q0 2 1 3zM20 199q12 24 26 41t27.5 29t23 18t12.5 7q-25 -7 -41.5 -22.5t-27.5 -31.5q-12 -19 -20 -41zM3 60q1 -11 7 -20q5 -8 16 -14.5t31 -8.5
q-1 0 -7.5 3t-14.5 8.5t-17 13t-15 18.5zM190 45q0 -10 5 -17q5 -6 14.5 -10t27.5 -2q-8 -1 -17 3q-8 2 -16 8.5t-14 17.5z" />
    <glyph glyph-name="b" unicode="b" horiz-adv-x="342" 
d="M346 223q9 5 20.5 5t19.5 -9q7 -9 4.5 -17.5t-10 -16t-16.5 -14t-15 -9.5q-17 -9 -33 -17.5t-33 -15.5q-7 -22 -20 -44q-12 -20 -30 -38q-15 -15 -37 -29t-50 -18q-18 -3 -30.5 -0.5t-20.5 6.5q-9 4 -14 11q-8 8 -13 21.5t-2 33.5q3 21 13.5 36t25 25t30 15.5t28.5 7.5
l33 8l1 1q11 40 10 61t-7 31q-7 11 -20 13q-15 1 -28 -3.5t-23 -13t-17 -18t-11 -16.5q-14 -39 -26 -79.5t-21 -82.5q-4 -15 -2 -25t5.5 -16t8 -9t5.5 -3q-16 -9 -38 -12q-3 -1 -8 -1q-23 -2 -35 6t-17 20.5t-5.5 25.5t0.5 21q12 85 37.5 166t51.5 144q30 74 64 139l10 5
q5 2 14.5 3.5t23.5 1.5t24 -3t17 -6q8 -4 13 -8q-14 -26 -29 -59q-13 -28 -29.5 -65.5t-33.5 -82.5q14 12 37.5 21.5t58.5 4.5q37 -5 54.5 -41.5t15.5 -84.5q12 5 24.5 11t24.5 13zM119 72q0 -2 1 -5q2 -6 7 -6q13 -2 24 9.5t20 28.5q-7 -3 -15 -5.5t-16 -4.5q-6 -1 -10 -3
t-7.5 -5.5t-3.5 -8.5zM128 500q-5 -8 -10 -17q-5 -8 -9.5 -17.5t-9.5 -18.5q1 3 7 11t14 18t18 18t20 11q-7 -1 -13 -2q-5 -1 -10 -1.5t-7 -1.5zM224 311q16 -7 26.5 -17.5t17.5 -21.5q8 -12 13 -26q-5 25 -14 38t-19 19q-11 7 -24 8zM124 13q16 -2 32 2q14 3 28.5 10.5
t27.5 24.5q-12 -9 -25 -16q-12 -6 -27.5 -12.5t-35.5 -8.5zM-14 27q2 -8 6 -14q4 -5 11.5 -9t21.5 -3q-2 0 -15 5.5t-24 20.5z" />
    <glyph glyph-name="c" unicode="c" horiz-adv-x="280" 
d="M317 225q15 -7 12.5 -25.5t-15.5 -41.5q-5 -7 -12.5 -21.5t-18.5 -33.5q-8 -11 -21 -27.5t-31 -32.5t-41 -30t-51 -20l-22 -3q-13 -1 -28 0q-18 1 -35 5q-15 4 -31 11t-28 21q-1 0 -1 1q-16 19 -19 44t0 48q3 26 12 54q15 46 35.5 75.5t44 47t48.5 24t48 6.5q14 0 26 -3
q9 -2 24 -12t23 -33q0 -1 2 -7v-1q2 -7 2.5 -13.5t1.5 -11.5q0 -2 -0.5 -6.5t-3.5 -9.5q-11 -13 -22.5 -17.5t-19.5 -6.5q-1 0 -1.5 -0.5t-1.5 -0.5q-5 0 -6 2t-1 4q4 16 3.5 31t-9.5 20q-10 5 -23.5 0t-27 -18.5t-27 -35.5t-23.5 -50q-3 -9 -6 -19q-2 -8 -3.5 -18t-0.5 -19
q0 -5 6 -17q4 -8 11 -12q2 -2 4 -3l4 -2l5 -2q16 -5 31 -3t29 8l20 9q14 9 25.5 22t20.5 24l11 15q11 17 23 35.5t21 32.5q4 8 10 12q5 4 12 6t15 -2zM31 28q13 -11 31 -17q15 -5 37 -6t51 10q-20 -4 -40 -4q-17 0 -38.5 3t-40.5 14zM104 299q-20 -5 -33.5 -15.5
t-21.5 -21.5q-10 -12 -16 -27q8 11 20 22.5t23 20.5q13 11 28 21z" />
    <glyph glyph-name="d" unicode="d" horiz-adv-x="352" 
d="M346 348q-11 -25 -24.5 -58t-24.5 -61q-7 -17 -13.5 -35t-11 -33.5t-7.5 -28.5t-2 -21q0 -7 3 -8q1 -3 5 -3q3 0 7 2t10 9t14 19t16.5 26t17.5 28t16 25q4 8 10 12q5 4 12 6t16 -2q14 -7 11.5 -25.5t-15.5 -41.5q-5 -9 -16 -29.5t-27 -43.5t-36.5 -44.5t-45.5 -32.5
q-11 -5 -23.5 -7.5t-25.5 -0.5q-11 2 -21 8q-8 5 -16 15.5t-12 28.5q-15 -23 -40 -40t-63 -14q-25 2 -41 10.5t-25.5 21t-13.5 28.5t-5 32q-2 38 13 84t35.5 75.5t44 47t48.5 24t48 6.5q26 0 40 -7t21 -15l12 32t10 24q14 34 26 62t22 48q11 24 21 42l10 5q5 2 14.5 3.5
t23.5 1.5t24 -3t17 -6q8 -4 13 -8q-11 -19 -22 -44q-10 -21 -23 -50t-27 -64zM178 172q1 1 1 5l-1 -2l5 15t6.5 27t1.5 28t-9 17q-11 5 -24 0t-27 -18.5t-27.5 -35.5t-23.5 -50q-7 -21 -9 -38q-2 -14 1.5 -27t17.5 -15q9 -2 19.5 1t22 13.5t23.5 30t23 51.5v-2zM20 199
q12 24 26 41t27.5 29t23 18t12.5 7q-25 -7 -41.5 -22.5t-27.5 -31.5q-12 -19 -20 -41zM323 500q-5 -8 -10 -17q-5 -8 -9.5 -17.5t-9.5 -18.5q1 3 7 11t14 18t18 18t21 11l-14 -2q-5 -1 -10 -1.5t-7 -1.5zM3 60q1 -11 7 -20q5 -8 16 -14.5t31 -8.5q-1 0 -7.5 3t-14.5 8.5
t-17 13t-15 18.5zM191 45q0 -10 5 -17q5 -6 14.5 -10t27.5 -2q-8 -1 -17 3q-8 2 -16 8.5t-14 17.5z" />
    <glyph glyph-name="e" unicode="e" horiz-adv-x="282" 
d="M320 225q15 -7 12 -25.5t-16 -41.5q-4 -7 -12 -21.5t-19 -33.5q-8 -11 -20.5 -27.5t-30.5 -32.5t-41 -30t-51 -20l-22 -3q-14 -2 -29 0q-18 1 -35 5q-15 4 -31 11t-28 21l-1 1q-16 19 -18.5 44t-0.5 48q3 26 12 54q15 46 35.5 75.5t44 47t48.5 24t48 6.5q15 0 26 -3
q10 -2 24.5 -12t22.5 -33l1 -1q0 -2 1.5 -7.5t2.5 -15.5q1 -5 1 -16q0 -13 -5 -30l-1 -2v-2q-2 -6 -4 -9v-1q-4 -9 -11.5 -21.5t-19.5 -24t-29 -19.5t-40 -9q-14 -1 -22.5 1.5t-10.5 2.5q-14 5 -26 14q-2 -8 -3.5 -18t0.5 -19q0 -2 1 -6.5t4 -10.5q2 -3 5 -6.5t7 -5.5
q3 -4 8 -5l4 -2q16 -5 31.5 -3t29.5 8l19 9q14 9 26 22t21 24l11 15q11 17 22.5 35.5t21.5 32.5q5 8 10 12t11.5 6t15.5 -2zM183 262q-20 10 -48 -14.5t-48 -74.5q5 -4 20 -8.5t40 3.5q15 6 24 15.5t13.5 20.5t6 21.5t1.5 16.5q-2 16 -9 20zM39 28q13 -11 31 -17
q15 -5 37 -6t51 10q-20 -4 -40 -4q-17 0 -38.5 3t-40.5 14zM112 299q-20 -5 -33.5 -15.5t-21.5 -21.5q-10 -12 -16 -27q8 11 20 22.5t23 20.5q13 11 28 21zM123 154q9 -2 18 -1q8 1 16 4.5t15 12.5q-6 -5 -14 -9q-7 -3 -16 -5.5t-19 -1.5z" />
    <glyph glyph-name="f" unicode="f" horiz-adv-x="166" 
d="M158 348q-10 -23 -22.5 -54t-23.5 -58l-10 -28q15 2 30 6.5t30 9.5q10 4 21.5 3.5t19.5 -10.5q7 -9 3 -18t-13.5 -16t-20.5 -12.5t-17 -7.5q-36 -13 -73 -17q-7 -25 -13 -52t-11 -55l-4 -38q-2 -22 -1.5 -41.5t2.5 -34.5q0 -2 1 -8t3 -12q1 -8 6 -13q1 -2 2 -2.5t2 -1.5
q5 -5 13 -5h6q11 1 17 9.5t9 18.5q1 4 3.5 15.5t0.5 22.5q9 -2 17 -8q7 -5 13 -14.5t8 -25.5q1 -5 1 -9v-7v-6q-2 -45 -20 -66.5t-38 -29.5q-24 -10 -54 -6q-32 5 -51 25t-29 50t-11.5 66.5t2 74t10 73t13.5 63.5q10 37 20 69t16 50l14 36l30 77q14 34 26 62t22 48
q11 24 21 42q3 2 10 5q5 2 14.5 3.5t23.5 1.5t24 -3t17 -6q8 -4 13 -8q-10 -19 -21 -44q-10 -21 -23.5 -50t-27.5 -64zM135 500q-5 -8 -10 -17q-5 -8 -9.5 -17.5t-9.5 -18.5q1 3 7 11t14 18t18 18t21 11l-14 -2q-5 -1 -10 -1.5t-7 -1.5zM119 -175q-12 -12 -28 -19
q-14 -6 -32 -7t-40 12q5 -6 12 -10q14 -9 40 -5q14 2 23.5 6.5t14.5 9.5q6 6 10 13z" />
    <glyph glyph-name="g" unicode="g" horiz-adv-x="349" 
d="M386 225q15 -7 12.5 -25.5t-15.5 -41.5q-6 -11 -20.5 -37t-35.5 -53.5t-48.5 -48t-59.5 -20.5q-5 -17 -10 -33.5t-12 -33.5q35 -14 65 -21t57 7q-4 -23 -15 -41q-10 -15 -29 -26.5t-52 -7.5q-31 4 -61 18q-13 -20 -28.5 -37.5t-33.5 -29.5t-39.5 -18t-46.5 -4
q-29 1 -52 12q-20 9 -37 29t-18 56q1 28 15 50q12 19 38.5 35t76.5 16q21 0 40 -2.5t37 -7.5q10 28 18 59q-14 -11 -32.5 -17t-41.5 -4q-25 2 -41 10.5t-25.5 21t-13.5 28.5t-5 32q-2 38 13 84t35.5 75.5t44 47t48.5 24t48 6.5q26 0 39.5 -6.5t20.5 -14.5q2 5 4 9t4 9
q14 5 31 7q14 2 32.5 -0.5t38.5 -11.5q-25 -56 -43 -102q-8 -20 -14.5 -39t-10.5 -34.5t-4.5 -26.5t3.5 -14q1 -3 5 -3q3 0 7 2t10 9t14 19t16.5 26t17.5 28t16 25q4 8 10 12q5 4 12 6t15 -2zM182 195q2 9 4 19.5t2.5 20.5t-1 17t-7.5 10q-11 5 -24 0t-27 -18.5t-27.5 -35.5
t-23.5 -50q-7 -21 -9 -38q-2 -14 1.5 -27t17.5 -15q9 -2 19.5 1t22 13.5t23.5 30t23 51.5v1q0 2 1 3zM86 -100q-25 13 -46.5 20t-44.5 -1h-1q-12 -4 -19 -10.5t-10 -13.5t-3 -12.5v-7.5q0 -1 0.5 -1.5t0.5 -1.5q1 -5 4 -9q2 -4 7 -8t13 -6q14 -5 39 1q9 2 26 12.5t34 37.5z
M18 199q11 24 25.5 41t27.5 29t22.5 18t12.5 7q-24 -7 -40.5 -22.5t-27.5 -31.5q-12 -19 -20 -41zM13 -213q15 -2 27.5 0.5t21.5 5.5q11 4 18 9q-15 -6 -34 -9q-17 -2 -39.5 0t-51.5 14q5 -4 13 -8q7 -3 18 -6.5t27 -5.5zM223 265q2 4 6.5 11.5t11.5 16t15.5 15t18.5 8.5
q-7 -1 -13 -1q-5 -1 -10 -1t-7 -1zM1 60q1 -11 7 -20q5 -8 16 -14.5t31 -8.5q-1 0 -7.5 3t-14.5 8.5t-17 13t-15 18.5zM257 -138q-9 -1 -19 0q-18 0 -38 5q7 -4 17 -7q8 -2 18.5 -2.5t21.5 4.5z" />
    <glyph glyph-name="h" unicode="h" horiz-adv-x="337" 
d="M196 0q-21 4 -33 19q-11 13 -16.5 37.5t5.5 68.5q1 8 4 19q2 10 6 24t10 34l3 8q2 6 4.5 15.5t3 19t-1 17t-7.5 8.5q-7 2 -21 -11.5t-30 -36.5t-31.5 -54t-25.5 -64q-4 -11 -6.5 -23t-5.5 -24q-4 -15 -2 -25t5.5 -16t8 -9t5.5 -3q-8 -5 -18 -7.5t-19 -4.5q-4 -1 -9 -1
q-23 -2 -35 6t-17 20.5t-5.5 25.5t0.5 21q12 85 37.5 166t51.5 144q30 74 64 139l10 5q5 2 14.5 3.5t23.5 1.5t24 -3t17 -6q8 -4 13 -8q-15 -29 -31 -64q-14 -30 -31.5 -70t-35.5 -87q17 17 37 29t41 13q7 0 17 -2q41 -6 54 -41t-6 -92q-12 -32 -18.5 -58t1.5 -31q1 -3 5 -3
q3 0 7 2t10 9t14 19t16.5 26t17.5 28t16 25q4 8 10 12q5 4 12 6t15 -2q15 -7 12.5 -25.5t-15.5 -41.5q-6 -11 -21.5 -39t-38 -56t-52 -48t-63.5 -15zM128 500q-5 -8 -10 -17q-5 -8 -9.5 -17.5t-9.5 -18.5q1 3 7 11t14 18t18 18t20 11q-7 -1 -13 -2q-5 -1 -10 -1.5t-7 -1.5z
M176 45q0 -10 5 -17q5 -6 14 -10t28 -2q-8 -1 -17 3q-8 2 -16 8.5t-14 17.5zM-14 27q2 -8 6 -14q4 -5 11.5 -9t21.5 -3q-2 0 -15 5.5t-24 20.5z" />
    <glyph glyph-name="i" unicode="i" horiz-adv-x="162" 
d="M21 0q-20 4 -33 19q-11 13 -17 37.5t5 68.5q3 21 12 50q7 25 20 61.5t34 87.5q15 5 32 7q14 2 32.5 -0.5t38.5 -11.5q-25 -56 -43 -102q-8 -20 -14.5 -39t-10.5 -34.5t-5 -26.5t3 -14q1 -3 5 -3q3 0 7 2t10 9t14 19t17 26t17.5 28t16.5 25q4 8 10 12q5 4 12 6t15 -2
q15 -7 12 -25.5t-16 -41.5q-6 -11 -21.5 -39t-38 -56t-51.5 -48t-63 -15zM100 445q12 2 32.5 3.5t43.5 -6.5q4 -2 7 -5q6 -6 2 -17l-15 -34q-1 -3 -3 -7q-3 -6 -7 -10q-6 -7 -18 -14t-32 -4q-18 2 -27 9.5t-12 15.5q-3 6 -1 13l2 8q3 9 6.5 18t8.5 20q1 2 3 4q5 5 10 6z
M34 265q2 4 6.5 11.5t11.5 16t16 15t19 8.5q-7 -1 -13 -1q-5 -1 -10.5 -1t-7.5 -1zM80 391q0 1 4.5 7t11 14t16 15t20.5 10q-5 -1 -9 -1q-4 -1 -8.5 -1t-8.5 -1q-6 -2 -8 -5q-2 -2 -2 -3zM1 45q0 -10 5 -17q5 -6 14 -10t28 -2q-8 -1 -17 3q-8 2 -16 8.5t-14 17.5z" />
    <glyph glyph-name="j" unicode="j" horiz-adv-x="163" 
d="M197 158q-6 -10 -19 -34.5t-33 -51t-45.5 -48t-55.5 -24.5l-10 -34t-12 -34q35 -14 65 -21t56 7q-4 -23 -15 -41q-10 -15 -28.5 -26.5t-51.5 -7.5q-31 4 -61 18q-13 -20 -28.5 -37.5t-33.5 -29.5t-39.5 -18t-46.5 -4q-29 1 -52 12q-20 9 -37 29t-18 56q1 28 15 50
q12 19 38.5 35t76.5 16q21 0 40 -2.5t37 -7.5q8 22 14 43.5t10 40.5t6.5 33.5t3.5 21.5q0 2 0.5 3t0.5 3l3 17q1 1 1 3v3l11 43q7 26 20 63.5t35 89.5q14 5 31 7q14 2 32.5 -0.5t38.5 -11.5q-25 -56 -43 -102q-8 -20 -14.5 -39t-10.5 -34.5t-4.5 -26.5t3.5 -14q1 -3 5 -3
q3 0 7 2t10 9t14 19t16.5 26t17.5 28t16 25q4 8 10 12q5 4 12 6t16 -2q14 -7 11.5 -25.5t-15.5 -41.5zM112 351q-18 2 -27 9.5t-13 15.5q-3 6 -1 13l2 8l15 38l4 4q5 5 10 6q11 2 31.5 3.5t44.5 -6.5q4 -2 7 -5q6 -6 2 -17l-15 -34q-1 -3 -3 -7q-3 -6 -7 -10q-6 -7 -18 -14
t-32 -4zM-89 -100q-25 13 -46.5 20t-44.5 -1h-1q-13 -4 -19.5 -10.5t-9.5 -13.5t-3 -12.5v-7.5t1 -3q1 -5 4 -9q2 -4 6.5 -8t12.5 -6q15 -5 40 1q8 2 25.5 12.5t34.5 37.5zM-168 -213q16 -2 28 0.5t21 5.5q10 4 18 9q-15 -6 -34 -9q-17 -2 -39.5 0t-51.5 14q5 -4 13 -8
q7 -3 18 -6.5t27 -5.5zM39 265q2 4 6.5 11.5t11.5 16t16 15t19 8.5q-8 -1 -14 -1q-5 -1 -10 -1t-7 -1zM98 426q-2 -5 -6 -13.5t-10 -19.5q2 3 6.5 9.5t11 13.5t15 13t18.5 8q-5 -1 -9 -1q-4 -1 -8 -1t-8 -1q-6 -2 -8 -5q-2 -2 -2 -3zM76 -138q-9 -1 -19 0q-17 0 -37 5
q8 -4 17 -7q8 -2 18 -2.5t21 4.5z" />
    <glyph glyph-name="k" unicode="k" 
d="M372 158q-6 -11 -21.5 -39t-38 -56t-52 -48t-63.5 -15q-6 1 -12 4q-5 2 -11.5 6.5t-11.5 12.5l-2 2q-7 10 -6 26.5t5 33.5q4 19 11 40q2 8 -1 10t-8 2q-2 0 -3 -0.5t-3 -0.5q-4 -1 -7.5 -1.5t-8.5 -0.5q-14 -1 -25 2q-9 2 -15 9t-1 21q3 9 17 15t34 7q5 2 17 12t17 39
q2 11 0.5 20t-8.5 11t-21 -11.5t-30.5 -37t-32 -54.5t-25.5 -64l-6 -27l-5 -19q-4 -15 -2 -25t5.5 -16t8 -9t5.5 -3q-8 -5 -18 -7.5t-19 -4.5q-4 -1 -9 -1q-23 -2 -35 6t-17 20.5t-5.5 25.5t0.5 21q12 85 37.5 166t51.5 144q30 74 64 139l10 5q5 2 14.5 3.5t23.5 1.5t24 -3
t17 -6q8 -4 13 -8q-15 -30 -31 -64q-14 -30 -31 -69.5t-35 -86.5q17 17 36.5 28.5t40.5 12.5q7 0 17 -2q53 -8 58 -62q2 -12 0.5 -29t-10.5 -32q-5 -9 -13.5 -19t-22.5 -19q17 -17 16 -41v-1q-1 -7 -0.5 -12t3.5 -7q1 -3 5 -3q3 0 7 2t10 9t14 19t16.5 26t17.5 28t16 25
q4 8 10 12q5 4 12 6t15 -2q15 -7 12.5 -25.5t-15.5 -41.5zM129 500q-5 -8 -10 -17q-5 -8 -9.5 -17.5t-9.5 -18.5q1 3 7 11t14 18t18 18t21 11l-14 -2q-5 -1 -10 -1.5t-7 -1.5zM173 45q1 -10 6 -17q5 -6 14 -10t28 -2q-8 -1 -17 3q-8 2 -16 8.5t-15 17.5zM237 185
q-17 -12 -34 -17.5t-21 -6.5q14 -2 24 2t17 9q8 5 14 13zM-13 27q2 -8 6 -14q4 -5 11.5 -9t21.5 -3q-2 0 -15 5.5t-24 20.5z" />
    <glyph glyph-name="l" unicode="l" horiz-adv-x="162" 
d="M199 225q15 -7 12.5 -25.5t-15.5 -41.5q-5 -9 -16 -29.5t-27 -43.5t-37 -44.5t-45 -32.5q-12 -5 -24 -7.5t-26 -0.5q-11 3 -21 9q-8 5 -16 15.5t-11 29.5q-3 13 -2.5 30.5t6.5 40.5q3 16 9 40q5 20 14.5 49.5t25.5 69.5q7 18 16.5 42t14.5 35q14 34 26 62t22 48
q11 24 21 42l10 5q5 2 14.5 3.5t23.5 1.5t24 -3t17 -6q8 -4 13 -8q-11 -19 -22 -44q-10 -21 -23.5 -50t-27.5 -64q-10 -25 -23.5 -58t-24.5 -61q-14 -35 -25 -68.5t-10 -49.5q2 -7 4 -8q1 -3 5 -3q3 0 7 2t10 9t14 19t16.5 26t17.5 28t16 25q4 8 10 12q5 4 12 6t15 -2z
M133 500q-5 -8 -10 -17q-5 -8 -9.5 -17.5t-9.5 -18.5q1 3 7 11t14 18t18 18t20 11q-7 -1 -13 -2q-5 -1 -10 -1.5t-7 -1.5zM1 45q0 -10 5 -17q5 -6 14 -10t28 -2q-8 -1 -17 3q-8 2 -16 8.5t-14 17.5z" />
    <glyph glyph-name="m" unicode="m" horiz-adv-x="478" 
d="M34 -8q-4 -1 -9 -1q-23 -2 -35 6t-17 20.5t-5.5 25.5t0.5 21q8 56 22 110t31 104l16 46l1 1q3 1 12 3.5t22.5 3t30 -1.5t34.5 -11q-1 -2 -2 -6q-1 -3 -2.5 -7t-3.5 -9q13 13 27.5 21t30.5 9q8 0 18 -2q51 -8 57 -57q17 24 37.5 41t43.5 18q8 0 18 -2q41 -6 53.5 -41
t-6.5 -92q-11 -32 -17.5 -58t1.5 -31q2 -3 5 -3q2 0 6 2t10 9t14 19t17 26l18 28t16 25q4 8 10 12q5 4 12 6t15 -2q15 -7 12 -25.5t-15 -41.5q-6 -11 -21.5 -39t-38 -56t-52 -48t-63.5 -15q-20 4 -33 19q-11 13 -16.5 37.5t5.5 68.5q1 8 4 19q2 10 6 24t10 34l2 8
q2 6 4.5 15.5t3.5 19t-0.5 17t-7.5 8.5t-14.5 -6.5t-18 -22t-20 -34.5t-19.5 -44q-2 -5 -10 -27.5t-13.5 -48t-3.5 -48.5t19 -30q-28 -13 -54 -9q-20 4 -33 19q-11 13 -16.5 37.5t5.5 68.5q1 8 4 19q2 10 6 24t10 34l2 8q2 6 4.5 15.5t3.5 19t-0.5 17t-7.5 8.5
q-7 2 -19 -11.5t-25.5 -37.5t-26.5 -55t-23 -65l-6 -22t-5 -22q-4 -15 -2 -25t5.5 -16t8 -9t5.5 -3q-8 -5 -18 -7.5t-19 -4.5zM31 265q2 4 6.5 11.5t11.5 16t15.5 15t18.5 8.5q-7 -1 -13 -1q-5 -1 -10 -1t-7 -1zM364 16q-8 -1 -17 3q-8 2 -16 8.5t-14 17.5q0 -10 5 -17
q5 -6 14 -10t28 -2zM-14 27q2 -8 6 -14q4 -5 11.5 -9t21.5 -3q-2 0 -15 5.5t-24 20.5zM159 39q1 -8 5 -14q4 -5 11.5 -9.5t21.5 -2.5q-2 0 -15 5.5t-23 20.5z" />
    <glyph glyph-name="n" unicode="n" 
d="M197 0q-21 4 -33 19q-11 13 -16.5 37.5t5.5 68.5q1 8 4 19q2 10 6 24t10 34q0 2 3 8q2 6 4.5 15.5t3 19t-1 17t-7.5 8.5q-7 2 -21 -11.5t-30 -36.5t-31.5 -54t-25.5 -64q-4 -11 -6.5 -23t-5.5 -24q-4 -15 -2 -25t5.5 -16t8 -9t5.5 -3q-8 -5 -18 -7.5t-19 -4.5
q-4 -1 -9 -1q-23 -2 -35 6t-17 20.5t-5.5 25.5t0.5 21q8 56 22 110t31 104l16 46l1 1q3 1 12 3.5t22.5 3t30 -1.5t34.5 -11q-1 -5 -3 -10q-3 -9 -9 -24q17 17 37 29t41 13q7 0 17 -2q41 -6 54 -41t-6 -92q-12 -32 -18.5 -58t1.5 -31q1 -3 5 -3q3 0 7 2t10 9t14 19t16.5 26
t17.5 28t16 25q4 8 10 12q5 4 12 6t15 -2q15 -7 12.5 -25.5t-15.5 -41.5q-6 -11 -21.5 -39t-38 -56t-52 -48t-63.5 -15zM33 265q2 4 6.5 11.5t11.5 16t16 15t19 8.5q-8 -1 -14 -1q-5 -1 -10 -1t-7 -1zM177 45q0 -10 5 -17q5 -6 14 -10t28 -2q-8 -1 -17 3q-8 2 -16 8.5
t-14 17.5zM-13 27q2 -8 6 -14q4 -5 11.5 -9t21.5 -3q-2 0 -15.5 5.5t-23.5 20.5z" />
    <glyph glyph-name="o" unicode="o" horiz-adv-x="308" 
d="M-5 27q-1 0 -1 1q-16 19 -19 44t0 48q3 26 12 54q15 46 35.5 75.5t44 47t48.5 24t48 6.5q14 0 26 -3q9 -2 24 -12t23 -33q0 -1 2 -7v-1q2 -7 2.5 -13.5t1.5 -11.5q0 -2 -0.5 -6.5t-3.5 -9.5q-10 -12 -20 -16q26 -16 33 -51q5 -26 -2 -58q-6 -32 -20.5 -52.5t-31.5 -33.5
t-34.5 -19t-29.5 -8q-4 -1 -6.5 -1.5t-4.5 -0.5h-5q-13 -1 -28 0q-18 1 -35 5q-15 4 -31 11t-28 21zM181 262q-11 5 -24 0t-27 -18.5t-27.5 -35.5t-23.5 -50q-3 -9 -6 -19q-2 -8 -3.5 -18t-0.5 -19q0 -5 6 -17q2 -3 4.5 -6.5t6.5 -5.5q2 -2 4 -3l4 -2l5 -2q2 0 3 -0.5
t3 -0.5q18 -5 32 0t23 13q11 9 18 21q11 19 11 31t-4 19q-4 8 -13 11q-17 5 -27 -1t-15 -16q-6 -11 -8 -27q-11 8 -13.5 18.5t-0.5 21.5q2 12 8 26q9 22 29.5 33t42.5 9q2 13 1 23.5t-8 14.5zM146 15q-20 -4 -40 -4q-17 0 -38.5 3t-40.5 14q13 -11 31 -17q15 -5 37 -6t51 10
zM54 263q9 11 19 18.5t19 13t15.5 8t7.5 2.5q-15 -2 -26.5 -8.5t-19.5 -14.5q-9 -9 -15 -19zM196 146q1 6 0 10q-2 10 -8 15q-8 4 -17 2q-4 -1 -9 -3q8 1 15 -1q6 -2 11.5 -7t7.5 -16z" />
    <glyph glyph-name="p" unicode="p" horiz-adv-x="351" 
d="M268 85q-13 -20 -31 -38q-15 -15 -37 -29t-50 -18q-18 -3 -30 -0.5t-20 6.5q-9 4 -14 11q-8 8 -13 21.5t-2 33.5q3 21 13.5 36t25 25t30 15.5t28.5 7.5l33 8l1 1q11 40 10 61t-7 31q-7 11 -20 13q-15 1 -27 -3.5t-21.5 -12t-17 -16.5t-11.5 -16q-12 -34 -25.5 -76
t-26.5 -88.5t-24.5 -95.5t-18.5 -98q-2 -17 1 -27t8 -15q5 -6 13 -9q-8 -6 -18 -10t-19 -6q-2 0 -4.5 -0.5t-4.5 -0.5q-22 -4 -34.5 3t-18.5 19t-7.5 25t-1.5 21q5 86 24.5 168.5t39.5 147.5q24 76 53 144l10 5q12 5 38 8q26 1 41 -5q8 -4 14 -8l-3 -6q-2 -3 -3.5 -7.5
l-3.5 -10.5q14 12 37.5 21t57.5 4q37 -5 54.5 -41.5t15.5 -84.5q12 5 24 11t25 13q9 5 20.5 5t19.5 -9q7 -9 4.5 -17.5t-10 -16t-17 -14t-15.5 -9.5q-16 -9 -32 -17.5t-33 -15.5q-7 -22 -20 -44zM124 72q0 -2 1 -5q2 -6 7 -6q12 -2 23.5 9.5t19.5 28.5q-6 -3 -14 -5.5
t-16 -4.5q-6 -1 -10 -3t-7.5 -5.5t-3.5 -8.5zM43 293q-4 -8 -8 -17.5t-8 -19.5q1 3 6.5 11.5t13 19t17 20t19.5 12.5q-7 -1 -13 -3q-5 -2 -10.5 -3t-7.5 -2zM286 246q-5 25 -14 38t-19 19q-11 7 -24 8q16 -7 26.5 -17.5t17.5 -21.5q8 -12 13 -26zM129 13q16 -2 32 2
q14 3 28.5 10.5t27.5 24.5q-12 -9 -25 -16q-12 -6 -27.5 -12.5t-35.5 -8.5zM-52 -172q2 -8 7 -13t12.5 -8t21.5 -1q-8 0 -15 3q-6 2 -13 6.5t-13 12.5z" />
    <glyph glyph-name="q" unicode="q" horiz-adv-x="349" 
d="M383 158q-6 -10 -20 -35.5t-34.5 -52.5t-47 -48.5t-57.5 -22.5q-8 -33 -15 -67t-12 -68q-2 -17 1 -27t8 -15q5 -6 13 -9q-8 -6 -18 -10t-19 -6q-2 0 -4.5 -0.5t-4.5 -0.5q-22 -4 -34.5 3t-18.5 19t-7.5 25t-1.5 21q3 40 9 79.5t14 77.5q-14 -12 -33 -18.5t-43 -4.5
q-25 2 -41.5 10.5t-26 21t-14 28.5t-4.5 32q-2 38 14 84q15 46 35.5 75.5t44 47t48.5 24t48 6.5q25 0 39 -6.5t21 -14.5l7 18q15 5 32 7q14 2 32.5 -0.5t38.5 -11.5q-25 -56 -43 -102q-8 -20 -14.5 -39t-10.5 -34.5t-5 -26.5t4 -14q2 -3 5 -3q2 0 6 2t10 9t14 19t17 26
t17.5 28t16.5 25q4 8 10 12q5 4 12 6t15 -2q15 -7 12 -25.5t-15 -41.5zM87 78q9 -2 20 1t22.5 13.5t23 30t22.5 51.5q1 0 1 1l-1 -1v1q0 1 0.5 1.5t0.5 1.5l6 17q2 9 4 19.5t2.5 20.5t-1 17t-7.5 10q-11 5 -24 0t-27 -18.5t-27.5 -35.5t-23.5 -50q-7 -21 -9 -38
q-2 -14 1 -27t17 -15zM18 199q11 24 25.5 41t27.5 29t22.5 18t12.5 7q-25 -7 -41 -22.5t-27 -31.5q-12 -19 -20 -41zM233 293q-4 -8 -8.5 -17.5t-8.5 -19.5q1 3 6.5 11.5t13 19t17 20t19.5 12.5q-7 -1 -13 -3q-5 -2 -10 -3t-7 -2zM1 60q1 -11 7 -20q5 -8 15.5 -14.5
t30.5 -8.5q-1 0 -7 3t-14.5 8.5t-17 13t-14.5 18.5zM132 -172q2 -8 7 -13t12.5 -8t21.5 -1q-8 0 -15 3q-6 2 -13 6.5t-13 12.5z" />
    <glyph glyph-name="r" unicode="r" horiz-adv-x="259" 
d="M293 158q-6 -11 -21.5 -39t-38 -56t-52 -48t-63.5 -15q-21 4 -33 19q-11 13 -16.5 37.5t5.5 68.5q2 11 6 28l10 35t16 50q-11 3 -21 9q-11 -22 -20.5 -38t-14.5 -24q-13 -23 -27.5 -35t-28.5 -2q-8 5 -9.5 12t-0.5 13q1 7 5 15q5 11 12 24t13.5 26.5t13 26.5t10.5 22
q-10 16 -12 35.5t3 36.5t17 29t30 12q21 0 28 -18t8 -38q0 -9 -0.5 -17.5t-0.5 -13.5q-1 -2 -0.5 -7t2.5 -7q4 -2 7 -2q4 1 7.5 4.5t5.5 7.5l5 5t14 3q9 -1 22 -3.5t24 -7.5t18 -14.5t4 -23.5l-30 -75l-4 -9q0 -4 -2 -8q-9 -27 -13 -47.5t2 -25.5q1 -3 5 -3q3 0 7 2t10 9
t14 19t16.5 26t17.5 28t16 25q4 8 10 12q5 4 12 6t15 -2q15 -7 12.5 -25.5t-15.5 -41.5zM47 302q-2 11 -3 22q-1 10 -0.5 22.5t4.5 26.5q-3 -4 -5 -9t-3.5 -11.5t-1.5 -14.5q-1 -9 1 -19t8 -17zM98 45q0 -10 5 -17q5 -6 14 -10t28 -2q-8 -1 -17 3q-8 2 -16 8.5t-14 17.5z
M201 281q-5 8 -12.5 12t-15.5 5q-9 1 -18 0q12 -3 20.5 -6t14.5 -5q6 -3 11 -6z" />
    <glyph glyph-name="s" unicode="s" horiz-adv-x="254" 
d="M186 325q-11 -20 -8 -42.5t8.5 -49.5t9 -60t-5.5 -73q-10 -42 -30.5 -63.5t-42.5 -29.5q-26 -11 -54 -9q-41 1 -62.5 17t-30.5 36q-11 23 -11 51q0 27 6 46.5t16.5 33t23.5 20t27 8.5l35 70l15 30t13 24q7 11 13 21q23 -2 38 -7t24 -10q11 -6 16 -13zM71 91
q18 5 25.5 21.5t9 36.5t-1 38.5t-4.5 27.5l-15 -25q4 -5 5.5 -9.5t3.5 -8.5l2 -8q-12 -1 -23 -5q-9 -4 -18 -12t-12 -23q-6 -20 6 -30q3 -3 7 -3.5t7 -0.5q4 0 8 1zM-7 47q11 -13 27 -22q14 -8 34 -11.5t49 4.5q-3 0 -14 -1t-26.5 1.5t-33.5 8.5t-36 20zM119 341
q20 -5 34 -10t16 -7q-6 6 -14.5 9.5t-16.5 5.5q-10 2 -19 2z" />
    <glyph glyph-name="t" unicode="t" horiz-adv-x="163" 
d="M200 225q15 -7 12.5 -25.5t-15.5 -41.5q-5 -9 -16 -29.5t-27 -43.5t-37 -44.5t-45 -32.5q-12 -5 -24 -7.5t-26 -0.5q-11 3 -21 9q-8 5 -16 15.5t-12 29.5q-2 13 -1.5 30.5t6.5 40.5q3 16 9 40q5 20 14.5 49.5t25.5 69.5q7 18 16.5 42t14.5 35l6 16q-23 2 -28 12t-2 21
q4 13 15 29q9 -18 32 -21q10 22 18.5 39t14.5 30l13 26l10 5q5 2 14.5 3.5t23.5 1.5t24 -3t17 -6q8 -4 13 -8l-9 -18q-5 -8 -10.5 -20.5t-12.5 -27.5q20 7 40 15.5t40 16.5q23 10 51 21.5t57 19.5t57.5 10t54.5 -7q26 -11 32.5 -30t3.5 -39q-4 -23 -17 -49q-5 25 -41 31
t-86 1t-107.5 -16.5t-106.5 -21.5l-19 -44q-10 -25 -23.5 -58t-24.5 -61q-14 -35 -25 -68.5t-10 -49.5q2 -7 4 -8q1 -3 5 -3q2 0 6.5 2t10.5 9t14 19t16.5 26t17.5 28t16 25q4 8 10 12q5 4 12 6t15 -2zM134 500q-5 -8 -10 -17q-5 -8 -9.5 -17.5t-9.5 -18.5q1 3 7 11t14 18
t18 18t20 11q-7 -1 -13 -2q-5 -1 -10 -1.5t-7 -1.5zM2 45q0 -10 5 -17q5 -6 14 -10t28 -2q-8 -1 -17 3q-8 2 -16 8.5t-14 17.5zM483 438q-9 5 -20 8q-10 2 -25 2.5t-35 -5.5q15 2 30 2q13 0 26 -1.5t24 -5.5z" />
    <glyph glyph-name="u" unicode="u" 
d="M375 225q15 -7 12 -25.5t-15 -41.5q-6 -11 -21.5 -39t-38 -56t-52 -48t-63.5 -15q-12 2 -23 10q-9 7 -17 19t-10 34q-17 -25 -37 -42.5t-46 -20.5h-9q-39 2 -56 17t-22 33t-3 28q0 12 1.5 24.5t3.5 19.5q8 41 19 80t23 76l16 46l1 1q3 1 12.5 3.5t23 3t30 -1.5t34.5 -11
q-2 -6 -5 -14q-2 -7 -5.5 -15.5t-7.5 -19.5l-13 -34q-8 -22 -15 -43.5t-14 -44.5q-9 -29 -9.5 -44.5t3.5 -23.5q4 -9 12 -10q13 -1 28 17t28 43.5t24 52t17 42.5q1 4 2 7.5t3 8.5q6 18 14 39t18 44q15 5 32 7q14 2 32.5 -0.5t38.5 -11.5q-25 -56 -43 -102q-8 -20 -14.5 -39
t-10.5 -34.5t-5 -26.5t4 -14q2 -3 5 -3q2 0 6 2t10 9t14 19t17 26t17.5 28t16.5 25q4 8 10 12q5 4 12 6t15 -2zM39 17q20 -3 37 3t19 7q-2 0 -11.5 -2t-23 -2t-29.5 4.5t-31 16.5q4 -7 9 -12t12 -9t18 -6zM31 265q2 4 6.5 11.5t11.5 16t16 15t19 8.5q-7 -1 -13 -1
q-5 -1 -10.5 -1t-7.5 -1zM175 45q0 -10 5 -17q5 -6 14 -10t28 -2q-8 -1 -17 3q-8 2 -16 8.5t-14 17.5z" />
    <glyph glyph-name="v" unicode="v" horiz-adv-x="262" 
d="M182 327q23 1 40 -5q14 -5 23.5 -17.5t2.5 -38.5q-8 -30 -24.5 -62.5t-33.5 -60.5q-20 -33 -43 -63q-16 -22 -34.5 -41.5t-39.5 -30.5q-6 -3 -15.5 -6t-20.5 -2q-5 0 -8 1q-25 5 -36.5 18.5t-16.5 28.5q-2 8 -2.5 15.5t-0.5 12.5q0 12 1.5 24t3.5 19q8 42 19.5 82
t23.5 77l16 46l1 1q3 1 12 3.5t22.5 3t30 -1.5t34.5 -11q-2 -6 -5 -14q-2 -7 -5 -15.5t-7 -19.5q-3 -8 -6.5 -16.5t-6.5 -17.5l-30 -90q-13 -42 -9 -57.5t10 -18.5q47 42 69 87t30 83q9 44 5 87zM34 265q2 4 6.5 11.5t11.5 16t16 15t19 8.5q-7 -1 -13 -1q-5 -1 -10.5 -1
t-7.5 -1zM28 15q17 -4 27.5 2.5t12.5 7.5q-1 -1 -8 -3.5t-16.5 -2.5t-21 3.5t-21.5 15.5q0 -5 4 -9q3 -4 8.5 -8t14.5 -6z" />
    <glyph glyph-name="w" unicode="w" horiz-adv-x="428" 
d="M350 327q23 1 40 -5q14 -5 23.5 -17.5t2.5 -38.5q-8 -30 -24.5 -62.5t-33.5 -60.5q-20 -33 -43 -63q-16 -22 -34.5 -41.5t-39.5 -30.5q-6 -3 -15.5 -6t-20.5 -2q-5 0 -8 1q-25 5 -36.5 18.5t-16.5 28.5q-2 7 -2.5 13.5t-0.5 11.5q-15 -20 -32 -37t-37 -28q-6 -3 -15.5 -6
t-20.5 -2q-5 0 -8 1q-25 5 -36.5 18.5t-16.5 28.5q-2 8 -2.5 15.5t-0.5 12.5q0 12 1.5 24t3.5 19q8 42 19.5 82t23.5 77l16 46l1 1q3 1 12 3.5t22.5 3t30 -1.5t34.5 -11q-2 -6 -5 -14q-2 -7 -5 -15.5t-7 -19.5q-3 -8 -6.5 -16.5t-6.5 -17.5l-30 -90q-13 -42 -9 -57.5
t10 -18.5q24 14 49.5 52.5t45.5 100.5q4 14 8 27.5t9 27.5l16 46l1 1q3 1 12 3.5t22.5 3t30 -1.5t34.5 -11q-2 -6 -5 -14q-2 -7 -5 -15.5t-7 -19.5q-3 -8 -6.5 -16.5t-6.5 -17.5l-30 -90q-13 -42 -9 -57.5t10 -18.5q47 42 69 87t30 83q9 44 5 87zM34 265q2 4 6.5 11.5
t11.5 16t16 15t19 8.5q-7 -1 -13 -1q-5 -1 -10.5 -1t-7.5 -1zM28 15q17 -4 27.5 2.5t12.5 7.5q-1 -1 -8 -3.5t-16.5 -2.5t-21 3.5t-21.5 15.5q0 -5 4 -9q3 -4 8.5 -8t14.5 -6zM198 15q17 -4 27.5 2.5t12.5 7.5q-1 -1 -8 -3.5t-16.5 -2.5t-21 3.5t-21.5 15.5q1 -5 5 -9
q3 -4 8 -8t14 -6zM403 264q7 22 -2 32q-4 5 -11 8q12 -14 14 -27q1 -7 -1 -13z" />
    <glyph glyph-name="x" unicode="x" horiz-adv-x="226" 
d="M168 336q23 -8 36 -19q11 -10 15.5 -25t-10.5 -37q-20 -28 -51 -56t-58 -48q0 -20 3 -33q1 -6 3.5 -19.5t8.5 -27t15.5 -23t23.5 -8.5l1 -2l-12 -16q-5 -5 -13 -11t-19 -10q-2 0 -3.5 -0.5t-3.5 -0.5q-26 -4 -41.5 4.5t-24.5 21.5q-5 7 -8 14t-5 11q-4 11 -6 23t-4 20v2
q-20 -20 -34.5 -39t-22.5 -34q-11 -18 -16 -34q-22 9 -34 22q-11 11 -13.5 27t15.5 36q19 21 45.5 40.5t52.5 36.5q-2 28 -4 54.5t-2 51.5l-3 64q14 6 30 9q14 2 31.5 0.5t35.5 -10.5v-7q0 -4 0.5 -11t0.5 -18v-75q21 23 35 46t22 41q10 21 14 40zM79 15q17 -4 27.5 2.5
t12.5 7.5q-1 -1 -8 -3.5t-16.5 -2.5t-21 3.5t-21.5 15.5q0 -5 4 -9q3 -4 8.5 -8t14.5 -6zM14 278q0 9 4 18q3 7 9 13.5t17 8.5q-3 0 -13 -1t-17 -3v-14q0 -6 -0.5 -12t0.5 -10zM193 304q11 -13 11 -24.5t-1 -15.5q5 11 3.5 19t-4.5 13q-4 5 -9 8z" />
    <glyph glyph-name="y" unicode="y" 
d="M183 -68q35 -14 65 -21t56 7q-4 -23 -15 -41q-10 -15 -28.5 -26.5t-51.5 -7.5q-31 4 -61 18q-13 -20 -28.5 -37.5t-33.5 -29.5t-39.5 -18t-46.5 -4q-29 1 -52 12q-20 9 -37 29t-18 56q1 28 15 50q12 19 38.5 35t76.5 16q21 0 40 -2.5t37 -7.5q6 18 11 35.5t9 34.5
q-12 -12 -26 -20t-29 -10h-9q-39 2 -56 17t-23 33q-2 8 -2.5 16t-0.5 12q0 12 1.5 24.5t3.5 19.5q8 41 19 80t24 76l15 46l1 1q3 1 12.5 3.5t23 3t30 -1.5t34.5 -11q-2 -6 -5 -14q-2 -7 -5.5 -15.5t-7.5 -19.5l-12 -34q-8 -22 -15 -43.5t-14 -44.5q-10 -29 -10 -44.5
t3 -23.5q4 -9 12 -10q14 -1 28.5 17t28 43.5t24 52t16.5 42.5q7 21 16.5 45.5t21.5 53.5q14 5 31 7q14 2 32.5 -0.5t38.5 -11.5q-25 -56 -43 -102q-8 -20 -14.5 -39t-10.5 -34.5t-4.5 -26.5t3.5 -14q0 -1 1 -2t5 -1l1 5l2 -2l1 -2q6 4 12 10q6 7 14 19t16.5 26t17.5 28
t16 25q4 6 9 10t10 6.5t13 1.5h6.5t8.5 -2q14 -7 11.5 -25.5t-15.5 -41.5q-6 -10 -18.5 -33.5t-31.5 -49.5t-43.5 -47.5t-53.5 -27.5v3q-12 -4 -29 -4q-5 -16 -10 -33t-12 -34zM72 -100q-25 13 -46.5 20t-44.5 -1h-1q-13 -4 -19.5 -10.5t-9.5 -13.5t-3 -12.5v-7.5t1 -3
q1 -5 4 -9q2 -4 6.5 -8t12.5 -6q15 -5 40 1q8 2 25.5 12.5t34.5 37.5zM40 17q20 -3 36.5 3t18.5 7q-2 0 -11.5 -2t-23 -2t-29.5 4.5t-31 16.5q3 -7 9 -12q5 -5 12.5 -9t18.5 -6zM0 -213q16 -2 28 0.5t21 5.5q10 4 18 9q-15 -6 -34 -9q-17 -2 -39.5 0t-50.5 14q5 -4 13 -8
q7 -3 17.5 -6.5t26.5 -5.5zM28 265q2 4 6.5 11.5t11.5 16t16 15t19 8.5q-7 -1 -13 -1q-5 -1 -10.5 -1t-7.5 -1zM188 -133q8 -4 17 -7q8 -2 18 -2.5t22 4.5q-10 -1 -20 0q-17 0 -37 5z" />
    <glyph glyph-name="z" unicode="z" horiz-adv-x="254" 
d="M177 -69q35 -14 64.5 -20.5t55.5 7.5q-4 -23 -15 -41q-10 -15 -28.5 -26.5t-51.5 -7.5q-32 4 -61 18q-13 -20 -28.5 -37.5t-34 -29.5t-39.5 -18t-46 -4q-29 1 -53 12q-20 9 -37 29t-18 56q1 28 15 50q12 19 38.5 35t76.5 16q41 0 76 -9q16 39 18 65t-3 42q-5 18 -18 28
q-16 5 -21 14q-3 4 -3 9q-3 12 6 31.5t21 39.5q14 23 32 48q-10 0 -20 3.5t-15 8.5q-11 -22 -20.5 -38t-14.5 -24q-13 -23 -27.5 -35t-28.5 -2q-8 5 -9.5 12t-0.5 13q1 7 5 15q5 11 12 24t13.5 26.5t13 26.5t10.5 22q-10 16 -12 35.5t3 36.5t17 29t30 12q20 0 27.5 -18
t8.5 -38q0 -10 -0.5 -18t-1.5 -13q0 -2 0.5 -6t2.5 -8q5 -6 11.5 -6.5t9.5 1.5q9 5 13 12l5 5t13 3q28 -5 46 -13q16 -7 24.5 -18t-5.5 -28q-24 -23 -42 -44q-16 -18 -28 -37.5t-8 -33.5q2 -1 4 -3l9 -9q7 -8 14.5 -20t12.5 -30.5t5 -43t-7 -55.5q-6 -24 -16 -51zM65 -100
q-25 13 -47 20t-45 -1h-1q-12 -4 -18.5 -10.5t-9.5 -13.5t-3 -12.5v-7.5v-3q0 -5 4 -9q2 -4 7 -8t13 -6q14 -5 40 1q8 2 25.5 12.5t33.5 37.5h1zM-9 -213q16 -2 28 0.5t21 5.5q10 4 18 9q-15 -6 -34 -9q-17 -2 -39.5 0t-50.5 14q5 -4 13 -8q7 -3 17.5 -6.5t26.5 -5.5z
M59 302q-2 11 -3 22q-1 10 0 22.5t4 26.5q-3 -4 -5 -9t-3.5 -11.5t-1.5 -14.5q-1 -9 1 -19t8 -17zM179 -133q8 -4 17 -7q8 -2 18 -2.5t22 4.5q-10 -1 -20 0q-17 0 -37 5zM213 281q-5 8 -12.5 12t-15.5 5q-9 1 -18 0q12 -3 20.5 -6t14.5 -5q6 -3 11 -6z" />
    <glyph glyph-name="three" unicode="3" horiz-adv-x="492" 
d="M472 526q4 -46 -12 -89.5t-42 -82.5q22 -22 32.5 -44.5t13.5 -44.5t0 -42t-8 -36q-7 -21 -14.5 -33.5t-8.5 -13.5q-20 -27 -43 -52t-50.5 -44t-58.5 -31t-66 -13q-36 -2 -63 3.5t-45 13.5t-27.5 15t-10.5 9q-4 2 -7 5.5t-5 6.5q-16 19 -23 42.5t-8.5 44.5t0 36.5
t2.5 19.5v1q5 24 14.5 45t26.5 36q23 22 43.5 27t36.5 1q18 -4 33 -17q-10 -12 -25 -41.5t-26 -71.5q-8 -31 -6.5 -50.5t8.5 -30.5q1 -2 5.5 -8.5t13.5 -13t22.5 -11t33.5 -2.5q26 2 49 13.5t42.5 29.5t36.5 40.5t31 46.5q1 0 1 1q4 6 5 9q16 30 8 55t-29 45
q-20 -8 -36.5 -4t-28.5 12q-14 9 -25 23q13 3 26 10t24.5 16t21.5 18.5t16 16.5q30 35 47.5 68.5t11.5 74.5q-6 22 -20 33q-12 9 -35 7.5t-62 -27.5q-38 -26 -62 -50.5t-33 -38.5q-16 9 -25 24q-8 13 -9.5 34t12.5 51q11 20 28 36.5t38 30.5l1 1q4 2 18.5 9t35 13.5t45 9
t48.5 -5.5q26 -9 47.5 -34.5t32.5 -77.5zM93 274q-11 -5 -20 -13q-8 -8 -14.5 -19.5t-8.5 -31.5q0 1 3.5 8t9 16.5t13 20t17.5 19.5zM184 511q-1 8 2 19q2 9 7 20.5t16 25.5q-12 -9 -20 -20q-7 -9 -10 -21t5 -24zM446 226q5 19 4.5 33t-4.5 24q-4 11 -12 20q5 -14 8 -28
t4 -25q1 -13 0 -24z" />
    <glyph glyph-name="grave" unicode="`" horiz-adv-x="177" 
d="M24 396q-2 12 -5 32.5t5 43.5q2 5 5 8q6 6 17 2q22 -8 47 -25.5t47 -39.5q7 -5 14.5 -17t5.5 -32q-2 -15 -8.5 -17.5t-22.5 1.5q-5 1 -18 5.5t-28 9.5t-29 10t-19 7q-3 1 -5 3q-5 3 -6 9zM78 378q-2 1 -9 5t-14.5 11t-14 15.5t-9.5 19.5q0 -5 1 -9t1.5 -8.5t1.5 -8.5
q2 -6 5 -8q2 -2 3 -2z" />
    <glyph glyph-name="acute" unicode="&#xb4;" horiz-adv-x="177" 
d="M153 396q-1 -4 -2.5 -5.5l-3.5 -3.5q-3 -2 -5 -3q-5 -2 -19 -7t-29 -10l-28.5 -9.5t-17.5 -5.5q-16 -4 -22.5 -1.5t-8.5 17.5q-2 20 5.5 32t14.5 17q22 22 47 39.5t47 25.5q11 4 17 -2q3 -3 5 -8q8 -23 5 -43.5t-5 -32.5zM146 429q-3 -10 -9.5 -18.5t-13.5 -15t-13.5 -11
t-9.5 -5.5l34 14q1 0 3 2q3 2 5 8q1 4 1.5 8.5t1.5 8.5t1 9z" />
    <glyph glyph-name="circumflex" unicode="&#x2c6;" horiz-adv-x="235" 
d="M112 384q-19 1 -40.5 3t-29.5 2q-17 1 -22.5 5t-2.5 19q3 20 14 29t19 12q6 3 18.5 9t26.5 10.5t27 7t21 -0.5q15 -5 29.5 -24t31.5 -48q4 -8 8.5 -21.5t-3.5 -31.5q-5 -14 -12.5 -14t-21.5 8zM119 393q5 -4 12 -9.5t18 -13.5q-1 1 -6 6.5t-11 13.5t-10 19t-4 22
q-1 -5 -2 -9t-1 -8.5v-8.5q-1 -3 0 -5l2 -4t2 -3z" />
    <glyph glyph-name="caron" unicode="&#x2c7;" horiz-adv-x="235" 
d="M123 441q19 -1 40.5 -3t29.5 -2q17 -1 22.5 -5t2.5 -19q-3 -20 -14 -29t-19 -12q-6 -3 -18.5 -9t-26.5 -10.5t-27.5 -7t-20.5 0.5q-15 5 -29.5 24t-31.5 48q-4 8 -8.5 21.5t3.5 31.5q5 14 12.5 14t21.5 -8zM116 432q-5 4 -12.5 9.5t-17.5 13.5q1 -1 6 -6.5t10.5 -14
t10 -19t4.5 -21.5q0 5 1 9q2 10 2 17q0 5 -2 9q-1 2 -2 3z" />
    <glyph glyph-name="dieresis" unicode="&#xa8;" horiz-adv-x="265" 
d="M47 445q12 2 32.5 3.5t43.5 -6.5q4 -2 7 -5q6 -6 2 -17l-15 -34q-1 -3 -3 -7q-3 -6 -7 -10q-6 -7 -18 -14t-32 -4q-18 2 -27 9.5t-12 15.5q-3 6 -1 13l2 8q3 9 6.5 18t8.5 20q1 2 3 4q5 5 10 6zM159 404q12 2 32.5 3.5t43.5 -6.5q4 -2 7 -5q6 -6 2 -17l-15 -34
q-1 -3 -3 -7q-3 -6 -7 -10q-6 -7 -18 -14t-32 -4q-18 2 -27 9.5t-12 15.5q-3 6 -1 13l2 8q3 9 6.5 18t8.5 20q1 2 3 4q5 5 10 6zM139 350q0 1 4.5 7t11 14t16 15t20.5 10q-5 -1 -9 -1q-4 -1 -8.5 -1t-8.5 -1q-6 -2 -8 -5q-2 -2 -2 -3zM27 391q0 1 4.5 7t11 14t16 15t20.5 10
q-5 -1 -9 -1q-4 -1 -8.5 -1t-8.5 -1q-6 -2 -8 -5q-2 -2 -2 -3z" />
    <glyph glyph-name="tilde" unicode="&#x2dc;" horiz-adv-x="262" 
d="M84 497q25 -5 37 -15t18 -21.5t10.5 -24t14.5 -23.5t29.5 -19.5t55.5 -11.5q0 -13 -7 -23t-17.5 -16t-23 -8.5t-23.5 0.5q-23 0 -34.5 6.5t-18 17t-11.5 23.5t-15.5 26t-30 24t-55.5 18q0 12 7 22t18 16t23 8.5t23 0.5zM100 477q-17 10 -30 10q-6 0 -10 -1.5t-6 -3.5
l-5 -5q9 3 21 3q5 0 10.5 -0.5t10.5 -1.5t9 -1zM162 355q17 -10 30 -10q11 0 16 5q3 2 5 5q-9 -3 -21 -3h-11t-10 1t-9 2z" />
    <glyph glyph-name="ring" unicode="&#x2da;" horiz-adv-x="154" 
d="M63 397l-4 -2q-1 -1 -1 -2q-2 -5 -3.5 -7.5t-3.5 -6.5q-1 -1 -1 -3t-0.5 -3t0.5 -3q2 -8 15 -11q8 -2 13 0.5t7 5.5q1 1 1.5 2t1.5 2l2 2l7 13q2 5 0 8q-1 2 -3 2q-9 3 -17.5 3h-13.5zM48 424q12 2 32.5 3.5t43.5 -6.5q4 -2 7 -5q6 -6 2 -17l-15 -34q-1 -3 -3 -7
q-3 -6 -7 -10q-6 -7 -18 -14t-32 -4q-18 2 -27 9.5t-12 15.5q-3 6 -1 13l2 8q3 9 6.5 18t8.5 20q1 2 3 4q5 5 10 6zM28 370q0 1 4.5 7t11 14t16 15t20.5 10q-5 -1 -9 -1q-4 -1 -8.5 -1t-8.5 -1q-6 -2 -8 -5q-2 -2 -2 -3z" />
    <glyph glyph-name="hyphen" unicode="-" horiz-adv-x="401" 
d="M352 284q4 -3 8 -8q6 -8 16 -35q4 -14 4.5 -24.5t-0.5 -18.5q-1 -9 -3 -15q-5 2 -24.5 4.5t-45.5 4.5t-55.5 4t-54.5 4t-41.5 4t-16.5 4q-4 3 -8 8t-8 12.5t-9 21.5t-5.5 24t0.5 18q1 9 3 16zM341 273q-8 2 -18 4q-8 2 -18 3.5t-20 3.5q5 -2 14.5 -5t20 -7.5t20 -11
t15.5 -14.5l-6 12q-2 5 -4 9t-4 6zM149 219q8 -2 18 -4q8 -2 17.5 -3.5t20.5 -3.5q-5 1 -15 4t-20.5 8t-20 11.5t-14.5 14.5q2 -7 5 -12q2 -5 4.5 -9t4.5 -6z" />
    <glyph glyph-name="plus" unicode="+" horiz-adv-x="313" 
d="M102 200q-23 2 -37 4t-14 4q-4 3 -8 8t-8 12.5t-9 21.5t-5.5 24t0.5 18q1 9 3 16l87 -9l6 54q3 4 8 8q9 7 35 16q14 4 24 4.5t18 -0.5q9 -1 16 -3q-3 -6 -5.5 -31t-5.5 -58l57 -5q4 -3 8 -8q6 -8 16 -35q4 -14 4.5 -24.5t-0.5 -18.5q-1 -9 -3 -15q-6 2 -31 5t-57 5
q-2 -23 -4 -38t-4 -15q-3 -4 -8 -8q-10 -9 -34 -17q-14 -5 -24.5 -5.5t-18.5 0.5q-9 1 -15 3zM253 273q-8 2 -18 4q-8 2 -18 3.5t-20 3.5q5 -2 14.5 -5t20 -7.5t20 -11t15.5 -14.5l-6 12q-2 5 -4 9t-4 6zM61 219q8 -2 18 -4q8 -2 17.5 -3.5t20.5 -3.5q-5 1 -15 4t-20.5 8
t-20 11.5t-14.5 14.5q2 -7 5 -12q2 -5 4.5 -9t4.5 -6zM128 342q-2 -8 -4 -18q-2 -8 -3.5 -18t-3.5 -20q1 5 4.5 14.5t8 20t11 20t14.5 15.5l-12 -6q-5 -2 -9 -4t-6 -4zM182 150q2 8 4 18q2 8 3.5 17.5t3.5 20.5q-1 -5 -4 -15t-8 -20.5t-11.5 -20t-14.5 -14.5q7 2 12 5
q5 2 9 4.5t6 4.5z" />
    <glyph glyph-name="equal" unicode="=" horiz-adv-x="313" 
d="M264 359q4 -3 8 -8q6 -8 16 -35q4 -14 4.5 -24.5t-0.5 -18.5q-1 -9 -3 -15q-5 2 -24.5 4.5t-45.5 4.5t-55.5 4t-54.5 4t-41.5 4t-16.5 4q-4 3 -8 8t-8 12.5t-9 21.5t-5.5 24t0.5 18q1 9 3 16zM253 348q-8 2 -18 4q-8 2 -18 3.5t-20 3.5q5 -2 14.5 -5t20 -7.5t20 -11
t15.5 -14.5l-6 12q-2 5 -4 9t-4 6zM61 294q8 -2 18 -4q8 -2 17.5 -3.5t20.5 -3.5q-5 1 -15 4t-20.5 8t-20 11.5t-14.5 14.5q2 -7 5 -12q2 -5 4.5 -9t4.5 -6zM264 221q4 -3 8 -8q6 -8 16 -35q4 -14 4.5 -24.5t-0.5 -18.5q-1 -9 -3 -15q-5 2 -24.5 4.5t-45.5 4.5t-55.5 4
t-54.5 4t-41.5 4t-16.5 4q-4 3 -8 8t-8 12.5t-9 21.5t-5.5 24t0.5 18q1 9 3 16zM253 210q-8 2 -18 4q-8 2 -18 3.5t-20 3.5q5 -2 14.5 -5t20 -7.5t20 -11t15.5 -14.5l-6 12q-2 5 -4 9t-4 6zM61 156q8 -2 18 -4q8 -2 17.5 -3.5t20.5 -3.5q-5 1 -15 4t-20.5 8t-20 11.5
t-14.5 14.5q2 -7 5 -12q2 -5 4.5 -9t4.5 -6z" />
    <glyph glyph-name="minus" unicode="&#x2212;" horiz-adv-x="313" 
d="M264 284q4 -3 8 -8q6 -8 16 -35q4 -14 4.5 -24.5t-0.5 -18.5q-1 -9 -3 -15q-5 2 -24.5 4.5t-45.5 4.5t-55.5 4t-54.5 4t-41.5 4t-16.5 4q-4 3 -8 8t-8 12.5t-9 21.5t-5.5 24t0.5 18q1 9 3 16zM253 273q-8 2 -18 4q-8 2 -18 3.5t-20 3.5q5 -2 14.5 -5t20 -7.5t20 -11
t15.5 -14.5l-6 12q-2 5 -4 9t-4 6zM61 219q8 -2 18 -4q8 -2 17.5 -3.5t20.5 -3.5q-5 1 -15 4t-20.5 8t-20 11.5t-14.5 14.5q2 -7 5 -12q2 -5 4.5 -9t4.5 -6z" />
    <glyph glyph-name="agrave" unicode="&#xe0;" horiz-adv-x="351" 
d="M389 225q14 -7 11.5 -25.5t-15.5 -41.5q-6 -11 -21.5 -39t-38 -56t-51.5 -48t-63 -15q-10 2 -20 8q-8 5 -16.5 15.5t-12.5 27.5q-14 -23 -39 -39.5t-63 -13.5q-25 2 -41 10.5t-25.5 21t-13.5 28.5t-5 32q-2 38 13 84t35.5 75.5t44 47t48.5 24t48 6.5q26 0 39.5 -6.5
t20.5 -14.5l8 18q14 5 31 7q14 2 32.5 -0.5t38.5 -11.5q-25 -56 -43 -102q-8 -20 -14.5 -39t-10.5 -34.5t-4.5 -26.5t3.5 -14q1 -3 5 -3q3 0 7 2t10 9t14 19t16.5 26t17.5 28t16 25q4 8 10 12q5 4 12 6t16 -2zM184 195q3 9 5 19.5t2.5 20.5t-1.5 17t-8 10q-11 5 -24 0
t-27 -18.5t-27.5 -35.5t-23.5 -50q-7 -21 -9 -38q-2 -14 1.5 -27t17.5 -15q9 -2 19.5 1t22 13.5t23.5 30t23 51.5v1q0 2 1 3zM20 199q12 24 26 41t27.5 29t23 18t12.5 7q-25 -7 -41.5 -22.5t-27.5 -31.5q-12 -19 -20 -41zM3 60q1 -11 7 -20q5 -8 16 -14.5t31 -8.5
q-1 0 -7.5 3t-14.5 8.5t-17 13t-15 18.5zM190 45q0 -10 5 -17q5 -6 14.5 -10t27.5 -2q-8 -1 -17 3q-8 2 -16 8.5t-14 17.5zM175 396q-2 12 -5 32.5t5 43.5q2 5 5 8q6 6 17 2q22 -8 47 -25.5t47 -39.5q7 -5 14.5 -17t5.5 -32q-2 -15 -8.5 -17.5t-22.5 1.5q-5 1 -18 5.5
t-28 9.5t-29 10t-19 7q-3 1 -5 3q-5 3 -6 9zM229 378q-2 1 -9 5t-14.5 11t-14 15.5t-9.5 19.5q0 -5 1 -9t1.5 -8.5t1.5 -8.5q2 -6 5 -8q2 -2 3 -2z" />
    <glyph glyph-name="aacute" unicode="&#xe1;" horiz-adv-x="351" 
d="M389 225q14 -7 11.5 -25.5t-15.5 -41.5q-6 -11 -21.5 -39t-38 -56t-51.5 -48t-63 -15q-10 2 -20 8q-8 5 -16.5 15.5t-12.5 27.5q-14 -23 -39 -39.5t-63 -13.5q-25 2 -41 10.5t-25.5 21t-13.5 28.5t-5 32q-2 38 13 84t35.5 75.5t44 47t48.5 24t48 6.5q26 0 39.5 -6.5
t20.5 -14.5l8 18q14 5 31 7q14 2 32.5 -0.5t38.5 -11.5q-25 -56 -43 -102q-8 -20 -14.5 -39t-10.5 -34.5t-4.5 -26.5t3.5 -14q1 -3 5 -3q3 0 7 2t10 9t14 19t16.5 26t17.5 28t16 25q4 8 10 12q5 4 12 6t16 -2zM184 195q3 9 5 19.5t2.5 20.5t-1.5 17t-8 10q-11 5 -24 0
t-27 -18.5t-27.5 -35.5t-23.5 -50q-7 -21 -9 -38q-2 -14 1.5 -27t17.5 -15q9 -2 19.5 1t22 13.5t23.5 30t23 51.5v1q0 2 1 3zM20 199q12 24 26 41t27.5 29t23 18t12.5 7q-25 -7 -41.5 -22.5t-27.5 -31.5q-12 -19 -20 -41zM3 60q1 -11 7 -20q5 -8 16 -14.5t31 -8.5
q-1 0 -7.5 3t-14.5 8.5t-17 13t-15 18.5zM190 45q0 -10 5 -17q5 -6 14.5 -10t27.5 -2q-8 -1 -17 3q-8 2 -16 8.5t-14 17.5zM307 396q-1 -4 -2.5 -5.5l-3.5 -3.5q-3 -2 -5 -3q-5 -2 -19 -7t-29 -10l-28.5 -9.5t-17.5 -5.5q-16 -4 -22.5 -1.5t-8.5 17.5q-2 20 5.5 32t14.5 17
q22 22 47 39.5t47 25.5q11 4 17 -2q3 -3 5 -8q8 -23 5 -43.5t-5 -32.5zM300 429q-3 -10 -9.5 -18.5t-13.5 -15t-13.5 -11t-9.5 -5.5l34 14q1 0 3 2q3 2 5 8q1 4 1.5 8.5t1.5 8.5t1 9z" />
    <glyph glyph-name="acircumflex" unicode="&#xe2;" horiz-adv-x="351" 
d="M389 225q14 -7 11.5 -25.5t-15.5 -41.5q-6 -11 -21.5 -39t-38 -56t-51.5 -48t-63 -15q-10 2 -20 8q-8 5 -16.5 15.5t-12.5 27.5q-14 -23 -39 -39.5t-63 -13.5q-25 2 -41 10.5t-25.5 21t-13.5 28.5t-5 32q-2 38 13 84t35.5 75.5t44 47t48.5 24t48 6.5q26 0 39.5 -6.5
t20.5 -14.5l8 18q14 5 31 7q14 2 32.5 -0.5t38.5 -11.5q-25 -56 -43 -102q-8 -20 -14.5 -39t-10.5 -34.5t-4.5 -26.5t3.5 -14q1 -3 5 -3q3 0 7 2t10 9t14 19t16.5 26t17.5 28t16 25q4 8 10 12q5 4 12 6t16 -2zM184 195q3 9 5 19.5t2.5 20.5t-1.5 17t-8 10q-11 5 -24 0
t-27 -18.5t-27.5 -35.5t-23.5 -50q-7 -21 -9 -38q-2 -14 1.5 -27t17.5 -15q9 -2 19.5 1t22 13.5t23.5 30t23 51.5v1q0 2 1 3zM20 199q12 24 26 41t27.5 29t23 18t12.5 7q-25 -7 -41.5 -22.5t-27.5 -31.5q-12 -19 -20 -41zM3 60q1 -11 7 -20q5 -8 16 -14.5t31 -8.5
q-1 0 -7.5 3t-14.5 8.5t-17 13t-15 18.5zM190 45q0 -10 5 -17q5 -6 14.5 -10t27.5 -2q-8 -1 -17 3q-8 2 -16 8.5t-14 17.5zM245 384q-19 1 -40.5 3t-29.5 2q-17 1 -22.5 5t-2.5 19q3 20 14 29t19 12q6 3 18.5 9t26.5 10.5t27 7t21 -0.5q15 -5 29.5 -24t31.5 -48
q4 -8 8.5 -21.5t-3.5 -31.5q-5 -14 -12.5 -14t-21.5 8zM252 393q5 -4 12 -9.5t18 -13.5q-1 1 -6 6.5t-11 13.5t-10 19t-4 22q-1 -5 -2 -9t-1 -8.5v-8.5q-1 -3 0 -5l2 -4t2 -3z" />
    <glyph glyph-name="atilde" unicode="&#xe3;" horiz-adv-x="351" 
d="M176 486q25 2 39.5 -3.5t23.5 -15t17 -20.5t20.5 -18.5t33.5 -10t57 4.5q3 -12 -1 -24t-12 -21t-19.5 -14.5t-22.5 -5.5q-22 -7 -35 -4t-22 11.5t-17.5 19.5t-22.5 20.5t-36 14.5t-58 1q-3 12 1 23.5t12.5 20.5t19.5 14.5t22 6.5zM197 472q-19 4 -32 1q-5 -2 -8.5 -5
t-5.5 -5q-3 -4 -3 -6q8 6 19 9q5 2 10 2.5t10 1.5zM291 372q19 -4 31 -1q10 3 15 9q3 3 3 7q-10 -6 -20 -9l-20 -5q-5 -1 -9 -1zM389 225q14 -7 11.5 -25.5t-15.5 -41.5q-6 -11 -21.5 -39t-38 -56t-51.5 -48t-63 -15q-10 2 -20 8q-8 5 -16.5 15.5t-12.5 27.5
q-14 -23 -39 -39.5t-63 -13.5q-25 2 -41 10.5t-25.5 21t-13.5 28.5t-5 32q-2 38 13 84t35.5 75.5t44 47t48.5 24t48 6.5q26 0 39.5 -6.5t20.5 -14.5l8 18q14 5 31 7q14 2 32.5 -0.5t38.5 -11.5q-25 -56 -43 -102q-8 -20 -14.5 -39t-10.5 -34.5t-4.5 -26.5t3.5 -14q1 -3 5 -3
q3 0 7 2t10 9t14 19t16.5 26t17.5 28t16 25q4 8 10 12q5 4 12 6t16 -2zM184 195q3 9 5 19.5t2.5 20.5t-1.5 17t-8 10q-11 5 -24 0t-27 -18.5t-27.5 -35.5t-23.5 -50q-7 -21 -9 -38q-2 -14 1.5 -27t17.5 -15q9 -2 19.5 1t22 13.5t23.5 30t23 51.5v1q0 2 1 3zM20 199
q12 24 26 41t27.5 29t23 18t12.5 7q-25 -7 -41.5 -22.5t-27.5 -31.5q-12 -19 -20 -41zM3 60q1 -11 7 -20q5 -8 16 -14.5t31 -8.5q-1 0 -7.5 3t-14.5 8.5t-17 13t-15 18.5zM190 45q0 -10 5 -17q5 -6 14.5 -10t27.5 -2q-8 -1 -17 3q-8 2 -16 8.5t-14 17.5z" />
    <glyph glyph-name="adieresis" unicode="&#xe4;" horiz-adv-x="351" 
d="M389 225q14 -7 11.5 -25.5t-15.5 -41.5q-6 -11 -21.5 -39t-38 -56t-51.5 -48t-63 -15q-10 2 -20 8q-8 5 -16.5 15.5t-12.5 27.5q-14 -23 -39 -39.5t-63 -13.5q-25 2 -41 10.5t-25.5 21t-13.5 28.5t-5 32q-2 38 13 84t35.5 75.5t44 47t48.5 24t48 6.5q26 0 39.5 -6.5
t20.5 -14.5l8 18q14 5 31 7q14 2 32.5 -0.5t38.5 -11.5q-25 -56 -43 -102q-8 -20 -14.5 -39t-10.5 -34.5t-4.5 -26.5t3.5 -14q1 -3 5 -3q3 0 7 2t10 9t14 19t16.5 26t17.5 28t16 25q4 8 10 12q5 4 12 6t16 -2zM184 195q3 9 5 19.5t2.5 20.5t-1.5 17t-8 10q-11 5 -24 0
t-27 -18.5t-27.5 -35.5t-23.5 -50q-7 -21 -9 -38q-2 -14 1.5 -27t17.5 -15q9 -2 19.5 1t22 13.5t23.5 30t23 51.5v1q0 2 1 3zM20 199q12 24 26 41t27.5 29t23 18t12.5 7q-25 -7 -41.5 -22.5t-27.5 -31.5q-12 -19 -20 -41zM3 60q1 -11 7 -20q5 -8 16 -14.5t31 -8.5
q-1 0 -7.5 3t-14.5 8.5t-17 13t-15 18.5zM190 45q0 -10 5 -17q5 -6 14.5 -10t27.5 -2q-8 -1 -17 3q-8 2 -16 8.5t-14 17.5zM178 492q12 2 32.5 3.5t43.5 -6.5q4 -2 7 -5q6 -6 2 -17l-15 -34q-1 -3 -3 -7q-3 -6 -7 -10q-6 -7 -18 -14t-32 -4q-18 2 -27 9.5t-12 15.5
q-3 6 -1 13l2 8q3 9 6.5 18t8.5 20q1 2 3 4q5 5 10 6zM290 451q12 2 32.5 3.5t43.5 -6.5q4 -2 7 -5q6 -6 2 -17l-15 -34q-1 -3 -3 -7q-3 -6 -7 -10q-6 -7 -18 -14t-32 -4q-18 2 -27 9.5t-12 15.5q-3 6 -1 13l2 8q3 9 6.5 18t8.5 20q1 2 3 4q5 5 10 6zM270 397q0 1 4.5 7
t11 14t16 15t20.5 10q-5 -1 -9 -1q-4 -1 -8.5 -1t-8.5 -1q-6 -2 -8 -5q-2 -2 -2 -3zM158 438q0 1 4.5 7t11 14t16 15t20.5 10q-5 -1 -9 -1q-4 -1 -8.5 -1t-8.5 -1q-6 -2 -8 -5q-2 -2 -2 -3z" />
    <glyph glyph-name="aring" unicode="&#xe5;" horiz-adv-x="351" 
d="M389 225q14 -7 11.5 -25.5t-15.5 -41.5q-6 -11 -21.5 -39t-38 -56t-51.5 -48t-63 -15q-10 2 -20 8q-8 5 -16.5 15.5t-12.5 27.5q-14 -23 -39 -39.5t-63 -13.5q-25 2 -41 10.5t-25.5 21t-13.5 28.5t-5 32q-2 38 13 84t35.5 75.5t44 47t48.5 24t48 6.5q26 0 39.5 -6.5
t20.5 -14.5l8 18q14 5 31 7q14 2 32.5 -0.5t38.5 -11.5q-25 -56 -43 -102q-8 -20 -14.5 -39t-10.5 -34.5t-4.5 -26.5t3.5 -14q1 -3 5 -3q3 0 7 2t10 9t14 19t16.5 26t17.5 28t16 25q4 8 10 12q5 4 12 6t16 -2zM184 195q3 9 5 19.5t2.5 20.5t-1.5 17t-8 10q-11 5 -24 0
t-27 -18.5t-27.5 -35.5t-23.5 -50q-7 -21 -9 -38q-2 -14 1.5 -27t17.5 -15q9 -2 19.5 1t22 13.5t23.5 30t23 51.5v1q0 2 1 3zM20 199q12 24 26 41t27.5 29t23 18t12.5 7q-25 -7 -41.5 -22.5t-27.5 -31.5q-12 -19 -20 -41zM3 60q1 -11 7 -20q5 -8 16 -14.5t31 -8.5
q-1 0 -7.5 3t-14.5 8.5t-17 13t-15 18.5zM190 45q0 -10 5 -17q5 -6 14.5 -10t27.5 -2q-8 -1 -17 3q-8 2 -16 8.5t-14 17.5zM238 425l-4 -2q-1 -1 -1 -2q-2 -5 -3.5 -7.5t-3.5 -6.5q-1 -1 -1 -3t-0.5 -3t0.5 -3q2 -8 15 -11q8 -2 13 0.5t7 5.5q1 1 1.5 2t1.5 2l2 2l7 13
q2 5 0 8q-1 2 -3 2q-9 3 -17.5 3h-13.5zM223 452q12 2 32.5 3.5t43.5 -6.5q4 -2 7 -5q6 -6 2 -17l-15 -34q-1 -3 -3 -7q-3 -6 -7 -10q-6 -7 -18 -14t-32 -4q-18 2 -27 9.5t-12 15.5q-3 6 -1 13l2 8q3 9 6.5 18t8.5 20q1 2 3 4q5 5 10 6zM203 398q0 1 4.5 7t11 14t16 15
t20.5 10q-5 -1 -9 -1q-4 -1 -8.5 -1t-8.5 -1q-6 -2 -8 -5q-2 -2 -2 -3z" />
    <glyph glyph-name="period" unicode="." horiz-adv-x="154" 
d="M48 76q12 2 32.5 3.5t43.5 -6.5q4 -2 7 -5q6 -6 2 -17l-15 -34q-1 -3 -3 -7q-3 -6 -7 -10q-6 -7 -18 -14t-32 -4q-18 2 -27 9.5t-12 15.5q-3 6 -1 13l2 8q3 9 6.5 18t8.5 20q1 2 3 4q5 5 10 6zM28 22q0 1 4.5 7t11 14t16 15t20.5 10q-5 -1 -9 -1q-4 -1 -8.5 -1t-8.5 -1
q-6 -2 -8 -5q-2 -2 -2 -3z" />
    <glyph glyph-name="comma" unicode="," horiz-adv-x="173" 
d="M68 77q12 2 32 3.5t43 -6.5q5 -1 8 -5q6 -8 2 -18q-9 -21 -27.5 -45.5t-41.5 -45.5q-5 -7 -17.5 -14t-32.5 -4q-15 2 -17 9t2 23q2 4 7 17t10.5 28t11 28.5t7.5 18.5q1 2 3 5q5 5 10 6zM47 24q1 2 6 8.5t11.5 14t15.5 14t20 8.5q-5 0 -9 -1q-10 -2 -17 -2q-6 -2 -8 -5
q-2 -2 -2 -3z" />
    <glyph glyph-name="colon" unicode=":" horiz-adv-x="268" 
d="M100 116q12 2 32.5 3.5t43.5 -6.5q4 -2 7 -5q6 -6 2 -17l-15 -34q-1 -3 -3 -7q-3 -6 -7 -10q-6 -7 -18 -14t-32 -4q-18 2 -27 9.5t-12 15.5q-3 6 -1 13l2 8q3 9 6.5 18t8.5 20q1 2 3 4q5 5 10 6zM80 62q0 1 4.5 7t11 14t16 15t20.5 10q-5 -1 -9 -1q-4 -1 -8.5 -1t-8.5 -1
q-6 -2 -8 -5q-2 -2 -2 -3zM163 359q12 2 32.5 3.5t43.5 -6.5q4 -2 7 -5q6 -6 2 -17l-15 -34q-1 -3 -3 -7q-3 -6 -7 -10q-6 -7 -18 -14t-32 -4q-18 2 -27 9.5t-12 15.5q-3 6 -1 13l2 8q3 9 6.5 18t8.5 20q1 2 3 4q5 5 10 6zM143 305q0 1 4.5 7t11 14t16 15t20.5 10
q-5 -1 -9 -1q-4 -1 -8.5 -1t-8.5 -1q-6 -2 -8 -5q-2 -2 -2 -3z" />
    <glyph glyph-name="divide" unicode="&#xf7;" horiz-adv-x="310" 
d="M263 284q4 -3 8 -8q6 -8 16 -35q4 -14 4.5 -24.5t-0.5 -18.5q-1 -9 -3 -15q-5 2 -24.5 4.5t-45.5 4.5t-55.5 4t-54.5 4t-41.5 4t-16.5 4q-4 3 -8 8t-8 12.5t-9 21.5t-5.5 24t0.5 18q1 9 3 16zM252 273q-8 2 -18 4q-8 2 -18 3.5t-20 3.5q5 -2 14.5 -5t20 -7.5t20 -11
t15.5 -14.5l-6 12q-2 5 -4 9t-4 6zM60 219q8 -2 18 -4q8 -2 17.5 -3.5t20.5 -3.5q-5 1 -15 4t-20.5 8t-20 11.5t-14.5 14.5q2 -7 5 -12q2 -5 4.5 -9t4.5 -6zM95 116q12 2 32.5 3.5t43.5 -6.5q4 -2 7 -5q6 -6 2 -17l-15 -34q-1 -3 -3 -7q-3 -6 -7 -10q-6 -7 -18 -14t-32 -4
q-18 2 -27 9.5t-12 15.5q-3 6 -1 13l2 8q3 9 6.5 18t8.5 20q1 2 3 4q5 5 10 6zM75 62q0 1 4.5 7t11 14t16 15t20.5 10q-5 -1 -9 -1q-4 -1 -8.5 -1t-8.5 -1q-6 -2 -8 -5q-2 -2 -2 -3zM158 359q12 2 32.5 3.5t43.5 -6.5q4 -2 7 -5q6 -6 2 -17l-15 -34q-1 -3 -3 -7
q-3 -6 -7 -10q-6 -7 -18 -14t-32 -4q-18 2 -27 9.5t-12 15.5q-3 6 -1 13l2 8q3 9 6.5 18t8.5 20q1 2 3 4q5 5 10 6zM138 305q0 1 4.5 7t11 14t16 15t20.5 10q-5 -1 -9 -1q-4 -1 -8.5 -1t-8.5 -1q-6 -2 -8 -5q-2 -2 -2 -3z" />
    <glyph glyph-name="multiply" unicode="&#xd7;" horiz-adv-x="314" 
d="M89 261q-12 20 -19.5 32t-5.5 13q0 4 2 11q2 6 5.5 14.5t11.5 20.5q8 11 16 18t15 11t14 7l45 -75l47 28q4 0 11 -2q5 -2 14 -6t20 -12t17.5 -16.5t10.5 -14.5l7 -14q-6 -2 -27.5 -15t-49.5 -30l30 -49q0 -5 -2 -11t-6 -14.5t-12 -19.5t-16.5 -17.5t-14.5 -10.5l-14 -7
q-2 6 -15 27.5t-30 48.5q-20 -13 -33 -20t-14 -6q-4 0 -11 2q-6 2 -15 5.5t-20 11.5t-18 16t-11 15t-7 14zM238 184q-4 8 -8 17q-4 8 -8 16.5t-9 18.5q2 -5 5 -14.5t5.5 -21t3.5 -23t-2 -20.5l6 12q2 5 4 9zM79 305q4 -8 8 -17q4 -8 8 -16.5t9 -17.5q-2 5 -5.5 14.5t-6.5 21
t-3.5 23t3.5 20.5l-6 -12q-2 -5 -4.5 -9.5t-2.5 -6.5zM218 326q-8 -4 -17 -8q-8 -4 -17 -8t-18 -9q5 2 14.5 5t21 5.5t23 3.5t20.5 -2l-12 6q-5 2 -9 4zM113 175q8 4 17 8t18 9q-5 -2 -14.5 -5.5t-21 -6.5t-23 -3.5t-20.5 3.5l12 -6q5 -2 9.5 -4.5t6.5 -2.5z" />
    <glyph glyph-name="quotesingle" unicode="'" horiz-adv-x="243" 
d="M344 523q12 2 32 3.5t43 -6.5q5 -1 8 -5q6 -8 2 -18q-9 -21 -27.5 -45.5t-41.5 -45.5q-5 -7 -17.5 -14t-32.5 -4q-15 2 -17 9t2 23q2 4 7 17t10.5 28t11 28.5t7.5 18.5q1 2 3 5q5 5 10 6zM323 470q1 2 6 8.5t11.5 14t15.5 14t20 8.5q-5 0 -9 -1q-10 -2 -17 -2
q-6 -2 -8 -5q-2 -2 -2 -3z" />
    <glyph glyph-name="quoteright" unicode="&#x2019;" horiz-adv-x="248" 
d="M344 523q12 2 32 3.5t43 -6.5q5 -1 8 -5q6 -8 2 -18q-9 -21 -27.5 -45.5t-41.5 -45.5q-5 -7 -17.5 -14t-32.5 -4q-15 2 -17 9t2 23q2 4 7 17t10.5 28t11 28.5t7.5 18.5q1 2 3 5q5 5 10 6zM323 470q1 2 6 8.5t11.5 14t15.5 14t20 8.5q-5 0 -9 -1q-10 -2 -17 -2
q-6 -2 -8 -5q-2 -2 -2 -3z" />
    <glyph glyph-name="Agrave" unicode="&#xc0;" horiz-adv-x="839" 
d="M877 573q2 -8 1 -19t-8 -26q-23 -47 -57.5 -125t-67.5 -175q36 13 66 31q12 -20 15 -39q2 -17 -4.5 -36.5t-31.5 -35.5q-11 -7 -30.5 -13.5t-45.5 -11.5q-5 -20 -8.5 -47.5t-3.5 -54.5t5 -50t18 -36q-10 -3 -21 -4q-9 -2 -21 -1.5t-23 2.5q-4 0 -6 1q-17 5 -27 15.5
t-14.5 22.5t-5.5 24t-1 19q2 24 5.5 49t8.5 51q-33 0 -69.5 4t-76.5 13q-62 -57 -126.5 -95t-126.5 -42q-52 -3 -92 12t-66.5 41.5t-39 62t-10 74.5t21 78t53.5 73q3 3 14 10.5t26.5 13t34.5 4.5t40 -14q20 -14 47.5 -31t61 -34t72 -32.5t80.5 -26.5q74 66 150 152.5
t146 186.5q4 6 8 9q11 11 29 21t42 7q8 -1 16 -5q7 -3 13 -8.5t9 -14.5zM172 89q42 -11 95 8.5t115 63.5q-57 23 -113.5 58t-113.5 89q-27 -53 -37 -98q-4 -19 -4.5 -38.5t4.5 -36t18 -28.5t36 -18zM709 402q-33 -45 -72.5 -95.5t-84.5 -98.5q22 -2 44 -3t45 1
q15 53 32.5 102t35.5 94zM68 76q13 -19 33 -33q17 -12 44 -21.5t65 -6.5q-29 2 -54.5 12t-45.5 21q-23 12 -42 28zM772 161q-33 -9 -67 -15q-29 -5 -64.5 -9t-68.5 -1q36 -5 71 -4q30 1 65 6.5t64 22.5zM625 0q0 -14 4 -25q4 -10 13.5 -19t29.5 -11q-2 0 -7 2.5t-12 8.5
t-14.5 16.5t-13.5 27.5zM774 669q-2 12 -5 32.5t5 43.5q2 5 5 8q6 6 17 2q22 -8 47 -25.5t47 -39.5q7 -5 14.5 -17t5.5 -32q-2 -15 -8.5 -17.5t-22.5 1.5q-5 1 -18 5.5t-28 9.5t-29 10t-19 7q-3 1 -5 3q-5 3 -6 9zM828 651q-2 1 -9 5t-14.5 11t-14 15.5t-9.5 19.5q0 -5 1 -9
t1.5 -8.5t1.5 -8.5q2 -6 5 -8q2 -2 3 -2z" />
    <glyph glyph-name="Aacute" unicode="&#xc1;" horiz-adv-x="839" 
d="M877 573q2 -8 1 -19t-8 -26q-23 -47 -57.5 -125t-67.5 -175q36 13 66 31q12 -20 15 -39q2 -17 -4.5 -36.5t-31.5 -35.5q-11 -7 -30.5 -13.5t-45.5 -11.5q-5 -20 -8.5 -47.5t-3.5 -54.5t5 -50t18 -36q-10 -3 -21 -4q-9 -2 -21 -1.5t-23 2.5q-4 0 -6 1q-17 5 -27 15.5
t-14.5 22.5t-5.5 24t-1 19q2 24 5.5 49t8.5 51q-33 0 -69.5 4t-76.5 13q-62 -57 -126.5 -95t-126.5 -42q-52 -3 -92 12t-66.5 41.5t-39 62t-10 74.5t21 78t53.5 73q3 3 14 10.5t26.5 13t34.5 4.5t40 -14q20 -14 47.5 -31t61 -34t72 -32.5t80.5 -26.5q74 66 150 152.5
t146 186.5q4 6 8 9q11 11 29 21t42 7q8 -1 16 -5q7 -3 13 -8.5t9 -14.5zM172 89q42 -11 95 8.5t115 63.5q-57 23 -113.5 58t-113.5 89q-27 -53 -37 -98q-4 -19 -4.5 -38.5t4.5 -36t18 -28.5t36 -18zM709 402q-33 -45 -72.5 -95.5t-84.5 -98.5q22 -2 44 -3t45 1
q15 53 32.5 102t35.5 94zM68 76q13 -19 33 -33q17 -12 44 -21.5t65 -6.5q-29 2 -54.5 12t-45.5 21q-23 12 -42 28zM772 161q-33 -9 -67 -15q-29 -5 -64.5 -9t-68.5 -1q36 -5 71 -4q30 1 65 6.5t64 22.5zM625 0q0 -14 4 -25q4 -10 13.5 -19t29.5 -11q-2 0 -7 2.5t-12 8.5
t-14.5 16.5t-13.5 27.5zM911 671q-1 -4 -2.5 -5.5l-3.5 -3.5q-3 -2 -5 -3q-5 -2 -19 -7t-29 -10l-28.5 -9.5t-17.5 -5.5q-16 -4 -22.5 -1.5t-8.5 17.5q-2 20 5.5 32t14.5 17q22 22 47 39.5t47 25.5q11 4 17 -2q3 -3 5 -8q8 -23 5 -43.5t-5 -32.5zM904 704q-3 -10 -9.5 -18.5
t-13.5 -15t-13.5 -11t-9.5 -5.5l34 14q1 0 3 2q3 2 5 8q1 4 1.5 8.5t1.5 8.5t1 9z" />
    <glyph glyph-name="Acircumflex" unicode="&#xc2;" horiz-adv-x="839" 
d="M877 573q2 -8 1 -19t-8 -26q-23 -47 -57.5 -125t-67.5 -175q36 13 66 31q12 -20 15 -39q2 -17 -4.5 -36.5t-31.5 -35.5q-11 -7 -30.5 -13.5t-45.5 -11.5q-5 -20 -8.5 -47.5t-3.5 -54.5t5 -50t18 -36q-10 -3 -21 -4q-9 -2 -21 -1.5t-23 2.5q-4 0 -6 1q-17 5 -27 15.5
t-14.5 22.5t-5.5 24t-1 19q2 24 5.5 49t8.5 51q-33 0 -69.5 4t-76.5 13q-62 -57 -126.5 -95t-126.5 -42q-52 -3 -92 12t-66.5 41.5t-39 62t-10 74.5t21 78t53.5 73q3 3 14 10.5t26.5 13t34.5 4.5t40 -14q20 -14 47.5 -31t61 -34t72 -32.5t80.5 -26.5q74 66 150 152.5
t146 186.5q4 6 8 9q11 11 29 21t42 7q8 -1 16 -5q7 -3 13 -8.5t9 -14.5zM172 89q42 -11 95 8.5t115 63.5q-57 23 -113.5 58t-113.5 89q-27 -53 -37 -98q-4 -19 -4.5 -38.5t4.5 -36t18 -28.5t36 -18zM709 402q-33 -45 -72.5 -95.5t-84.5 -98.5q22 -2 44 -3t45 1
q15 53 32.5 102t35.5 94zM68 76q13 -19 33 -33q17 -12 44 -21.5t65 -6.5q-29 2 -54.5 12t-45.5 21q-23 12 -42 28zM772 161q-33 -9 -67 -15q-29 -5 -64.5 -9t-68.5 -1q36 -5 71 -4q30 1 65 6.5t64 22.5zM625 0q0 -14 4 -25q4 -10 13.5 -19t29.5 -11q-2 0 -7 2.5t-12 8.5
t-14.5 16.5t-13.5 27.5zM861 632q-19 1 -40.5 3t-29.5 2q-17 1 -22.5 5t-2.5 19q3 20 14 29t19 12q6 3 18.5 9t26.5 10.5t27 7t21 -0.5q15 -5 29.5 -24t31.5 -48q4 -8 8.5 -21.5t-3.5 -31.5q-5 -14 -12.5 -14t-21.5 8zM868 641q5 -4 12 -9.5t18 -13.5q-1 1 -6 6.5t-11 13.5
t-10 19t-4 22q-1 -5 -2 -9t-1 -8.5v-8.5q-1 -3 0 -5l2 -4t2 -3z" />
    <glyph glyph-name="Atilde" unicode="&#xc3;" horiz-adv-x="839" 
d="M877 573q2 -8 1 -19t-8 -26q-23 -47 -57.5 -125t-67.5 -175q36 13 66 31q12 -20 15 -39q2 -17 -4.5 -36.5t-31.5 -35.5q-11 -7 -30.5 -13.5t-45.5 -11.5q-5 -20 -8.5 -47.5t-3.5 -54.5t5 -50t18 -36q-10 -3 -21 -4q-9 -2 -21 -1.5t-23 2.5q-4 0 -6 1q-17 5 -27 15.5
t-14.5 22.5t-5.5 24t-1 19q2 24 5.5 49t8.5 51q-33 0 -69.5 4t-76.5 13q-62 -57 -126.5 -95t-126.5 -42q-52 -3 -92 12t-66.5 41.5t-39 62t-10 74.5t21 78t53.5 73q3 3 14 10.5t26.5 13t34.5 4.5t40 -14q20 -14 47.5 -31t61 -34t72 -32.5t80.5 -26.5q74 66 150 152.5
t146 186.5q4 6 8 9q11 11 29 21t42 7q8 -1 16 -5q7 -3 13 -8.5t9 -14.5zM172 89q42 -11 95 8.5t115 63.5q-57 23 -113.5 58t-113.5 89q-27 -53 -37 -98q-4 -19 -4.5 -38.5t4.5 -36t18 -28.5t36 -18zM709 402q-33 -45 -72.5 -95.5t-84.5 -98.5q22 -2 44 -3t45 1
q15 53 32.5 102t35.5 94zM68 76q13 -19 33 -33q17 -12 44 -21.5t65 -6.5q-29 2 -54.5 12t-45.5 21q-23 12 -42 28zM772 161q-33 -9 -67 -15q-29 -5 -64.5 -9t-68.5 -1q36 -5 71 -4q30 1 65 6.5t64 22.5zM625 0q0 -14 4 -25q4 -10 13.5 -19t29.5 -11q-2 0 -7 2.5t-12 8.5
t-14.5 16.5t-13.5 27.5zM846 749q25 -5 37 -15t18 -21.5t10.5 -24t14.5 -23.5t29.5 -19.5t55.5 -11.5q0 -13 -7 -23t-17.5 -16t-23 -8.5t-23.5 0.5q-23 0 -34.5 6.5t-18 17t-11.5 23.5t-15.5 26t-30 24t-55.5 18q0 12 7 22t18 16t23 8.5t23 0.5zM862 729q-17 10 -30 10
q-6 0 -10 -1.5t-6 -3.5l-5 -5q9 3 21 3q5 0 10.5 -0.5t10.5 -1.5t9 -1zM924 607q17 -10 30 -10q11 0 16 5q3 2 5 5q-9 -3 -21 -3h-11t-10 1t-9 2z" />
    <glyph glyph-name="Adieresis" unicode="&#xc4;" horiz-adv-x="839" 
d="M877 573q2 -8 1 -19t-8 -26q-23 -47 -57.5 -125t-67.5 -175q36 13 66 31q12 -20 15 -39q2 -17 -4.5 -36.5t-31.5 -35.5q-11 -7 -30.5 -13.5t-45.5 -11.5q-5 -20 -8.5 -47.5t-3.5 -54.5t5 -50t18 -36q-10 -3 -21 -4q-9 -2 -21 -1.5t-23 2.5q-4 0 -6 1q-17 5 -27 15.5
t-14.5 22.5t-5.5 24t-1 19q2 24 5.5 49t8.5 51q-33 0 -69.5 4t-76.5 13q-62 -57 -126.5 -95t-126.5 -42q-52 -3 -92 12t-66.5 41.5t-39 62t-10 74.5t21 78t53.5 73q3 3 14 10.5t26.5 13t34.5 4.5t40 -14q20 -14 47.5 -31t61 -34t72 -32.5t80.5 -26.5q74 66 150 152.5
t146 186.5q4 6 8 9q11 11 29 21t42 7q8 -1 16 -5q7 -3 13 -8.5t9 -14.5zM172 89q42 -11 95 8.5t115 63.5q-57 23 -113.5 58t-113.5 89q-27 -53 -37 -98q-4 -19 -4.5 -38.5t4.5 -36t18 -28.5t36 -18zM709 402q-33 -45 -72.5 -95.5t-84.5 -98.5q22 -2 44 -3t45 1
q15 53 32.5 102t35.5 94zM68 76q13 -19 33 -33q17 -12 44 -21.5t65 -6.5q-29 2 -54.5 12t-45.5 21q-23 12 -42 28zM772 161q-33 -9 -67 -15q-29 -5 -64.5 -9t-68.5 -1q36 -5 71 -4q30 1 65 6.5t64 22.5zM625 0q0 -14 4 -25q4 -10 13.5 -19t29.5 -11q-2 0 -7 2.5t-12 8.5
t-14.5 16.5t-13.5 27.5zM803 735q12 2 32.5 3.5t43.5 -6.5q4 -2 7 -5q6 -6 2 -17l-15 -34q-1 -3 -3 -7q-3 -6 -7 -10q-6 -7 -18 -14t-32 -4q-18 2 -27 9.5t-12 15.5q-3 6 -1 13l2 8q3 9 6.5 18t8.5 20q1 2 3 4q5 5 10 6zM915 694q12 2 32.5 3.5t43.5 -6.5q4 -2 7 -5
q6 -6 2 -17l-15 -34q-1 -3 -3 -7q-3 -6 -7 -10q-6 -7 -18 -14t-32 -4q-18 2 -27 9.5t-12 15.5q-3 6 -1 13l2 8q3 9 6.5 18t8.5 20q1 2 3 4q5 5 10 6zM895 640q0 1 4.5 7t11 14t16 15t20.5 10q-5 -1 -9 -1q-4 -1 -8.5 -1t-8.5 -1q-6 -2 -8 -5q-2 -2 -2 -3zM783 681q0 1 4.5 7
t11 14t16 15t20.5 10q-5 -1 -9 -1q-4 -1 -8.5 -1t-8.5 -1q-6 -2 -8 -5q-2 -2 -2 -3z" />
    <glyph glyph-name="Aring" unicode="&#xc5;" horiz-adv-x="839" 
d="M877 573q2 -8 1 -19t-8 -26q-23 -47 -57.5 -125t-67.5 -175q36 13 66 31q12 -20 15 -39q2 -17 -4.5 -36.5t-31.5 -35.5q-11 -7 -30.5 -13.5t-45.5 -11.5q-5 -20 -8.5 -47.5t-3.5 -54.5t5 -50t18 -36q-10 -3 -21 -4q-9 -2 -21 -1.5t-23 2.5q-4 0 -6 1q-17 5 -27 15.5
t-14.5 22.5t-5.5 24t-1 19q2 24 5.5 49t8.5 51q-33 0 -69.5 4t-76.5 13q-62 -57 -126.5 -95t-126.5 -42q-52 -3 -92 12t-66.5 41.5t-39 62t-10 74.5t21 78t53.5 73q3 3 14 10.5t26.5 13t34.5 4.5t40 -14q20 -14 47.5 -31t61 -34t72 -32.5t80.5 -26.5q74 66 150 152.5
t146 186.5q4 6 8 9q11 11 29 21t42 7q8 -1 16 -5q7 -3 13 -8.5t9 -14.5zM172 89q42 -11 95 8.5t115 63.5q-57 23 -113.5 58t-113.5 89q-27 -53 -37 -98q-4 -19 -4.5 -38.5t4.5 -36t18 -28.5t36 -18zM709 402q-33 -45 -72.5 -95.5t-84.5 -98.5q22 -2 44 -3t45 1
q15 53 32.5 102t35.5 94zM68 76q13 -19 33 -33q17 -12 44 -21.5t65 -6.5q-29 2 -54.5 12t-45.5 21q-23 12 -42 28zM772 161q-33 -9 -67 -15q-29 -5 -64.5 -9t-68.5 -1q36 -5 71 -4q30 1 65 6.5t64 22.5zM625 0q0 -14 4 -25q4 -10 13.5 -19t29.5 -11q-2 0 -7 2.5t-12 8.5
t-14.5 16.5t-13.5 27.5zM860 695l-4 -2q-1 -1 -1 -2q-2 -5 -3.5 -7.5t-3.5 -6.5q-1 -1 -1 -3t-0.5 -3t0.5 -3q2 -8 15 -11q8 -2 13 0.5t7 5.5q1 1 1.5 2t1.5 2l2 2l7 13q2 5 0 8q-1 2 -3 2q-9 3 -17.5 3h-13.5zM845 722q12 2 32.5 3.5t43.5 -6.5q4 -2 7 -5q6 -6 2 -17
l-15 -34q-1 -3 -3 -7q-3 -6 -7 -10q-6 -7 -18 -14t-32 -4q-18 2 -27 9.5t-12 15.5q-3 6 -1 13l2 8q3 9 6.5 18t8.5 20q1 2 3 4q5 5 10 6zM825 668q0 1 4.5 7t11 14t16 15t20.5 10q-5 -1 -9 -1q-4 -1 -8.5 -1t-8.5 -1q-6 -2 -8 -5q-2 -2 -2 -3z" />
    <glyph glyph-name="Egrave" unicode="&#xc8;" horiz-adv-x="569" 
d="M265 -68q-84 3 -132.5 28.5t-70.5 61.5t-22 77.5t14 77.5q4 12 12 25q20 38 51.5 56.5t60.5 26.5q28 7 43 8q10 1 18 1q-28 12 -43 40q-14 25 -15 58t11 68q10 27 22.5 46t23.5 30q1 1 13 13.5t34.5 25.5t56 22t77.5 4l16 -2t16 -3q9 -3 24.5 -9.5t31.5 -20t29 -33.5
t17 -50q3 -32 -3 -58t-8 -31v-1q-8 -23 -21 -42t-31 -32q-26 -19 -47.5 -20t-35.5 5q-18 7 -30 21q11 10 30.5 36.5t36.5 67.5q11 26 13 44.5t-1.5 31t-11 20t-15.5 11.5q-17 6 -32 6h-8q-21 -2 -37 -11.5t-23 -15.5q-8 -8 -14 -15t-11 -13q-5 -7 -9 -14
q-27 -51 -22.5 -83.5t21.5 -51.5q19 -22 54 -34q0 -17 -3.5 -32t-8.5 -26q-5 -13 -12 -23q-23 4 -48.5 2.5t-49.5 -9.5t-44 -22t-31 -34q-11 -18 -12 -41q-2 -26 10.5 -43t30.5 -28.5t35 -17t24 -6.5q1 -1 2 -1h1q25 -6 49 -5.5t41 2.5q48 10 73 39t25 62q0 18 -5 28t-11 15
q-7 5 -16 7q2 8 8 11t12 5q7 2 16 1q27 -2 41 -18t19 -30q2 -6 4.5 -17.5t1.5 -27.5t-6.5 -35t-18.5 -41q-17 -27 -41.5 -44t-50.5 -26.5t-49.5 -13t-37.5 -4.5h-4q-8 0 -14.5 0.5t-12.5 0.5zM318 -48q-61 -1 -89.5 6.5t-34.5 10.5q20 -12 42 -16.5t40 -4.5q21 0 42 4z
M473 57q11 20 11.5 36t-3.5 27q-5 13 -15 24q8 -15 10.5 -30.5t1.5 -28.5q-1 -15 -5 -28zM421 319q12 -8 23.5 -4.5t20.5 10.5q11 8 21 20q-14 -11 -25.5 -16.5t-20.5 -7.5q-11 -3 -19 -2zM398 661q-2 12 -5 32.5t5 43.5q2 5 5 8q6 6 17 2q22 -8 47 -25.5t47 -39.5
q7 -5 14.5 -17t5.5 -32q-2 -15 -8.5 -17.5t-22.5 1.5q-5 1 -18 5.5t-28 9.5t-29 10t-19 7q-3 1 -5 3q-5 3 -6 9zM452 643q-2 1 -9 5t-14.5 11t-14 15.5t-9.5 19.5q0 -5 1 -9t1.5 -8.5t1.5 -8.5q2 -6 5 -8q2 -2 3 -2z" />
    <glyph glyph-name="Eacute" unicode="&#xc9;" horiz-adv-x="569" 
d="M265 -68q-84 3 -132.5 28.5t-70.5 61.5t-22 77.5t14 77.5q4 12 12 25q20 38 51.5 56.5t60.5 26.5q28 7 43 8q10 1 18 1q-28 12 -43 40q-14 25 -15 58t11 68q10 27 22.5 46t23.5 30q1 1 13 13.5t34.5 25.5t56 22t77.5 4l16 -2t16 -3q9 -3 24.5 -9.5t31.5 -20t29 -33.5
t17 -50q3 -32 -3 -58t-8 -31v-1q-8 -23 -21 -42t-31 -32q-26 -19 -47.5 -20t-35.5 5q-18 7 -30 21q11 10 30.5 36.5t36.5 67.5q11 26 13 44.5t-1.5 31t-11 20t-15.5 11.5q-17 6 -32 6h-8q-21 -2 -37 -11.5t-23 -15.5q-8 -8 -14 -15t-11 -13q-5 -7 -9 -14
q-27 -51 -22.5 -83.5t21.5 -51.5q19 -22 54 -34q0 -17 -3.5 -32t-8.5 -26q-5 -13 -12 -23q-23 4 -48.5 2.5t-49.5 -9.5t-44 -22t-31 -34q-11 -18 -12 -41q-2 -26 10.5 -43t30.5 -28.5t35 -17t24 -6.5q1 -1 2 -1h1q25 -6 49 -5.5t41 2.5q48 10 73 39t25 62q0 18 -5 28t-11 15
q-7 5 -16 7q2 8 8 11t12 5q7 2 16 1q27 -2 41 -18t19 -30q2 -6 4.5 -17.5t1.5 -27.5t-6.5 -35t-18.5 -41q-17 -27 -41.5 -44t-50.5 -26.5t-49.5 -13t-37.5 -4.5h-4q-8 0 -14.5 0.5t-12.5 0.5zM318 -48q-61 -1 -89.5 6.5t-34.5 10.5q20 -12 42 -16.5t40 -4.5q21 0 42 4z
M473 57q11 20 11.5 36t-3.5 27q-5 13 -15 24q8 -15 10.5 -30.5t1.5 -28.5q-1 -15 -5 -28zM421 319q12 -8 23.5 -4.5t20.5 10.5q11 8 21 20q-14 -11 -25.5 -16.5t-20.5 -7.5q-11 -3 -19 -2zM477 664q-1 -4 -2.5 -5.5l-3.5 -3.5q-3 -2 -5 -3q-5 -2 -19 -7t-29 -10l-28.5 -9.5
t-17.5 -5.5q-16 -4 -22.5 -1.5t-8.5 17.5q-2 20 5.5 32t14.5 17q22 22 47 39.5t47 25.5q11 4 17 -2q3 -3 5 -8q8 -23 5 -43.5t-5 -32.5zM470 697q-3 -10 -9.5 -18.5t-13.5 -15t-13.5 -11t-9.5 -5.5l34 14q1 0 3 2q3 2 5 8q1 4 1.5 8.5t1.5 8.5t1 9z" />
    <glyph glyph-name="Ecircumflex" unicode="&#xca;" horiz-adv-x="569" 
d="M265 -68q-84 3 -132.5 28.5t-70.5 61.5t-22 77.5t14 77.5q4 12 12 25q20 38 51.5 56.5t60.5 26.5q28 7 43 8q10 1 18 1q-28 12 -43 40q-14 25 -15 58t11 68q10 27 22.5 46t23.5 30q1 1 13 13.5t34.5 25.5t56 22t77.5 4l16 -2t16 -3q9 -3 24.5 -9.5t31.5 -20t29 -33.5
t17 -50q3 -32 -3 -58t-8 -31v-1q-8 -23 -21 -42t-31 -32q-26 -19 -47.5 -20t-35.5 5q-18 7 -30 21q11 10 30.5 36.5t36.5 67.5q11 26 13 44.5t-1.5 31t-11 20t-15.5 11.5q-17 6 -32 6h-8q-21 -2 -37 -11.5t-23 -15.5q-8 -8 -14 -15t-11 -13q-5 -7 -9 -14
q-27 -51 -22.5 -83.5t21.5 -51.5q19 -22 54 -34q0 -17 -3.5 -32t-8.5 -26q-5 -13 -12 -23q-23 4 -48.5 2.5t-49.5 -9.5t-44 -22t-31 -34q-11 -18 -12 -41q-2 -26 10.5 -43t30.5 -28.5t35 -17t24 -6.5q1 -1 2 -1h1q25 -6 49 -5.5t41 2.5q48 10 73 39t25 62q0 18 -5 28t-11 15
q-7 5 -16 7q2 8 8 11t12 5q7 2 16 1q27 -2 41 -18t19 -30q2 -6 4.5 -17.5t1.5 -27.5t-6.5 -35t-18.5 -41q-17 -27 -41.5 -44t-50.5 -26.5t-49.5 -13t-37.5 -4.5h-4q-8 0 -14.5 0.5t-12.5 0.5zM318 -48q-61 -1 -89.5 6.5t-34.5 10.5q20 -12 42 -16.5t40 -4.5q21 0 42 4z
M473 57q11 20 11.5 36t-3.5 27q-5 13 -15 24q8 -15 10.5 -30.5t1.5 -28.5q-1 -15 -5 -28zM421 319q12 -8 23.5 -4.5t20.5 10.5q11 8 21 20q-14 -11 -25.5 -16.5t-20.5 -7.5q-11 -3 -19 -2zM460 634q-19 1 -40.5 3t-29.5 2q-17 1 -22.5 5t-2.5 19q3 20 14 29t19 12
q6 3 18.5 9t26.5 10.5t27 7t21 -0.5q15 -5 29.5 -24t31.5 -48q4 -8 8.5 -21.5t-3.5 -31.5q-5 -14 -12.5 -14t-21.5 8zM467 643q5 -4 12 -9.5t18 -13.5q-1 1 -6 6.5t-11 13.5t-10 19t-4 22q-1 -5 -2 -9t-1 -8.5v-8.5q-1 -3 0 -5l2 -4t2 -3z" />
    <glyph glyph-name="Edieresis" unicode="&#xcb;" horiz-adv-x="569" 
d="M265 -68q-84 3 -132.5 28.5t-70.5 61.5t-22 77.5t14 77.5q4 12 12 25q20 38 51.5 56.5t60.5 26.5q28 7 43 8q10 1 18 1q-28 12 -43 40q-14 25 -15 58t11 68q10 27 22.5 46t23.5 30q1 1 13 13.5t34.5 25.5t56 22t77.5 4l16 -2t16 -3q9 -3 24.5 -9.5t31.5 -20t29 -33.5
t17 -50q3 -32 -3 -58t-8 -31v-1q-8 -23 -21 -42t-31 -32q-26 -19 -47.5 -20t-35.5 5q-18 7 -30 21q11 10 30.5 36.5t36.5 67.5q11 26 13 44.5t-1.5 31t-11 20t-15.5 11.5q-17 6 -32 6h-8q-21 -2 -37 -11.5t-23 -15.5q-8 -8 -14 -15t-11 -13q-5 -7 -9 -14
q-27 -51 -22.5 -83.5t21.5 -51.5q19 -22 54 -34q0 -17 -3.5 -32t-8.5 -26q-5 -13 -12 -23q-23 4 -48.5 2.5t-49.5 -9.5t-44 -22t-31 -34q-11 -18 -12 -41q-2 -26 10.5 -43t30.5 -28.5t35 -17t24 -6.5q1 -1 2 -1h1q25 -6 49 -5.5t41 2.5q48 10 73 39t25 62q0 18 -5 28t-11 15
q-7 5 -16 7q2 8 8 11t12 5q7 2 16 1q27 -2 41 -18t19 -30q2 -6 4.5 -17.5t1.5 -27.5t-6.5 -35t-18.5 -41q-17 -27 -41.5 -44t-50.5 -26.5t-49.5 -13t-37.5 -4.5h-4q-8 0 -14.5 0.5t-12.5 0.5zM318 -48q-61 -1 -89.5 6.5t-34.5 10.5q20 -12 42 -16.5t40 -4.5q21 0 42 4z
M473 57q11 20 11.5 36t-3.5 27q-5 13 -15 24q8 -15 10.5 -30.5t1.5 -28.5q-1 -15 -5 -28zM421 319q12 -8 23.5 -4.5t20.5 10.5q11 8 21 20q-14 -11 -25.5 -16.5t-20.5 -7.5q-11 -3 -19 -2zM389 743q12 2 32.5 3.5t43.5 -6.5q4 -2 7 -5q6 -6 2 -17l-15 -34q-1 -3 -3 -7
q-3 -6 -7 -10q-6 -7 -18 -14t-32 -4q-18 2 -27 9.5t-12 15.5q-3 6 -1 13l2 8q3 9 6.5 18t8.5 20q1 2 3 4q5 5 10 6zM501 702q12 2 32.5 3.5t43.5 -6.5q4 -2 7 -5q6 -6 2 -17l-15 -34q-1 -3 -3 -7q-3 -6 -7 -10q-6 -7 -18 -14t-32 -4q-18 2 -27 9.5t-12 15.5q-3 6 -1 13l2 8
q3 9 6.5 18t8.5 20q1 2 3 4q5 5 10 6zM481 648q0 1 4.5 7t11 14t16 15t20.5 10q-5 -1 -9 -1q-4 -1 -8.5 -1t-8.5 -1q-6 -2 -8 -5q-2 -2 -2 -3zM369 689q0 1 4.5 7t11 14t16 15t20.5 10q-5 -1 -9 -1q-4 -1 -8.5 -1t-8.5 -1q-6 -2 -8 -5q-2 -2 -2 -3z" />
    <glyph glyph-name="Igrave" unicode="&#xcc;" horiz-adv-x="539" 
d="M162 -67q-44 7 -69.5 24t-46.5 50q-11 17 -14 36.5t-1 36.5q2 19 8 37q7 21 18 34t22 19.5t21 8.5t17 2q-5 -22 -7 -45t3 -42.5t18 -34.5t37 -22q21 -5 43 -3t45 13q44 26 75 64.5t51 77.5l17 37l3 6q2 4 2 7q9 22 15 40.5t9 30.5q15 63 13 117.5t-10 95.5
q-29 -21 -54.5 -49t-45 -61t-32 -70t-13.5 -76q-29 12 -50 30q-18 15 -30 37.5t-4 52.5q4 16 20 41.5t43 54.5t65.5 59t88.5 55q7 3 18 5.5t24.5 0t28 -12t29.5 -30.5q19 -27 24.5 -62.5t2.5 -73.5t-12.5 -75t-19.5 -67q-2 -8 -13.5 -40t-33.5 -75.5t-55 -91t-79 -86.5
q-3 -2 -6 -4.5t-6 -5.5q-26 -18 -66.5 -35t-92.5 -11zM206 -44q-29 2 -54.5 13t-45.5 23q-23 14 -42 31q13 -20 33 -36q17 -14 44 -24t65 -7zM525 401q8 30 7.5 53t-5.5 39q-5 18 -14 33q7 -25 9.5 -47.5t3.5 -39.5q1 -20 -1 -38zM239 418q-12 -13 -17 -27q-5 -12 -5 -27
t13 -30q0 1 -2 6t-2.5 15t2 25.5t11.5 37.5zM415 656q-2 12 -5 32.5t5 43.5q2 5 5 8q6 6 17 2q22 -8 47 -25.5t47 -39.5q7 -5 14.5 -17t5.5 -32q-2 -15 -8.5 -17.5t-22.5 1.5q-5 1 -18 5.5t-28 9.5t-29 10t-19 7q-3 1 -5 3q-5 3 -6 9zM469 638q-2 1 -9 5t-14.5 11t-14 15.5
t-9.5 19.5q0 -5 1 -9t1.5 -8.5t1.5 -8.5q2 -6 5 -8q2 -2 3 -2z" />
    <glyph glyph-name="Iacute" unicode="&#xcd;" horiz-adv-x="539" 
d="M162 -67q-44 7 -69.5 24t-46.5 50q-11 17 -14 36.5t-1 36.5q2 19 8 37q7 21 18 34t22 19.5t21 8.5t17 2q-5 -22 -7 -45t3 -42.5t18 -34.5t37 -22q21 -5 43 -3t45 13q44 26 75 64.5t51 77.5l17 37l3 6q2 4 2 7q9 22 15 40.5t9 30.5q15 63 13 117.5t-10 95.5
q-29 -21 -54.5 -49t-45 -61t-32 -70t-13.5 -76q-29 12 -50 30q-18 15 -30 37.5t-4 52.5q4 16 20 41.5t43 54.5t65.5 59t88.5 55q7 3 18 5.5t24.5 0t28 -12t29.5 -30.5q19 -27 24.5 -62.5t2.5 -73.5t-12.5 -75t-19.5 -67q-2 -8 -13.5 -40t-33.5 -75.5t-55 -91t-79 -86.5
q-3 -2 -6 -4.5t-6 -5.5q-26 -18 -66.5 -35t-92.5 -11zM206 -44q-29 2 -54.5 13t-45.5 23q-23 14 -42 31q13 -20 33 -36q17 -14 44 -24t65 -7zM525 401q8 30 7.5 53t-5.5 39q-5 18 -14 33q7 -25 9.5 -47.5t3.5 -39.5q1 -20 -1 -38zM239 418q-12 -13 -17 -27q-5 -12 -5 -27
t13 -30q0 1 -2 6t-2.5 15t2 25.5t11.5 37.5zM522 658q-1 -4 -2.5 -5.5l-3.5 -3.5q-3 -2 -5 -3q-5 -2 -19 -7t-29 -10l-28.5 -9.5t-17.5 -5.5q-16 -4 -22.5 -1.5t-8.5 17.5q-2 20 5.5 32t14.5 17q22 22 47 39.5t47 25.5q11 4 17 -2q3 -3 5 -8q8 -23 5 -43.5t-5 -32.5z
M515 691q-3 -10 -9.5 -18.5t-13.5 -15t-13.5 -11t-9.5 -5.5l34 14q1 0 3 2q3 2 5 8q1 4 1.5 8.5t1.5 8.5t1 9z" />
    <glyph glyph-name="Icircumflex" unicode="&#xce;" horiz-adv-x="539" 
d="M162 -67q-44 7 -69.5 24t-46.5 50q-11 17 -14 36.5t-1 36.5q2 19 8 37q7 21 18 34t22 19.5t21 8.5t17 2q-5 -22 -7 -45t3 -42.5t18 -34.5t37 -22q21 -5 43 -3t45 13q44 26 75 64.5t51 77.5l17 37l3 6q2 4 2 7q9 22 15 40.5t9 30.5q15 63 13 117.5t-10 95.5
q-29 -21 -54.5 -49t-45 -61t-32 -70t-13.5 -76q-29 12 -50 30q-18 15 -30 37.5t-4 52.5q4 16 20 41.5t43 54.5t65.5 59t88.5 55q7 3 18 5.5t24.5 0t28 -12t29.5 -30.5q19 -27 24.5 -62.5t2.5 -73.5t-12.5 -75t-19.5 -67q-2 -8 -13.5 -40t-33.5 -75.5t-55 -91t-79 -86.5
q-3 -2 -6 -4.5t-6 -5.5q-26 -18 -66.5 -35t-92.5 -11zM206 -44q-29 2 -54.5 13t-45.5 23q-23 14 -42 31q13 -20 33 -36q17 -14 44 -24t65 -7zM525 401q8 30 7.5 53t-5.5 39q-5 18 -14 33q7 -25 9.5 -47.5t3.5 -39.5q1 -20 -1 -38zM239 418q-12 -13 -17 -27q-5 -12 -5 -27
t13 -30q0 1 -2 6t-2.5 15t2 25.5t11.5 37.5zM473 634q-19 1 -40.5 3t-29.5 2q-17 1 -22.5 5t-2.5 19q3 20 14 29t19 12q6 3 18.5 9t26.5 10.5t27 7t21 -0.5q15 -5 29.5 -24t31.5 -48q4 -8 8.5 -21.5t-3.5 -31.5q-5 -14 -12.5 -14t-21.5 8zM480 643q5 -4 12 -9.5t18 -13.5
q-1 1 -6 6.5t-11 13.5t-10 19t-4 22q-1 -5 -2 -9t-1 -8.5v-8.5q-1 -3 0 -5l2 -4t2 -3z" />
    <glyph glyph-name="Idieresis" unicode="&#xcf;" horiz-adv-x="539" 
d="M162 -67q-44 7 -69.5 24t-46.5 50q-11 17 -14 36.5t-1 36.5q2 19 8 37q7 21 18 34t22 19.5t21 8.5t17 2q-5 -22 -7 -45t3 -42.5t18 -34.5t37 -22q21 -5 43 -3t45 13q44 26 75 64.5t51 77.5l17 37l3 6q2 4 2 7q9 22 15 40.5t9 30.5q15 63 13 117.5t-10 95.5
q-29 -21 -54.5 -49t-45 -61t-32 -70t-13.5 -76q-29 12 -50 30q-18 15 -30 37.5t-4 52.5q4 16 20 41.5t43 54.5t65.5 59t88.5 55q7 3 18 5.5t24.5 0t28 -12t29.5 -30.5q19 -27 24.5 -62.5t2.5 -73.5t-12.5 -75t-19.5 -67q-2 -8 -13.5 -40t-33.5 -75.5t-55 -91t-79 -86.5
q-3 -2 -6 -4.5t-6 -5.5q-26 -18 -66.5 -35t-92.5 -11zM206 -44q-29 2 -54.5 13t-45.5 23q-23 14 -42 31q13 -20 33 -36q17 -14 44 -24t65 -7zM525 401q8 30 7.5 53t-5.5 39q-5 18 -14 33q7 -25 9.5 -47.5t3.5 -39.5q1 -20 -1 -38zM239 418q-12 -13 -17 -27q-5 -12 -5 -27
t13 -30q0 1 -2 6t-2.5 15t2 25.5t11.5 37.5zM420 733q12 2 32.5 3.5t43.5 -6.5q4 -2 7 -5q6 -6 2 -17l-15 -34q-1 -3 -3 -7q-3 -6 -7 -10q-6 -7 -18 -14t-32 -4q-18 2 -27 9.5t-12 15.5q-3 6 -1 13l2 8q3 9 6.5 18t8.5 20q1 2 3 4q5 5 10 6zM532 692q12 2 32.5 3.5
t43.5 -6.5q4 -2 7 -5q6 -6 2 -17l-15 -34q-1 -3 -3 -7q-3 -6 -7 -10q-6 -7 -18 -14t-32 -4q-18 2 -27 9.5t-12 15.5q-3 6 -1 13l2 8q3 9 6.5 18t8.5 20q1 2 3 4q5 5 10 6zM512 638q0 1 4.5 7t11 14t16 15t20.5 10q-5 -1 -9 -1q-4 -1 -8.5 -1t-8.5 -1q-6 -2 -8 -5
q-2 -2 -2 -3zM400 679q0 1 4.5 7t11 14t16 15t20.5 10q-5 -1 -9 -1q-4 -1 -8.5 -1t-8.5 -1q-6 -2 -8 -5q-2 -2 -2 -3z" />
    <glyph glyph-name="Eth" unicode="&#xd0;" horiz-adv-x="771" 
d="M265 313q20 63 42.5 115.5t38.5 88.5q-58 -12 -103.5 -37.5t-78.5 -53.5t-53 -54t-26 -39q-19 8 -30 22q-10 12 -15.5 32t4.5 51q10 34 38 59.5t63 43.5t71.5 29.5t63.5 17.5q46 10 103 15t127 -8q76 -15 132 -57q24 -18 46 -44t37.5 -61.5t22.5 -82t0 -105.5
q-18 -98 -73 -171q-23 -31 -57 -60t-80.5 -49.5t-107.5 -30t-138 -1.5q-8 1 -25.5 3.5t-39.5 9t-44.5 18.5t-40.5 32q-20 20 -27.5 41.5t-8 40.5t3.5 34.5t7 24.5q5 14 18.5 30t40.5 18q9 1 16 -1q6 -2 12 -5t8 -11q-9 -2 -16 -7q-6 -5 -11 -15t-4 -28q0 -29 19.5 -54
t55.5 -37q6 -2 18 -5t30.5 -4.5t43.5 -1t57 5.5q39 6 70 18.5t55.5 28t42.5 34t32 36.5q32 42 46 93q10 55 3 105.5t-31.5 90t-66 66t-100.5 33.5q-15 -36 -43 -94.5t-54 -129.5l48 -4q4 -3 8 -8q6 -8 16 -35q4 -14 4.5 -24.5t-0.5 -18.5q-1 -9 -3 -15q-6 3 -36 6t-66 5
q-5 -20 -8.5 -42.5t-3.5 -43.5t5 -39t16 -28q-10 -3 -21 -4q-9 -2 -21 -1.5t-23 2.5q-9 2 -17.5 5t-15.5 8q-5 4 -8.5 8.5t-5.5 8.5v2l-1 1l-2 6q-4 11 -4 22.5t1 18.5q3 21 7 42t9 41q-19 2 -31 3.5t-12 3.5q-4 3 -8 8t-8 12.5t-9 21.5t-5.5 24t0.5 18q1 9 3 16zM401 -44
q-30 -2 -52.5 -1.5t-37.5 3t-23.5 5t-11.5 3.5q20 -11 42 -14t41 -2q21 1 42 6zM169 172q-13 -4 -24 -14q-9 -8 -16 -22t-5 -36q1 3 3 11t7.5 18.5t13.5 22t21 20.5zM68 456q-12 -14 -15 -28t-2 -25q1 -13 7 -25q-2 14 -0.5 28.5t3.5 25.5q3 13 7 24zM396 288q-8 2 -18 4
q-8 2 -18 3.5t-20 3.5q5 -2 14.5 -5t20 -7.5t20 -11t15.5 -14.5l-6 12q-2 5 -4 9t-4 6zM204 234q8 -2 18 -4q8 -2 17.5 -3.5t20.5 -3.5q-5 1 -15 4t-20.5 8t-20 11.5t-14.5 14.5q2 -7 5 -12q2 -5 4.5 -9t4.5 -6z" />
    <glyph glyph-name="Ntilde" unicode="&#xd1;" horiz-adv-x="587" 
d="M223 116q-7 -29 -10.5 -56t-1.5 -52q3 -44 26 -77l-8 -2t-9 -1h-11q-14 0 -31 3t-32.5 13t-27.5 28t-15 47q-4 50 9.5 104.5t35 108t46 102.5t41.5 88q4 11 10.5 24.5t11.5 26.5t8.5 24t3.5 17q-1 5 -9 5q-11 0 -28 -5.5t-28 -9.5q-38 -14 -68 -33t-51.5 -38.5t-35 -37
t-18.5 -27.5q-12 5 -21 15q-8 8 -14.5 20.5t-8.5 30.5q-3 39 20.5 70t59.5 52.5t78 33t76 11.5q19 0 40 -5.5t39 -18t30.5 -33t15.5 -51.5q2 -26 -3.5 -49.5t-13.5 -45.5q25 30 51.5 54.5t53 42.5t51.5 28t47 10t37.5 -8.5t25.5 -22t14 -30t4 -33.5q0 -20 -10 -52t-24.5 -71
t-30 -82t-27.5 -83q-3 -9 -11.5 -38.5t-8.5 -90.5q0 -28 5.5 -47t13.5 -30t17 -16t16 -5t9 1t3 2q0 -15 -8 -23t-18.5 -12.5t-21.5 -5.5t-17 -1q-17 0 -34 5t-30 19t-21 39.5t-8 67.5q8 87 32 178t56 174q4 11 6.5 18.5t2.5 14.5q0 18 -20 18q-21 0 -57 -21.5t-75 -61.5
t-74.5 -95.5t-54.5 -124.5zM13 415q-2 27 4 49.5t8 26.5q-12 -13 -15.5 -27t-2.5 -25q0 -5 1 -9.5t2 -7.5q1 -4 3 -7zM535 508q8 0 13.5 -1.5t7.5 -2.5q-14 10 -28 10q-12 0 -22.5 -5t-18.5 -10q-10 -6 -17 -14q20 14 36.5 18.5t28.5 4.5zM440 -48q0 -1 0.5 -8t5.5 -15.5
t15.5 -16t30.5 -10.5q-1 1 -7.5 4t-15 9t-16.5 15t-13 22zM134 11q0 -1 1 -8.5t5 -16.5t12.5 -18t24.5 -13q-8 6 -16 14q-7 7 -14.5 17.5t-12.5 24.5zM394 721q25 -5 37 -15t18 -21.5t10.5 -24t14.5 -23.5t29.5 -19.5t55.5 -11.5q0 -13 -7 -23t-17.5 -16t-23 -8.5t-23.5 0.5
q-23 0 -34.5 6.5t-18 17t-11.5 23.5t-15.5 26t-30 24t-55.5 18q0 12 7 22t18 16t23 8.5t23 0.5zM410 701q-17 10 -30 10q-6 0 -10 -1.5t-6 -3.5l-5 -5q9 3 21 3q5 0 10.5 -0.5t10.5 -1.5t9 -1zM472 579q17 -10 30 -10q11 0 16 5q3 2 5 5q-9 -3 -21 -3h-11t-10 1t-9 2z" />
    <glyph glyph-name="Ograve" unicode="&#xd2;" horiz-adv-x="646" 
d="M156 501q27 32 55.5 51t55.5 29.5t50 14.5t38 6q95 8 164 -18q29 -11 55 -31t42.5 -52.5t21 -78.5t-8.5 -109q-18 -83 -48 -144t-67.5 -104t-79.5 -70t-84 -41.5t-81 -19.5t-69 -3q-45 3 -76 14.5t-50.5 28.5t-29.5 38t-13 42q-8 50 13 112q9 23 22 44q2 4 11 17.5t25 31
t39.5 36.5t55.5 33q5 2 9 3.5t6 3.5q3 1 5 2h1q26 8 49.5 11t43.5 -3q29 -8 39 -23t12 -30q2 -18 -6 -37q-11 3 -35 8t-59 -1q-8 -2 -20 -5.5t-27 -11t-30.5 -19.5t-30.5 -30q-8 -11 -13.5 -21t-9.5 -18q-4 -9 -7 -17q-9 -24 -9.5 -43t5 -32.5t15 -23.5t21.5 -16
q27 -15 68 -19q36 -3 67.5 5t58 23t48.5 35.5t39 42.5q40 51 67 119q25 69 30 117.5t-4.5 81t-30.5 51t-46 27.5q-60 21 -152 2q-50 -13 -81.5 -44t-36.5 -64q-4 -18 -1 -27.5t8 -14.5q6 -5 15 -5q-4 -8 -10.5 -12t-12.5 -6q-8 -2 -16 -2q-27 1 -38.5 15.5t-13.5 28.5
q-1 6 -1.5 18.5t3.5 28.5t13 35t27 40zM552 382q7 16 8 34q0 15 -6.5 32.5t-28.5 32.5q11 -13 18 -29q6 -14 10 -32t-1 -38zM342 289q1 17 -6.5 25t-17.5 11q-11 4 -26 3q16 -2 26 -8.5t15 -13.5q6 -8 9 -17zM131 382q-1 -10 3 -18q3 -7 11 -12t25 -5q-1 0 -16 8t-23 27z
M407 654q-2 12 -5 32.5t5 43.5q2 5 5 8q6 6 17 2q22 -8 47 -25.5t47 -39.5q7 -5 14.5 -17t5.5 -32q-2 -15 -8.5 -17.5t-22.5 1.5q-5 1 -18 5.5t-28 9.5t-29 10t-19 7q-3 1 -5 3q-5 3 -6 9zM461 636q-2 1 -9 5t-14.5 11t-14 15.5t-9.5 19.5q0 -5 1 -9t1.5 -8.5t1.5 -8.5
q2 -6 5 -8q2 -2 3 -2z" />
    <glyph glyph-name="Oacute" unicode="&#xd3;" horiz-adv-x="646" 
d="M156 501q27 32 55.5 51t55.5 29.5t50 14.5t38 6q95 8 164 -18q29 -11 55 -31t42.5 -52.5t21 -78.5t-8.5 -109q-18 -83 -48 -144t-67.5 -104t-79.5 -70t-84 -41.5t-81 -19.5t-69 -3q-45 3 -76 14.5t-50.5 28.5t-29.5 38t-13 42q-8 50 13 112q9 23 22 44q2 4 11 17.5t25 31
t39.5 36.5t55.5 33q5 2 9 3.5t6 3.5q3 1 5 2h1q26 8 49.5 11t43.5 -3q29 -8 39 -23t12 -30q2 -18 -6 -37q-11 3 -35 8t-59 -1q-8 -2 -20 -5.5t-27 -11t-30.5 -19.5t-30.5 -30q-8 -11 -13.5 -21t-9.5 -18q-4 -9 -7 -17q-9 -24 -9.5 -43t5 -32.5t15 -23.5t21.5 -16
q27 -15 68 -19q36 -3 67.5 5t58 23t48.5 35.5t39 42.5q40 51 67 119q25 69 30 117.5t-4.5 81t-30.5 51t-46 27.5q-60 21 -152 2q-50 -13 -81.5 -44t-36.5 -64q-4 -18 -1 -27.5t8 -14.5q6 -5 15 -5q-4 -8 -10.5 -12t-12.5 -6q-8 -2 -16 -2q-27 1 -38.5 15.5t-13.5 28.5
q-1 6 -1.5 18.5t3.5 28.5t13 35t27 40zM552 382q7 16 8 34q0 15 -6.5 32.5t-28.5 32.5q11 -13 18 -29q6 -14 10 -32t-1 -38zM342 289q1 17 -6.5 25t-17.5 11q-11 4 -26 3q16 -2 26 -8.5t15 -13.5q6 -8 9 -17zM131 382q-1 -10 3 -18q3 -7 11 -12t25 -5q-1 0 -16 8t-23 27z
M507 663q-1 -4 -2.5 -5.5l-3.5 -3.5q-3 -2 -5 -3q-5 -2 -19 -7t-29 -10l-28.5 -9.5t-17.5 -5.5q-16 -4 -22.5 -1.5t-8.5 17.5q-2 20 5.5 32t14.5 17q22 22 47 39.5t47 25.5q11 4 17 -2q3 -3 5 -8q8 -23 5 -43.5t-5 -32.5zM500 696q-3 -10 -9.5 -18.5t-13.5 -15t-13.5 -11
t-9.5 -5.5l34 14q1 0 3 2q3 2 5 8q1 4 1.5 8.5t1.5 8.5t1 9z" />
    <glyph glyph-name="Ocircumflex" unicode="&#xd4;" horiz-adv-x="646" 
d="M156 501q27 32 55.5 51t55.5 29.5t50 14.5t38 6q95 8 164 -18q29 -11 55 -31t42.5 -52.5t21 -78.5t-8.5 -109q-18 -83 -48 -144t-67.5 -104t-79.5 -70t-84 -41.5t-81 -19.5t-69 -3q-45 3 -76 14.5t-50.5 28.5t-29.5 38t-13 42q-8 50 13 112q9 23 22 44q2 4 11 17.5t25 31
t39.5 36.5t55.5 33q5 2 9 3.5t6 3.5q3 1 5 2h1q26 8 49.5 11t43.5 -3q29 -8 39 -23t12 -30q2 -18 -6 -37q-11 3 -35 8t-59 -1q-8 -2 -20 -5.5t-27 -11t-30.5 -19.5t-30.5 -30q-8 -11 -13.5 -21t-9.5 -18q-4 -9 -7 -17q-9 -24 -9.5 -43t5 -32.5t15 -23.5t21.5 -16
q27 -15 68 -19q36 -3 67.5 5t58 23t48.5 35.5t39 42.5q40 51 67 119q25 69 30 117.5t-4.5 81t-30.5 51t-46 27.5q-60 21 -152 2q-50 -13 -81.5 -44t-36.5 -64q-4 -18 -1 -27.5t8 -14.5q6 -5 15 -5q-4 -8 -10.5 -12t-12.5 -6q-8 -2 -16 -2q-27 1 -38.5 15.5t-13.5 28.5
q-1 6 -1.5 18.5t3.5 28.5t13 35t27 40zM552 382q7 16 8 34q0 15 -6.5 32.5t-28.5 32.5q11 -13 18 -29q6 -14 10 -32t-1 -38zM342 289q1 17 -6.5 25t-17.5 11q-11 4 -26 3q16 -2 26 -8.5t15 -13.5q6 -8 9 -17zM131 382q-1 -10 3 -18q3 -7 11 -12t25 -5q-1 0 -16 8t-23 27z
M479 630q-19 1 -40.5 3t-29.5 2q-17 1 -22.5 5t-2.5 19q3 20 14 29t19 12q6 3 18.5 9t26.5 10.5t27 7t21 -0.5q15 -5 29.5 -24t31.5 -48q4 -8 8.5 -21.5t-3.5 -31.5q-5 -14 -12.5 -14t-21.5 8zM486 639q5 -4 12 -9.5t18 -13.5q-1 1 -6 6.5t-11 13.5t-10 19t-4 22
q-1 -5 -2 -9t-1 -8.5v-8.5q-1 -3 0 -5l2 -4t2 -3z" />
    <glyph glyph-name="Otilde" unicode="&#xd5;" horiz-adv-x="646" 
d="M156 501q27 32 55.5 51t55.5 29.5t50 14.5t38 6q95 8 164 -18q29 -11 55 -31t42.5 -52.5t21 -78.5t-8.5 -109q-18 -83 -48 -144t-67.5 -104t-79.5 -70t-84 -41.5t-81 -19.5t-69 -3q-45 3 -76 14.5t-50.5 28.5t-29.5 38t-13 42q-8 50 13 112q9 23 22 44q2 4 11 17.5t25 31
t39.5 36.5t55.5 33q5 2 9 3.5t6 3.5q3 1 5 2h1q26 8 49.5 11t43.5 -3q29 -8 39 -23t12 -30q2 -18 -6 -37q-11 3 -35 8t-59 -1q-8 -2 -20 -5.5t-27 -11t-30.5 -19.5t-30.5 -30q-8 -11 -13.5 -21t-9.5 -18q-4 -9 -7 -17q-9 -24 -9.5 -43t5 -32.5t15 -23.5t21.5 -16
q27 -15 68 -19q36 -3 67.5 5t58 23t48.5 35.5t39 42.5q40 51 67 119q25 69 30 117.5t-4.5 81t-30.5 51t-46 27.5q-60 21 -152 2q-50 -13 -81.5 -44t-36.5 -64q-4 -18 -1 -27.5t8 -14.5q6 -5 15 -5q-4 -8 -10.5 -12t-12.5 -6q-8 -2 -16 -2q-27 1 -38.5 15.5t-13.5 28.5
q-1 6 -1.5 18.5t3.5 28.5t13 35t27 40zM552 382q7 16 8 34q0 15 -6.5 32.5t-28.5 32.5q11 -13 18 -29q6 -14 10 -32t-1 -38zM342 289q1 17 -6.5 25t-17.5 11q-11 4 -26 3q16 -2 26 -8.5t15 -13.5q6 -8 9 -17zM131 382q-1 -10 3 -18q3 -7 11 -12t25 -5q-1 0 -16 8t-23 27z
M471 750q25 -5 37 -15t18 -21.5t10.5 -24t14.5 -23.5t29.5 -19.5t55.5 -11.5q0 -13 -7 -23t-17.5 -16t-23 -8.5t-23.5 0.5q-23 0 -34.5 6.5t-18 17t-11.5 23.5t-15.5 26t-30 24t-55.5 18q0 12 7 22t18 16t23 8.5t23 0.5zM487 730q-17 10 -30 10q-6 0 -10 -1.5t-6 -3.5l-5 -5
q9 3 21 3q5 0 10.5 -0.5t10.5 -1.5t9 -1zM549 608q17 -10 30 -10q11 0 16 5q3 2 5 5q-9 -3 -21 -3h-11t-10 1t-9 2z" />
    <glyph glyph-name="Odieresis" unicode="&#xd6;" horiz-adv-x="646" 
d="M156 501q27 32 55.5 51t55.5 29.5t50 14.5t38 6q95 8 164 -18q29 -11 55 -31t42.5 -52.5t21 -78.5t-8.5 -109q-18 -83 -48 -144t-67.5 -104t-79.5 -70t-84 -41.5t-81 -19.5t-69 -3q-45 3 -76 14.5t-50.5 28.5t-29.5 38t-13 42q-8 50 13 112q9 23 22 44q2 4 11 17.5t25 31
t39.5 36.5t55.5 33q5 2 9 3.5t6 3.5q3 1 5 2h1q26 8 49.5 11t43.5 -3q29 -8 39 -23t12 -30q2 -18 -6 -37q-11 3 -35 8t-59 -1q-8 -2 -20 -5.5t-27 -11t-30.5 -19.5t-30.5 -30q-8 -11 -13.5 -21t-9.5 -18q-4 -9 -7 -17q-9 -24 -9.5 -43t5 -32.5t15 -23.5t21.5 -16
q27 -15 68 -19q36 -3 67.5 5t58 23t48.5 35.5t39 42.5q40 51 67 119q25 69 30 117.5t-4.5 81t-30.5 51t-46 27.5q-60 21 -152 2q-50 -13 -81.5 -44t-36.5 -64q-4 -18 -1 -27.5t8 -14.5q6 -5 15 -5q-4 -8 -10.5 -12t-12.5 -6q-8 -2 -16 -2q-27 1 -38.5 15.5t-13.5 28.5
q-1 6 -1.5 18.5t3.5 28.5t13 35t27 40zM552 382q7 16 8 34q0 15 -6.5 32.5t-28.5 32.5q11 -13 18 -29q6 -14 10 -32t-1 -38zM342 289q1 17 -6.5 25t-17.5 11q-11 4 -26 3q16 -2 26 -8.5t15 -13.5q6 -8 9 -17zM131 382q-1 -10 3 -18q3 -7 11 -12t25 -5q-1 0 -16 8t-23 27z
M400 740q12 2 32.5 3.5t43.5 -6.5q4 -2 7 -5q6 -6 2 -17l-15 -34q-1 -3 -3 -7q-3 -6 -7 -10q-6 -7 -18 -14t-32 -4q-18 2 -27 9.5t-12 15.5q-3 6 -1 13l2 8q3 9 6.5 18t8.5 20q1 2 3 4q5 5 10 6zM512 699q12 2 32.5 3.5t43.5 -6.5q4 -2 7 -5q6 -6 2 -17l-15 -34q-1 -3 -3 -7
q-3 -6 -7 -10q-6 -7 -18 -14t-32 -4q-18 2 -27 9.5t-12 15.5q-3 6 -1 13l2 8q3 9 6.5 18t8.5 20q1 2 3 4q5 5 10 6zM492 645q0 1 4.5 7t11 14t16 15t20.5 10q-5 -1 -9 -1q-4 -1 -8.5 -1t-8.5 -1q-6 -2 -8 -5q-2 -2 -2 -3zM380 686q0 1 4.5 7t11 14t16 15t20.5 10
q-5 -1 -9 -1q-4 -1 -8.5 -1t-8.5 -1q-6 -2 -8 -5q-2 -2 -2 -3z" />
    <glyph glyph-name="Ugrave" unicode="&#xd9;" horiz-adv-x="656" 
d="M50 480q10 25 31.5 44.5t48 34t56.5 24.5t57 16q9 2 28.5 4t41 -1t42.5 -13t34 -32q15 -27 15.5 -54t-6.5 -52.5t-18 -49t-20 -42.5v1q-14 -33 -31.5 -68t-34.5 -70t-32 -70.5t-24 -68.5q-7 -26 -4 -39.5t8 -19.5q6 -7 17 -8q23 -1 49 17t53.5 49t55.5 71t53.5 82.5
t48 84t39.5 75.5t28 56.5t13 27.5q11 26 21 47.5t18 36.5q9 18 16 31q6 3 15 6q8 2 18 4t24 2t23 -3t14 -6q6 -4 10 -9q-31 -59 -63 -129q-27 -60 -58 -138.5t-57 -166.5l-8 -30q-2 -9 -5.5 -28.5t-5.5 -43t-0.5 -48t10.5 -43.5q1 -4 5 -10q8 -14 17 -18.5t16 -5.5
q8 -1 15 3q2 -8 -1.5 -13.5t-8.5 -10.5t-13 -9q-27 -13 -50.5 -9.5t-37.5 11.5q-18 9 -33 34t-15 77q0 2 0.5 4.5t0.5 4.5v1q0 8 0.5 15.5t1.5 15.5q3 24 7.5 48.5t9.5 49.5q-24 -42 -51 -81t-57 -71q-36 -39 -76 -54t-69 -15q-22 0 -38 4t-25 9l-7 3l-4 2q-1 0 -1 1
q-15 10 -25.5 28t-11.5 47q-2 49 17 104t46 108.5t56 102.5t49 87q6 12 14 27.5t15 29.5t10.5 24.5t1.5 13.5t-10 2t-17.5 -3t-20 -5.5t-17.5 -6.5q-39 -14 -71 -33t-55 -38.5t-37.5 -37t-20.5 -27.5q-16 9 -27 25q-9 14 -12.5 34.5t9.5 50.5zM58 418q0 27 7.5 49t9.5 26
q-13 -12 -17 -25.5t-4 -24.5q0 -13 4 -25zM578 -86q-9 -3 -20 -3q-10 0 -22.5 4t-28.5 16q7 -12 18 -18q9 -6 22 -7.5t31 8.5zM150 18q-1 -13 3 -24q3 -10 11 -19t24 -13q-8 5 -15 13q-6 7 -12.5 17.5t-10.5 25.5zM451 638q-2 12 -5 32.5t5 43.5q2 5 5 8q6 6 17 2
q22 -8 47 -25.5t47 -39.5q7 -5 14.5 -17t5.5 -32q-2 -15 -8.5 -17.5t-22.5 1.5q-5 1 -18 5.5t-28 9.5t-29 10t-19 7q-3 1 -5 3q-5 3 -6 9zM505 620q-2 1 -9 5t-14.5 11t-14 15.5t-9.5 19.5q0 -5 1 -9t1.5 -8.5t1.5 -8.5q2 -6 5 -8q2 -2 3 -2z" />
    <glyph glyph-name="Uacute" unicode="&#xda;" horiz-adv-x="656" 
d="M50 480q10 25 31.5 44.5t48 34t56.5 24.5t57 16q9 2 28.5 4t41 -1t42.5 -13t34 -32q15 -27 15.5 -54t-6.5 -52.5t-18 -49t-20 -42.5v1q-14 -33 -31.5 -68t-34.5 -70t-32 -70.5t-24 -68.5q-7 -26 -4 -39.5t8 -19.5q6 -7 17 -8q23 -1 49 17t53.5 49t55.5 71t53.5 82.5
t48 84t39.5 75.5t28 56.5t13 27.5q11 26 21 47.5t18 36.5q9 18 16 31q6 3 15 6q8 2 18 4t24 2t23 -3t14 -6q6 -4 10 -9q-31 -59 -63 -129q-27 -60 -58 -138.5t-57 -166.5l-8 -30q-2 -9 -5.5 -28.5t-5.5 -43t-0.5 -48t10.5 -43.5q1 -4 5 -10q8 -14 17 -18.5t16 -5.5
q8 -1 15 3q2 -8 -1.5 -13.5t-8.5 -10.5t-13 -9q-27 -13 -50.5 -9.5t-37.5 11.5q-18 9 -33 34t-15 77q0 2 0.5 4.5t0.5 4.5v1q0 8 0.5 15.5t1.5 15.5q3 24 7.5 48.5t9.5 49.5q-24 -42 -51 -81t-57 -71q-36 -39 -76 -54t-69 -15q-22 0 -38 4t-25 9l-7 3l-4 2q-1 0 -1 1
q-15 10 -25.5 28t-11.5 47q-2 49 17 104t46 108.5t56 102.5t49 87q6 12 14 27.5t15 29.5t10.5 24.5t1.5 13.5t-10 2t-17.5 -3t-20 -5.5t-17.5 -6.5q-39 -14 -71 -33t-55 -38.5t-37.5 -37t-20.5 -27.5q-16 9 -27 25q-9 14 -12.5 34.5t9.5 50.5zM58 418q0 27 7.5 49t9.5 26
q-13 -12 -17 -25.5t-4 -24.5q0 -13 4 -25zM578 -86q-9 -3 -20 -3q-10 0 -22.5 4t-28.5 16q7 -12 18 -18q9 -6 22 -7.5t31 8.5zM150 18q-1 -13 3 -24q3 -10 11 -19t24 -13q-8 5 -15 13q-6 7 -12.5 17.5t-10.5 25.5zM603 635q-1 -4 -2.5 -5.5l-3.5 -3.5q-3 -2 -5 -3
q-5 -2 -19 -7t-29 -10l-28.5 -9.5t-17.5 -5.5q-16 -4 -22.5 -1.5t-8.5 17.5q-2 20 5.5 32t14.5 17q22 22 47 39.5t47 25.5q11 4 17 -2q3 -3 5 -8q8 -23 5 -43.5t-5 -32.5zM596 668q-3 -10 -9.5 -18.5t-13.5 -15t-13.5 -11t-9.5 -5.5l34 14q1 0 3 2q3 2 5 8q1 4 1.5 8.5
t1.5 8.5t1 9z" />
    <glyph glyph-name="Ucircumflex" unicode="&#xdb;" horiz-adv-x="656" 
d="M50 480q10 25 31.5 44.5t48 34t56.5 24.5t57 16q9 2 28.5 4t41 -1t42.5 -13t34 -32q15 -27 15.5 -54t-6.5 -52.5t-18 -49t-20 -42.5v1q-14 -33 -31.5 -68t-34.5 -70t-32 -70.5t-24 -68.5q-7 -26 -4 -39.5t8 -19.5q6 -7 17 -8q23 -1 49 17t53.5 49t55.5 71t53.5 82.5
t48 84t39.5 75.5t28 56.5t13 27.5q11 26 21 47.5t18 36.5q9 18 16 31q6 3 15 6q8 2 18 4t24 2t23 -3t14 -6q6 -4 10 -9q-31 -59 -63 -129q-27 -60 -58 -138.5t-57 -166.5l-8 -30q-2 -9 -5.5 -28.5t-5.5 -43t-0.5 -48t10.5 -43.5q1 -4 5 -10q8 -14 17 -18.5t16 -5.5
q8 -1 15 3q2 -8 -1.5 -13.5t-8.5 -10.5t-13 -9q-27 -13 -50.5 -9.5t-37.5 11.5q-18 9 -33 34t-15 77q0 2 0.5 4.5t0.5 4.5v1q0 8 0.5 15.5t1.5 15.5q3 24 7.5 48.5t9.5 49.5q-24 -42 -51 -81t-57 -71q-36 -39 -76 -54t-69 -15q-22 0 -38 4t-25 9l-7 3l-4 2q-1 0 -1 1
q-15 10 -25.5 28t-11.5 47q-2 49 17 104t46 108.5t56 102.5t49 87q6 12 14 27.5t15 29.5t10.5 24.5t1.5 13.5t-10 2t-17.5 -3t-20 -5.5t-17.5 -6.5q-39 -14 -71 -33t-55 -38.5t-37.5 -37t-20.5 -27.5q-16 9 -27 25q-9 14 -12.5 34.5t9.5 50.5zM58 418q0 27 7.5 49t9.5 26
q-13 -12 -17 -25.5t-4 -24.5q0 -13 4 -25zM578 -86q-9 -3 -20 -3q-10 0 -22.5 4t-28.5 16q7 -12 18 -18q9 -6 22 -7.5t31 8.5zM150 18q-1 -13 3 -24q3 -10 11 -19t24 -13q-8 5 -15 13q-6 7 -12.5 17.5t-10.5 25.5zM511 628q-19 1 -40.5 3t-29.5 2q-17 1 -22.5 5t-2.5 19
q3 20 14 29t19 12q6 3 18.5 9t26.5 10.5t27 7t21 -0.5q15 -5 29.5 -24t31.5 -48q4 -8 8.5 -21.5t-3.5 -31.5q-5 -14 -12.5 -14t-21.5 8zM518 637q5 -4 12 -9.5t18 -13.5q-1 1 -6 6.5t-11 13.5t-10 19t-4 22q-1 -5 -2 -9t-1 -8.5v-8.5q-1 -3 0 -5l2 -4t2 -3z" />
    <glyph glyph-name="Udieresis" unicode="&#xdc;" horiz-adv-x="656" 
d="M50 480q10 25 31.5 44.5t48 34t56.5 24.5t57 16q9 2 28.5 4t41 -1t42.5 -13t34 -32q15 -27 15.5 -54t-6.5 -52.5t-18 -49t-20 -42.5v1q-14 -33 -31.5 -68t-34.5 -70t-32 -70.5t-24 -68.5q-7 -26 -4 -39.5t8 -19.5q6 -7 17 -8q23 -1 49 17t53.5 49t55.5 71t53.5 82.5
t48 84t39.5 75.5t28 56.5t13 27.5q11 26 21 47.5t18 36.5q9 18 16 31q6 3 15 6q8 2 18 4t24 2t23 -3t14 -6q6 -4 10 -9q-31 -59 -63 -129q-27 -60 -58 -138.5t-57 -166.5l-8 -30q-2 -9 -5.5 -28.5t-5.5 -43t-0.5 -48t10.5 -43.5q1 -4 5 -10q8 -14 17 -18.5t16 -5.5
q8 -1 15 3q2 -8 -1.5 -13.5t-8.5 -10.5t-13 -9q-27 -13 -50.5 -9.5t-37.5 11.5q-18 9 -33 34t-15 77q0 2 0.5 4.5t0.5 4.5v1q0 8 0.5 15.5t1.5 15.5q3 24 7.5 48.5t9.5 49.5q-24 -42 -51 -81t-57 -71q-36 -39 -76 -54t-69 -15q-22 0 -38 4t-25 9l-7 3l-4 2q-1 0 -1 1
q-15 10 -25.5 28t-11.5 47q-2 49 17 104t46 108.5t56 102.5t49 87q6 12 14 27.5t15 29.5t10.5 24.5t1.5 13.5t-10 2t-17.5 -3t-20 -5.5t-17.5 -6.5q-39 -14 -71 -33t-55 -38.5t-37.5 -37t-20.5 -27.5q-16 9 -27 25q-9 14 -12.5 34.5t9.5 50.5zM58 418q0 27 7.5 49t9.5 26
q-13 -12 -17 -25.5t-4 -24.5q0 -13 4 -25zM578 -86q-9 -3 -20 -3q-10 0 -22.5 4t-28.5 16q7 -12 18 -18q9 -6 22 -7.5t31 8.5zM150 18q-1 -13 3 -24q3 -10 11 -19t24 -13q-8 5 -15 13q-6 7 -12.5 17.5t-10.5 25.5zM460 720q12 2 32.5 3.5t43.5 -6.5q4 -2 7 -5q6 -6 2 -17
l-15 -34q-1 -3 -3 -7q-3 -6 -7 -10q-6 -7 -18 -14t-32 -4q-18 2 -27 9.5t-12 15.5q-3 6 -1 13l2 8q3 9 6.5 18t8.5 20q1 2 3 4q5 5 10 6zM572 679q12 2 32.5 3.5t43.5 -6.5q4 -2 7 -5q6 -6 2 -17l-15 -34q-1 -3 -3 -7q-3 -6 -7 -10q-6 -7 -18 -14t-32 -4q-18 2 -27 9.5
t-12 15.5q-3 6 -1 13l2 8q3 9 6.5 18t8.5 20q1 2 3 4q5 5 10 6zM552 625q0 1 4.5 7t11 14t16 15t20.5 10q-5 -1 -9 -1q-4 -1 -8.5 -1t-8.5 -1q-6 -2 -8 -5q-2 -2 -2 -3zM440 666q0 1 4.5 7t11 14t16 15t20.5 10q-5 -1 -9 -1q-4 -1 -8.5 -1t-8.5 -1q-6 -2 -8 -5q-2 -2 -2 -3z
" />
    <glyph glyph-name="Yacute" unicode="&#xdd;" horiz-adv-x="910" 
d="M550 -296q-44 -20 -90 -25.5t-86.5 -3t-72.5 9t-49 11.5q-29 9 -61 23t-61 33.5t-52 45.5t-34 58q-11 30 -6 50.5t16 32.5q12 14 31 22q4 -9 14.5 -25t27 -35t39.5 -39t53 -38q68 -38 125 -46.5t99 -3.5q49 5 90 26q35 17 65 50.5t55 75.5t45 87.5t34.5 87.5t24 75.5
t14.5 50.5q-32 -62 -69.5 -122t-81.5 -108q-36 -39 -76 -54t-69 -15q-22 0 -38 4t-26 9l-7 3q-2 1 -3 2q-1 0 -1 1q-15 10 -25.5 28t-11.5 47q-2 49 17 104t46 108.5t56 102.5t49 87q6 12 14 27.5t15 29.5t10.5 24.5t0.5 13.5q-2 3 -9.5 2t-17.5 -3t-20 -5.5t-18 -6.5
q-39 -14 -70.5 -33t-55 -38.5t-38 -37t-20.5 -27.5q-17 9 -27 25q-9 14 -12 34.5t10 50.5q10 25 31.5 44.5t48 34t56.5 24.5t57 16q9 2 28.5 4t41 -1t42.5 -13t34 -32q15 -27 15.5 -54t-6.5 -52.5t-18 -49t-20 -42.5v1q-14 -33 -31.5 -68t-34.5 -70t-32 -70.5t-24 -68.5
q-7 -26 -4 -39.5t8 -19.5q6 -7 16 -8q26 -2 56 21t61 60.5t61.5 84.5t57.5 94.5t49 90.5t36 72q7 37 12 67t8 52q4 26 5 46q5 2 13 1q6 -1 15.5 -3.5t20.5 -10.5t18.5 -16t12.5 -14q5 -7 8 -13q-8 -61 -20 -127q-11 -57 -28.5 -127.5t-42.5 -142.5q-12 -41 -28 -84
q-14 -38 -32.5 -83t-42.5 -90q-3 -6 -7 -13q-4 -6 -9 -14.5t-12 -19.5q-11 -16 -21.5 -30t-21.5 -26l-9 -10q-48 -48 -111 -77zM56 -130q3 -16 11 -32q7 -14 19 -29t32 -27q-12 13 -23 27q-10 12 -20.5 28t-18.5 33zM300 418q0 27 8 49t10 26q-13 -12 -17 -25.5t-4 -24.5
q0 -13 3 -25zM389 18q-1 -13 3 -24q3 -10 11 -19t24 -13q-8 5 -15 13q-6 7 -12.5 17.5t-10.5 25.5zM802 633q-1 -4 -2.5 -5.5l-3.5 -3.5q-3 -2 -5 -3q-5 -2 -19 -7t-29 -10l-28.5 -9.5t-17.5 -5.5q-16 -4 -22.5 -1.5t-8.5 17.5q-2 20 5.5 32t14.5 17q22 22 47 39.5t47 25.5
q11 4 17 -2q3 -3 5 -8q8 -23 5 -43.5t-5 -32.5zM795 666q-3 -10 -9.5 -18.5t-13.5 -15t-13.5 -11t-9.5 -5.5l34 14q1 0 3 2q3 2 5 8q1 4 1.5 8.5t1.5 8.5t1 9z" />
    <glyph glyph-name="egrave" unicode="&#xe8;" horiz-adv-x="282" 
d="M320 225q15 -7 12 -25.5t-16 -41.5q-4 -7 -12 -21.5t-19 -33.5q-8 -11 -20.5 -27.5t-30.5 -32.5t-41 -30t-51 -20l-22 -3q-14 -2 -29 0q-18 1 -35 5q-15 4 -31 11t-28 21l-1 1q-16 19 -18.5 44t-0.5 48q3 26 12 54q15 46 35.5 75.5t44 47t48.5 24t48 6.5q15 0 26 -3
q10 -2 24.5 -12t22.5 -33l1 -1q0 -2 1.5 -7.5t2.5 -15.5q1 -5 1 -16q0 -13 -5 -30l-1 -2v-2q-2 -6 -4 -9v-1q-4 -9 -11.5 -21.5t-19.5 -24t-29 -19.5t-40 -9q-14 -1 -22.5 1.5t-10.5 2.5q-14 5 -26 14q-2 -8 -3.5 -18t0.5 -19q0 -2 1 -6.5t4 -10.5q2 -3 5 -6.5t7 -5.5
q3 -4 8 -5l4 -2q16 -5 31.5 -3t29.5 8l19 9q14 9 26 22t21 24l11 15q11 17 22.5 35.5t21.5 32.5q5 8 10 12t11.5 6t15.5 -2zM183 262q-20 10 -48 -14.5t-48 -74.5q5 -4 20 -8.5t40 3.5q15 6 24 15.5t13.5 20.5t6 21.5t1.5 16.5q-2 16 -9 20zM39 28q13 -11 31 -17
q15 -5 37 -6t51 10q-20 -4 -40 -4q-17 0 -38.5 3t-40.5 14zM112 299q-20 -5 -33.5 -15.5t-21.5 -21.5q-10 -12 -16 -27q8 11 20 22.5t23 20.5q13 11 28 21zM123 154q9 -2 18 -1q8 1 16 4.5t15 12.5q-6 -5 -14 -9q-7 -3 -16 -5.5t-19 -1.5zM120 396q-2 12 -5 32.5t5 43.5
q2 5 5 8q6 6 17 2q22 -8 47 -25.5t47 -39.5q7 -5 14.5 -17t5.5 -32q-2 -15 -8.5 -17.5t-22.5 1.5q-5 1 -18 5.5t-28 9.5t-29 10t-19 7q-3 1 -5 3q-5 3 -6 9zM174 378q-2 1 -9 5t-14.5 11t-14 15.5t-9.5 19.5q0 -5 1 -9t1.5 -8.5t1.5 -8.5q2 -6 5 -8q2 -2 3 -2z" />
    <glyph glyph-name="eacute" unicode="&#xe9;" horiz-adv-x="282" 
d="M320 225q15 -7 12 -25.5t-16 -41.5q-4 -7 -12 -21.5t-19 -33.5q-8 -11 -20.5 -27.5t-30.5 -32.5t-41 -30t-51 -20l-22 -3q-14 -2 -29 0q-18 1 -35 5q-15 4 -31 11t-28 21l-1 1q-16 19 -18.5 44t-0.5 48q3 26 12 54q15 46 35.5 75.5t44 47t48.5 24t48 6.5q15 0 26 -3
q10 -2 24.5 -12t22.5 -33l1 -1q0 -2 1.5 -7.5t2.5 -15.5q1 -5 1 -16q0 -13 -5 -30l-1 -2v-2q-2 -6 -4 -9v-1q-4 -9 -11.5 -21.5t-19.5 -24t-29 -19.5t-40 -9q-14 -1 -22.5 1.5t-10.5 2.5q-14 5 -26 14q-2 -8 -3.5 -18t0.5 -19q0 -2 1 -6.5t4 -10.5q2 -3 5 -6.5t7 -5.5
q3 -4 8 -5l4 -2q16 -5 31.5 -3t29.5 8l19 9q14 9 26 22t21 24l11 15q11 17 22.5 35.5t21.5 32.5q5 8 10 12t11.5 6t15.5 -2zM183 262q-20 10 -48 -14.5t-48 -74.5q5 -4 20 -8.5t40 3.5q15 6 24 15.5t13.5 20.5t6 21.5t1.5 16.5q-2 16 -9 20zM39 28q13 -11 31 -17
q15 -5 37 -6t51 10q-20 -4 -40 -4q-17 0 -38.5 3t-40.5 14zM112 299q-20 -5 -33.5 -15.5t-21.5 -21.5q-10 -12 -16 -27q8 11 20 22.5t23 20.5q13 11 28 21zM123 154q9 -2 18 -1q8 1 16 4.5t15 12.5q-6 -5 -14 -9q-7 -3 -16 -5.5t-19 -1.5zM254 396q-1 -4 -2.5 -5.5
l-3.5 -3.5q-3 -2 -5 -3q-5 -2 -19 -7t-29 -10l-28.5 -9.5t-17.5 -5.5q-16 -4 -22.5 -1.5t-8.5 17.5q-2 20 5.5 32t14.5 17q22 22 47 39.5t47 25.5q11 4 17 -2q3 -3 5 -8q8 -23 5 -43.5t-5 -32.5zM247 429q-3 -10 -9.5 -18.5t-13.5 -15t-13.5 -11t-9.5 -5.5l34 14q1 0 3 2
q3 2 5 8q1 4 1.5 8.5t1.5 8.5t1 9z" />
    <glyph glyph-name="ecircumflex" unicode="&#xea;" horiz-adv-x="282" 
d="M320 225q15 -7 12 -25.5t-16 -41.5q-4 -7 -12 -21.5t-19 -33.5q-8 -11 -20.5 -27.5t-30.5 -32.5t-41 -30t-51 -20l-22 -3q-14 -2 -29 0q-18 1 -35 5q-15 4 -31 11t-28 21l-1 1q-16 19 -18.5 44t-0.5 48q3 26 12 54q15 46 35.5 75.5t44 47t48.5 24t48 6.5q15 0 26 -3
q10 -2 24.5 -12t22.5 -33l1 -1q0 -2 1.5 -7.5t2.5 -15.5q1 -5 1 -16q0 -13 -5 -30l-1 -2v-2q-2 -6 -4 -9v-1q-4 -9 -11.5 -21.5t-19.5 -24t-29 -19.5t-40 -9q-14 -1 -22.5 1.5t-10.5 2.5q-14 5 -26 14q-2 -8 -3.5 -18t0.5 -19q0 -2 1 -6.5t4 -10.5q2 -3 5 -6.5t7 -5.5
q3 -4 8 -5l4 -2q16 -5 31.5 -3t29.5 8l19 9q14 9 26 22t21 24l11 15q11 17 22.5 35.5t21.5 32.5q5 8 10 12t11.5 6t15.5 -2zM183 262q-20 10 -48 -14.5t-48 -74.5q5 -4 20 -8.5t40 3.5q15 6 24 15.5t13.5 20.5t6 21.5t1.5 16.5q-2 16 -9 20zM39 28q13 -11 31 -17
q15 -5 37 -6t51 10q-20 -4 -40 -4q-17 0 -38.5 3t-40.5 14zM112 299q-20 -5 -33.5 -15.5t-21.5 -21.5q-10 -12 -16 -27q8 11 20 22.5t23 20.5q13 11 28 21zM123 154q9 -2 18 -1q8 1 16 4.5t15 12.5q-6 -5 -14 -9q-7 -3 -16 -5.5t-19 -1.5zM190 384q-19 1 -40.5 3t-29.5 2
q-17 1 -22.5 5t-2.5 19q3 20 14 29t19 12q6 3 18.5 9t26.5 10.5t27 7t21 -0.5q15 -5 29.5 -24t31.5 -48q4 -8 8.5 -21.5t-3.5 -31.5q-5 -14 -12.5 -14t-21.5 8zM197 393q5 -4 12 -9.5t18 -13.5q-1 1 -6 6.5t-11 13.5t-10 19t-4 22q-1 -5 -2 -9t-1 -8.5v-8.5q-1 -3 0 -5l2 -4
t2 -3z" />
    <glyph glyph-name="edieresis" unicode="&#xeb;" horiz-adv-x="282" 
d="M320 225q15 -7 12 -25.5t-16 -41.5q-4 -7 -12 -21.5t-19 -33.5q-8 -11 -20.5 -27.5t-30.5 -32.5t-41 -30t-51 -20l-22 -3q-14 -2 -29 0q-18 1 -35 5q-15 4 -31 11t-28 21l-1 1q-16 19 -18.5 44t-0.5 48q3 26 12 54q15 46 35.5 75.5t44 47t48.5 24t48 6.5q15 0 26 -3
q10 -2 24.5 -12t22.5 -33l1 -1q0 -2 1.5 -7.5t2.5 -15.5q1 -5 1 -16q0 -13 -5 -30l-1 -2v-2q-2 -6 -4 -9v-1q-4 -9 -11.5 -21.5t-19.5 -24t-29 -19.5t-40 -9q-14 -1 -22.5 1.5t-10.5 2.5q-14 5 -26 14q-2 -8 -3.5 -18t0.5 -19q0 -2 1 -6.5t4 -10.5q2 -3 5 -6.5t7 -5.5
q3 -4 8 -5l4 -2q16 -5 31.5 -3t29.5 8l19 9q14 9 26 22t21 24l11 15q11 17 22.5 35.5t21.5 32.5q5 8 10 12t11.5 6t15.5 -2zM183 262q-20 10 -48 -14.5t-48 -74.5q5 -4 20 -8.5t40 3.5q15 6 24 15.5t13.5 20.5t6 21.5t1.5 16.5q-2 16 -9 20zM39 28q13 -11 31 -17
q15 -5 37 -6t51 10q-20 -4 -40 -4q-17 0 -38.5 3t-40.5 14zM112 299q-20 -5 -33.5 -15.5t-21.5 -21.5q-10 -12 -16 -27q8 11 20 22.5t23 20.5q13 11 28 21zM123 154q9 -2 18 -1q8 1 16 4.5t15 12.5q-6 -5 -14 -9q-7 -3 -16 -5.5t-19 -1.5zM134 471q12 2 32.5 3.5t43.5 -6.5
q4 -2 7 -5q6 -6 2 -17l-15 -34q-1 -3 -3 -7q-3 -6 -7 -10q-6 -7 -18 -14t-32 -4q-18 2 -27 9.5t-12 15.5q-3 6 -1 13l2 8q3 9 6.5 18t8.5 20q1 2 3 4q5 5 10 6zM246 430q12 2 32.5 3.5t43.5 -6.5q4 -2 7 -5q6 -6 2 -17l-15 -34q-1 -3 -3 -7q-3 -6 -7 -10q-6 -7 -18 -14
t-32 -4q-18 2 -27 9.5t-12 15.5q-3 6 -1 13l2 8q3 9 6.5 18t8.5 20q1 2 3 4q5 5 10 6zM226 376q0 1 4.5 7t11 14t16 15t20.5 10q-5 -1 -9 -1q-4 -1 -8.5 -1t-8.5 -1q-6 -2 -8 -5q-2 -2 -2 -3zM114 417q0 1 4.5 7t11 14t16 15t20.5 10q-5 -1 -9 -1q-4 -1 -8.5 -1t-8.5 -1
q-6 -2 -8 -5q-2 -2 -2 -3z" />
    <glyph glyph-name="igrave" unicode="&#xec;" horiz-adv-x="162" 
d="M21 0q-20 4 -33 19q-11 13 -17 37.5t5 68.5q3 21 12 50q7 25 20 61.5t34 87.5q15 5 32 7q14 2 32.5 -0.5t38.5 -11.5q-25 -56 -43 -102q-8 -20 -14.5 -39t-10.5 -34.5t-5 -26.5t3 -14q1 -3 5 -3q3 0 7 2t10 9t14 19t17 26t17.5 28t16.5 25q4 8 10 12q5 4 12 6t15 -2
q15 -7 12 -25.5t-16 -41.5q-6 -11 -21.5 -39t-38 -56t-51.5 -48t-63 -15zM34 265q2 4 6.5 11.5t11.5 16t16 15t19 8.5q-7 -1 -13 -1q-5 -1 -10.5 -1t-7.5 -1zM1 45q0 -10 5 -17q5 -6 14 -10t28 -2q-8 -1 -17 3q-8 2 -16 8.5t-14 17.5zM53 396q-2 12 -5 32.5t5 43.5q2 5 5 8
q6 6 17 2q22 -8 47 -25.5t47 -39.5q7 -5 14.5 -17t5.5 -32q-2 -15 -8.5 -17.5t-22.5 1.5q-5 1 -18 5.5t-28 9.5t-29 10t-19 7q-3 1 -5 3q-5 3 -6 9zM107 378q-2 1 -9 5t-14.5 11t-14 15.5t-9.5 19.5q0 -5 1 -9t1.5 -8.5t1.5 -8.5q2 -6 5 -8q2 -2 3 -2z" />
    <glyph glyph-name="iacute" unicode="&#xed;" horiz-adv-x="162" 
d="M21 0q-20 4 -33 19q-11 13 -17 37.5t5 68.5q3 21 12 50q7 25 20 61.5t34 87.5q15 5 32 7q14 2 32.5 -0.5t38.5 -11.5q-25 -56 -43 -102q-8 -20 -14.5 -39t-10.5 -34.5t-5 -26.5t3 -14q1 -3 5 -3q3 0 7 2t10 9t14 19t17 26t17.5 28t16.5 25q4 8 10 12q5 4 12 6t15 -2
q15 -7 12 -25.5t-16 -41.5q-6 -11 -21.5 -39t-38 -56t-51.5 -48t-63 -15zM34 265q2 4 6.5 11.5t11.5 16t16 15t19 8.5q-7 -1 -13 -1q-5 -1 -10.5 -1t-7.5 -1zM1 45q0 -10 5 -17q5 -6 14 -10t28 -2q-8 -1 -17 3q-8 2 -16 8.5t-14 17.5zM185 396q-1 -4 -2.5 -5.5l-3.5 -3.5
q-3 -2 -5 -3q-5 -2 -19 -7t-29 -10l-28.5 -9.5t-17.5 -5.5q-16 -4 -22.5 -1.5t-8.5 17.5q-2 20 5.5 32t14.5 17q22 22 47 39.5t47 25.5q11 4 17 -2q3 -3 5 -8q8 -23 5 -43.5t-5 -32.5zM178 429q-3 -10 -9.5 -18.5t-13.5 -15t-13.5 -11t-9.5 -5.5l34 14q1 0 3 2q3 2 5 8
q1 4 1.5 8.5t1.5 8.5t1 9z" />
    <glyph glyph-name="icircumflex" unicode="&#xee;" horiz-adv-x="162" 
d="M21 0q-20 4 -33 19q-11 13 -17 37.5t5 68.5q3 21 12 50q7 25 20 61.5t34 87.5q15 5 32 7q14 2 32.5 -0.5t38.5 -11.5q-25 -56 -43 -102q-8 -20 -14.5 -39t-10.5 -34.5t-5 -26.5t3 -14q1 -3 5 -3q3 0 7 2t10 9t14 19t17 26t17.5 28t16.5 25q4 8 10 12q5 4 12 6t15 -2
q15 -7 12 -25.5t-16 -41.5q-6 -11 -21.5 -39t-38 -56t-51.5 -48t-63 -15zM34 265q2 4 6.5 11.5t11.5 16t16 15t19 8.5q-7 -1 -13 -1q-5 -1 -10.5 -1t-7.5 -1zM1 45q0 -10 5 -17q5 -6 14 -10t28 -2q-8 -1 -17 3q-8 2 -16 8.5t-14 17.5zM126 384q-19 1 -40.5 3t-29.5 2
q-17 1 -22.5 5t-2.5 19q3 20 14 29t19 12q6 3 18.5 9t26.5 10.5t27 7t21 -0.5q15 -5 29.5 -24t31.5 -48q4 -8 8.5 -21.5t-3.5 -31.5q-5 -14 -12.5 -14t-21.5 8zM133 393q5 -4 12 -9.5t18 -13.5q-1 1 -6 6.5t-11 13.5t-10 19t-4 22q-1 -5 -2 -9t-1 -8.5v-8.5q-1 -3 0 -5l2 -4
t2 -3z" />
    <glyph glyph-name="idieresis" unicode="&#xef;" horiz-adv-x="162" 
d="M21 0q-20 4 -33 19q-11 13 -17 37.5t5 68.5q3 21 12 50q7 25 20 61.5t34 87.5q15 5 32 7q14 2 32.5 -0.5t38.5 -11.5q-25 -56 -43 -102q-8 -20 -14.5 -39t-10.5 -34.5t-5 -26.5t3 -14q1 -3 5 -3q3 0 7 2t10 9t14 19t17 26t17.5 28t16.5 25q4 8 10 12q5 4 12 6t15 -2
q15 -7 12 -25.5t-16 -41.5q-6 -11 -21.5 -39t-38 -56t-51.5 -48t-63 -15zM34 265q2 4 6.5 11.5t11.5 16t16 15t19 8.5q-7 -1 -13 -1q-5 -1 -10.5 -1t-7.5 -1zM1 45q0 -10 5 -17q5 -6 14 -10t28 -2q-8 -1 -17 3q-8 2 -16 8.5t-14 17.5zM46 476q12 2 32.5 3.5t43.5 -6.5
q4 -2 7 -5q6 -6 2 -17l-15 -34q-1 -3 -3 -7q-3 -6 -7 -10q-6 -7 -18 -14t-32 -4q-18 2 -27 9.5t-12 15.5q-3 6 -1 13l2 8q3 9 6.5 18t8.5 20q1 2 3 4q5 5 10 6zM158 435q12 2 32.5 3.5t43.5 -6.5q4 -2 7 -5q6 -6 2 -17l-15 -34q-1 -3 -3 -7q-3 -6 -7 -10q-6 -7 -18 -14
t-32 -4q-18 2 -27 9.5t-12 15.5q-3 6 -1 13l2 8q3 9 6.5 18t8.5 20q1 2 3 4q5 5 10 6zM138 381q0 1 4.5 7t11 14t16 15t20.5 10q-5 -1 -9 -1q-4 -1 -8.5 -1t-8.5 -1q-6 -2 -8 -5q-2 -2 -2 -3zM26 422q0 1 4.5 7t11 14t16 15t20.5 10q-5 -1 -9 -1q-4 -1 -8.5 -1t-8.5 -1
q-6 -2 -8 -5q-2 -2 -2 -3z" />
    <glyph glyph-name="ntilde" unicode="&#xf1;" 
d="M197 0q-21 4 -33 19q-11 13 -16.5 37.5t5.5 68.5q1 8 4 19q2 10 6 24t10 34q0 2 3 8q2 6 4.5 15.5t3 19t-1 17t-7.5 8.5q-7 2 -21 -11.5t-30 -36.5t-31.5 -54t-25.5 -64q-4 -11 -6.5 -23t-5.5 -24q-4 -15 -2 -25t5.5 -16t8 -9t5.5 -3q-8 -5 -18 -7.5t-19 -4.5
q-4 -1 -9 -1q-23 -2 -35 6t-17 20.5t-5.5 25.5t0.5 21q8 56 22 110t31 104l16 46l1 1q3 1 12 3.5t22.5 3t30 -1.5t34.5 -11q-1 -5 -3 -10q-3 -9 -9 -24q17 17 37 29t41 13q7 0 17 -2q41 -6 54 -41t-6 -92q-12 -32 -18.5 -58t1.5 -31q1 -3 5 -3q3 0 7 2t10 9t14 19t16.5 26
t17.5 28t16 25q4 8 10 12q5 4 12 6t15 -2q15 -7 12.5 -25.5t-15.5 -41.5q-6 -11 -21.5 -39t-38 -56t-52 -48t-63.5 -15zM33 265q2 4 6.5 11.5t11.5 16t16 15t19 8.5q-8 -1 -14 -1q-5 -1 -10 -1t-7 -1zM177 45q0 -10 5 -17q5 -6 14 -10t28 -2q-8 -1 -17 3q-8 2 -16 8.5
t-14 17.5zM-13 27q2 -8 6 -14q4 -5 11.5 -9t21.5 -3q-2 0 -15.5 5.5t-23.5 20.5zM169 497q25 -5 37 -15t18 -21.5t10.5 -24t14.5 -23.5t29.5 -19.5t55.5 -11.5q0 -13 -7 -23t-17.5 -16t-23 -8.5t-23.5 0.5q-23 0 -34.5 6.5t-18 17t-11.5 23.5t-15.5 26t-30 24t-55.5 18
q0 12 7 22t18 16t23 8.5t23 0.5zM185 477q-17 10 -30 10q-6 0 -10 -1.5t-6 -3.5l-5 -5q9 3 21 3q5 0 10.5 -0.5t10.5 -1.5t9 -1zM247 355q17 -10 30 -10q11 0 16 5q3 2 5 5q-9 -3 -21 -3h-11t-10 1t-9 2z" />
    <glyph glyph-name="ograve" unicode="&#xf2;" horiz-adv-x="308" 
d="M-5 27q-1 0 -1 1q-16 19 -19 44t0 48q3 26 12 54q15 46 35.5 75.5t44 47t48.5 24t48 6.5q14 0 26 -3q9 -2 24 -12t23 -33q0 -1 2 -7v-1q2 -7 2.5 -13.5t1.5 -11.5q0 -2 -0.5 -6.5t-3.5 -9.5q-10 -12 -20 -16q26 -16 33 -51q5 -26 -2 -58q-6 -32 -20.5 -52.5t-31.5 -33.5
t-34.5 -19t-29.5 -8q-4 -1 -6.5 -1.5t-4.5 -0.5h-5q-13 -1 -28 0q-18 1 -35 5q-15 4 -31 11t-28 21zM181 262q-11 5 -24 0t-27 -18.5t-27.5 -35.5t-23.5 -50q-3 -9 -6 -19q-2 -8 -3.5 -18t-0.5 -19q0 -5 6 -17q2 -3 4.5 -6.5t6.5 -5.5q2 -2 4 -3l4 -2l5 -2q2 0 3 -0.5
t3 -0.5q18 -5 32 0t23 13q11 9 18 21q11 19 11 31t-4 19q-4 8 -13 11q-17 5 -27 -1t-15 -16q-6 -11 -8 -27q-11 8 -13.5 18.5t-0.5 21.5q2 12 8 26q9 22 29.5 33t42.5 9q2 13 1 23.5t-8 14.5zM146 15q-20 -4 -40 -4q-17 0 -38.5 3t-40.5 14q13 -11 31 -17q15 -5 37 -6t51 10
zM54 263q9 11 19 18.5t19 13t15.5 8t7.5 2.5q-15 -2 -26.5 -8.5t-19.5 -14.5q-9 -9 -15 -19zM196 146q1 6 0 10q-2 10 -8 15q-8 4 -17 2q-4 -1 -9 -3q8 1 15 -1q6 -2 11.5 -7t7.5 -16zM130 396q-2 12 -5 32.5t5 43.5q2 5 5 8q6 6 17 2q22 -8 47 -25.5t47 -39.5
q7 -5 14.5 -17t5.5 -32q-2 -15 -8.5 -17.5t-22.5 1.5q-5 1 -18 5.5t-28 9.5t-29 10t-19 7q-3 1 -5 3q-5 3 -6 9zM184 378q-2 1 -9 5t-14.5 11t-14 15.5t-9.5 19.5q0 -5 1 -9t1.5 -8.5t1.5 -8.5q2 -6 5 -8q2 -2 3 -2z" />
    <glyph glyph-name="oacute" unicode="&#xf3;" horiz-adv-x="308" 
d="M-5 27q-1 0 -1 1q-16 19 -19 44t0 48q3 26 12 54q15 46 35.5 75.5t44 47t48.5 24t48 6.5q14 0 26 -3q9 -2 24 -12t23 -33q0 -1 2 -7v-1q2 -7 2.5 -13.5t1.5 -11.5q0 -2 -0.5 -6.5t-3.5 -9.5q-10 -12 -20 -16q26 -16 33 -51q5 -26 -2 -58q-6 -32 -20.5 -52.5t-31.5 -33.5
t-34.5 -19t-29.5 -8q-4 -1 -6.5 -1.5t-4.5 -0.5h-5q-13 -1 -28 0q-18 1 -35 5q-15 4 -31 11t-28 21zM181 262q-11 5 -24 0t-27 -18.5t-27.5 -35.5t-23.5 -50q-3 -9 -6 -19q-2 -8 -3.5 -18t-0.5 -19q0 -5 6 -17q2 -3 4.5 -6.5t6.5 -5.5q2 -2 4 -3l4 -2l5 -2q2 0 3 -0.5
t3 -0.5q18 -5 32 0t23 13q11 9 18 21q11 19 11 31t-4 19q-4 8 -13 11q-17 5 -27 -1t-15 -16q-6 -11 -8 -27q-11 8 -13.5 18.5t-0.5 21.5q2 12 8 26q9 22 29.5 33t42.5 9q2 13 1 23.5t-8 14.5zM146 15q-20 -4 -40 -4q-17 0 -38.5 3t-40.5 14q13 -11 31 -17q15 -5 37 -6t51 10
zM54 263q9 11 19 18.5t19 13t15.5 8t7.5 2.5q-15 -2 -26.5 -8.5t-19.5 -14.5q-9 -9 -15 -19zM196 146q1 6 0 10q-2 10 -8 15q-8 4 -17 2q-4 -1 -9 -3q8 1 15 -1q6 -2 11.5 -7t7.5 -16zM240 396q-1 -4 -2.5 -5.5l-3.5 -3.5q-3 -2 -5 -3q-5 -2 -19 -7t-29 -10l-28.5 -9.5
t-17.5 -5.5q-16 -4 -22.5 -1.5t-8.5 17.5q-2 20 5.5 32t14.5 17q22 22 47 39.5t47 25.5q11 4 17 -2q3 -3 5 -8q8 -23 5 -43.5t-5 -32.5zM233 429q-3 -10 -9.5 -18.5t-13.5 -15t-13.5 -11t-9.5 -5.5l34 14q1 0 3 2q3 2 5 8q1 4 1.5 8.5t1.5 8.5t1 9z" />
    <glyph glyph-name="ocircumflex" unicode="&#xf4;" horiz-adv-x="308" 
d="M-5 27q-1 0 -1 1q-16 19 -19 44t0 48q3 26 12 54q15 46 35.5 75.5t44 47t48.5 24t48 6.5q14 0 26 -3q9 -2 24 -12t23 -33q0 -1 2 -7v-1q2 -7 2.5 -13.5t1.5 -11.5q0 -2 -0.5 -6.5t-3.5 -9.5q-10 -12 -20 -16q26 -16 33 -51q5 -26 -2 -58q-6 -32 -20.5 -52.5t-31.5 -33.5
t-34.5 -19t-29.5 -8q-4 -1 -6.5 -1.5t-4.5 -0.5h-5q-13 -1 -28 0q-18 1 -35 5q-15 4 -31 11t-28 21zM181 262q-11 5 -24 0t-27 -18.5t-27.5 -35.5t-23.5 -50q-3 -9 -6 -19q-2 -8 -3.5 -18t-0.5 -19q0 -5 6 -17q2 -3 4.5 -6.5t6.5 -5.5q2 -2 4 -3l4 -2l5 -2q2 0 3 -0.5
t3 -0.5q18 -5 32 0t23 13q11 9 18 21q11 19 11 31t-4 19q-4 8 -13 11q-17 5 -27 -1t-15 -16q-6 -11 -8 -27q-11 8 -13.5 18.5t-0.5 21.5q2 12 8 26q9 22 29.5 33t42.5 9q2 13 1 23.5t-8 14.5zM146 15q-20 -4 -40 -4q-17 0 -38.5 3t-40.5 14q13 -11 31 -17q15 -5 37 -6t51 10
zM54 263q9 11 19 18.5t19 13t15.5 8t7.5 2.5q-15 -2 -26.5 -8.5t-19.5 -14.5q-9 -9 -15 -19zM196 146q1 6 0 10q-2 10 -8 15q-8 4 -17 2q-4 -1 -9 -3q8 1 15 -1q6 -2 11.5 -7t7.5 -16zM189 384q-19 1 -40.5 3t-29.5 2q-17 1 -22.5 5t-2.5 19q3 20 14 29t19 12q6 3 18.5 9
t26.5 10.5t27 7t21 -0.5q15 -5 29.5 -24t31.5 -48q4 -8 8.5 -21.5t-3.5 -31.5q-5 -14 -12.5 -14t-21.5 8zM196 393q5 -4 12 -9.5t18 -13.5q-1 1 -6 6.5t-11 13.5t-10 19t-4 22q-1 -5 -2 -9t-1 -8.5v-8.5q-1 -3 0 -5l2 -4t2 -3z" />
    <glyph glyph-name="otilde" unicode="&#xf5;" horiz-adv-x="308" 
d="M-5 27q-1 0 -1 1q-16 19 -19 44t0 48q3 26 12 54q15 46 35.5 75.5t44 47t48.5 24t48 6.5q14 0 26 -3q9 -2 24 -12t23 -33q0 -1 2 -7v-1q2 -7 2.5 -13.5t1.5 -11.5q0 -2 -0.5 -6.5t-3.5 -9.5q-10 -12 -20 -16q26 -16 33 -51q5 -26 -2 -58q-6 -32 -20.5 -52.5t-31.5 -33.5
t-34.5 -19t-29.5 -8q-4 -1 -6.5 -1.5t-4.5 -0.5h-5q-13 -1 -28 0q-18 1 -35 5q-15 4 -31 11t-28 21zM181 262q-11 5 -24 0t-27 -18.5t-27.5 -35.5t-23.5 -50q-3 -9 -6 -19q-2 -8 -3.5 -18t-0.5 -19q0 -5 6 -17q2 -3 4.5 -6.5t6.5 -5.5q2 -2 4 -3l4 -2l5 -2q2 0 3 -0.5
t3 -0.5q18 -5 32 0t23 13q11 9 18 21q11 19 11 31t-4 19q-4 8 -13 11q-17 5 -27 -1t-15 -16q-6 -11 -8 -27q-11 8 -13.5 18.5t-0.5 21.5q2 12 8 26q9 22 29.5 33t42.5 9q2 13 1 23.5t-8 14.5zM146 15q-20 -4 -40 -4q-17 0 -38.5 3t-40.5 14q13 -11 31 -17q15 -5 37 -6t51 10
zM54 263q9 11 19 18.5t19 13t15.5 8t7.5 2.5q-15 -2 -26.5 -8.5t-19.5 -14.5q-9 -9 -15 -19zM196 146q1 6 0 10q-2 10 -8 15q-8 4 -17 2q-4 -1 -9 -3q8 1 15 -1q6 -2 11.5 -7t7.5 -16zM157 497q25 -5 37 -15t18 -21.5t10.5 -24t14.5 -23.5t29.5 -19.5t55.5 -11.5
q0 -13 -7 -23t-17.5 -16t-23 -8.5t-23.5 0.5q-23 0 -34.5 6.5t-18 17t-11.5 23.5t-15.5 26t-30 24t-55.5 18q0 12 7 22t18 16t23 8.5t23 0.5zM173 477q-17 10 -30 10q-6 0 -10 -1.5t-6 -3.5l-5 -5q9 3 21 3q5 0 10.5 -0.5t10.5 -1.5t9 -1zM235 355q17 -10 30 -10q11 0 16 5
q3 2 5 5q-9 -3 -21 -3h-11t-10 1t-9 2z" />
    <glyph glyph-name="odieresis" unicode="&#xf6;" horiz-adv-x="308" 
d="M-5 27q-1 0 -1 1q-16 19 -19 44t0 48q3 26 12 54q15 46 35.5 75.5t44 47t48.5 24t48 6.5q14 0 26 -3q9 -2 24 -12t23 -33q0 -1 2 -7v-1q2 -7 2.5 -13.5t1.5 -11.5q0 -2 -0.5 -6.5t-3.5 -9.5q-10 -12 -20 -16q26 -16 33 -51q5 -26 -2 -58q-6 -32 -20.5 -52.5t-31.5 -33.5
t-34.5 -19t-29.5 -8q-4 -1 -6.5 -1.5t-4.5 -0.5h-5q-13 -1 -28 0q-18 1 -35 5q-15 4 -31 11t-28 21zM181 262q-11 5 -24 0t-27 -18.5t-27.5 -35.5t-23.5 -50q-3 -9 -6 -19q-2 -8 -3.5 -18t-0.5 -19q0 -5 6 -17q2 -3 4.5 -6.5t6.5 -5.5q2 -2 4 -3l4 -2l5 -2q2 0 3 -0.5
t3 -0.5q18 -5 32 0t23 13q11 9 18 21q11 19 11 31t-4 19q-4 8 -13 11q-17 5 -27 -1t-15 -16q-6 -11 -8 -27q-11 8 -13.5 18.5t-0.5 21.5q2 12 8 26q9 22 29.5 33t42.5 9q2 13 1 23.5t-8 14.5zM146 15q-20 -4 -40 -4q-17 0 -38.5 3t-40.5 14q13 -11 31 -17q15 -5 37 -6t51 10
zM54 263q9 11 19 18.5t19 13t15.5 8t7.5 2.5q-15 -2 -26.5 -8.5t-19.5 -14.5q-9 -9 -15 -19zM196 146q1 6 0 10q-2 10 -8 15q-8 4 -17 2q-4 -1 -9 -3q8 1 15 -1q6 -2 11.5 -7t7.5 -16zM121 466q12 2 32.5 3.5t43.5 -6.5q4 -2 7 -5q6 -6 2 -17l-15 -34q-1 -3 -3 -7
q-3 -6 -7 -10q-6 -7 -18 -14t-32 -4q-18 2 -27 9.5t-12 15.5q-3 6 -1 13l2 8q3 9 6.5 18t8.5 20q1 2 3 4q5 5 10 6zM233 425q12 2 32.5 3.5t43.5 -6.5q4 -2 7 -5q6 -6 2 -17l-15 -34q-1 -3 -3 -7q-3 -6 -7 -10q-6 -7 -18 -14t-32 -4q-18 2 -27 9.5t-12 15.5q-3 6 -1 13l2 8
q3 9 6.5 18t8.5 20q1 2 3 4q5 5 10 6zM213 371q0 1 4.5 7t11 14t16 15t20.5 10q-5 -1 -9 -1q-4 -1 -8.5 -1t-8.5 -1q-6 -2 -8 -5q-2 -2 -2 -3zM101 412q0 1 4.5 7t11 14t16 15t20.5 10q-5 -1 -9 -1q-4 -1 -8.5 -1t-8.5 -1q-6 -2 -8 -5q-2 -2 -2 -3z" />
    <glyph glyph-name="ugrave" unicode="&#xf9;" 
d="M375 225q15 -7 12 -25.5t-15 -41.5q-6 -11 -21.5 -39t-38 -56t-52 -48t-63.5 -15q-12 2 -23 10q-9 7 -17 19t-10 34q-17 -25 -37 -42.5t-46 -20.5h-9q-39 2 -56 17t-22 33t-3 28q0 12 1.5 24.5t3.5 19.5q8 41 19 80t23 76l16 46l1 1q3 1 12.5 3.5t23 3t30 -1.5t34.5 -11
q-2 -6 -5 -14q-2 -7 -5.5 -15.5t-7.5 -19.5l-13 -34q-8 -22 -15 -43.5t-14 -44.5q-9 -29 -9.5 -44.5t3.5 -23.5q4 -9 12 -10q13 -1 28 17t28 43.5t24 52t17 42.5q1 4 2 7.5t3 8.5q6 18 14 39t18 44q15 5 32 7q14 2 32.5 -0.5t38.5 -11.5q-25 -56 -43 -102q-8 -20 -14.5 -39
t-10.5 -34.5t-5 -26.5t4 -14q2 -3 5 -3q2 0 6 2t10 9t14 19t17 26t17.5 28t16.5 25q4 8 10 12q5 4 12 6t15 -2zM39 17q20 -3 37 3t19 7q-2 0 -11.5 -2t-23 -2t-29.5 4.5t-31 16.5q4 -7 9 -12t12 -9t18 -6zM31 265q2 4 6.5 11.5t11.5 16t16 15t19 8.5q-7 -1 -13 -1
q-5 -1 -10.5 -1t-7.5 -1zM175 45q0 -10 5 -17q5 -6 14 -10t28 -2q-8 -1 -17 3q-8 2 -16 8.5t-14 17.5zM115 396q-2 12 -5 32.5t5 43.5q2 5 5 8q6 6 17 2q22 -8 47 -25.5t47 -39.5q7 -5 14.5 -17t5.5 -32q-2 -15 -8.5 -17.5t-22.5 1.5q-5 1 -18 5.5t-28 9.5t-29 10t-19 7
q-3 1 -5 3q-5 3 -6 9zM169 378q-2 1 -9 5t-14.5 11t-14 15.5t-9.5 19.5q0 -5 1 -9t1.5 -8.5t1.5 -8.5q2 -6 5 -8q2 -2 3 -2z" />
    <glyph glyph-name="uacute" unicode="&#xfa;" 
d="M375 225q15 -7 12 -25.5t-15 -41.5q-6 -11 -21.5 -39t-38 -56t-52 -48t-63.5 -15q-12 2 -23 10q-9 7 -17 19t-10 34q-17 -25 -37 -42.5t-46 -20.5h-9q-39 2 -56 17t-22 33t-3 28q0 12 1.5 24.5t3.5 19.5q8 41 19 80t23 76l16 46l1 1q3 1 12.5 3.5t23 3t30 -1.5t34.5 -11
q-2 -6 -5 -14q-2 -7 -5.5 -15.5t-7.5 -19.5l-13 -34q-8 -22 -15 -43.5t-14 -44.5q-9 -29 -9.5 -44.5t3.5 -23.5q4 -9 12 -10q13 -1 28 17t28 43.5t24 52t17 42.5q1 4 2 7.5t3 8.5q6 18 14 39t18 44q15 5 32 7q14 2 32.5 -0.5t38.5 -11.5q-25 -56 -43 -102q-8 -20 -14.5 -39
t-10.5 -34.5t-5 -26.5t4 -14q2 -3 5 -3q2 0 6 2t10 9t14 19t17 26t17.5 28t16.5 25q4 8 10 12q5 4 12 6t15 -2zM39 17q20 -3 37 3t19 7q-2 0 -11.5 -2t-23 -2t-29.5 4.5t-31 16.5q4 -7 9 -12t12 -9t18 -6zM31 265q2 4 6.5 11.5t11.5 16t16 15t19 8.5q-7 -1 -13 -1
q-5 -1 -10.5 -1t-7.5 -1zM175 45q0 -10 5 -17q5 -6 14 -10t28 -2q-8 -1 -17 3q-8 2 -16 8.5t-14 17.5zM260 396q-1 -4 -2.5 -5.5l-3.5 -3.5q-3 -2 -5 -3q-5 -2 -19 -7t-29 -10l-28.5 -9.5t-17.5 -5.5q-16 -4 -22.5 -1.5t-8.5 17.5q-2 20 5.5 32t14.5 17q22 22 47 39.5
t47 25.5q11 4 17 -2q3 -3 5 -8q8 -23 5 -43.5t-5 -32.5zM253 429q-3 -10 -9.5 -18.5t-13.5 -15t-13.5 -11t-9.5 -5.5l34 14q1 0 3 2q3 2 5 8q1 4 1.5 8.5t1.5 8.5t1 9z" />
    <glyph glyph-name="ucircumflex" unicode="&#xfb;" 
d="M375 225q15 -7 12 -25.5t-15 -41.5q-6 -11 -21.5 -39t-38 -56t-52 -48t-63.5 -15q-12 2 -23 10q-9 7 -17 19t-10 34q-17 -25 -37 -42.5t-46 -20.5h-9q-39 2 -56 17t-22 33t-3 28q0 12 1.5 24.5t3.5 19.5q8 41 19 80t23 76l16 46l1 1q3 1 12.5 3.5t23 3t30 -1.5t34.5 -11
q-2 -6 -5 -14q-2 -7 -5.5 -15.5t-7.5 -19.5l-13 -34q-8 -22 -15 -43.5t-14 -44.5q-9 -29 -9.5 -44.5t3.5 -23.5q4 -9 12 -10q13 -1 28 17t28 43.5t24 52t17 42.5q1 4 2 7.5t3 8.5q6 18 14 39t18 44q15 5 32 7q14 2 32.5 -0.5t38.5 -11.5q-25 -56 -43 -102q-8 -20 -14.5 -39
t-10.5 -34.5t-5 -26.5t4 -14q2 -3 5 -3q2 0 6 2t10 9t14 19t17 26t17.5 28t16.5 25q4 8 10 12q5 4 12 6t15 -2zM39 17q20 -3 37 3t19 7q-2 0 -11.5 -2t-23 -2t-29.5 4.5t-31 16.5q4 -7 9 -12t12 -9t18 -6zM31 265q2 4 6.5 11.5t11.5 16t16 15t19 8.5q-7 -1 -13 -1
q-5 -1 -10.5 -1t-7.5 -1zM175 45q0 -10 5 -17q5 -6 14 -10t28 -2q-8 -1 -17 3q-8 2 -16 8.5t-14 17.5zM192 384q-19 1 -40.5 3t-29.5 2q-17 1 -22.5 5t-2.5 19q3 20 14 29t19 12q6 3 18.5 9t26.5 10.5t27 7t21 -0.5q15 -5 29.5 -24t31.5 -48q4 -8 8.5 -21.5t-3.5 -31.5
q-5 -14 -12.5 -14t-21.5 8zM199 393q5 -4 12 -9.5t18 -13.5q-1 1 -6 6.5t-11 13.5t-10 19t-4 22q-1 -5 -2 -9t-1 -8.5v-8.5q-1 -3 0 -5l2 -4t2 -3z" />
    <glyph glyph-name="udieresis" unicode="&#xfc;" 
d="M375 225q15 -7 12 -25.5t-15 -41.5q-6 -11 -21.5 -39t-38 -56t-52 -48t-63.5 -15q-12 2 -23 10q-9 7 -17 19t-10 34q-17 -25 -37 -42.5t-46 -20.5h-9q-39 2 -56 17t-22 33t-3 28q0 12 1.5 24.5t3.5 19.5q8 41 19 80t23 76l16 46l1 1q3 1 12.5 3.5t23 3t30 -1.5t34.5 -11
q-2 -6 -5 -14q-2 -7 -5.5 -15.5t-7.5 -19.5l-13 -34q-8 -22 -15 -43.5t-14 -44.5q-9 -29 -9.5 -44.5t3.5 -23.5q4 -9 12 -10q13 -1 28 17t28 43.5t24 52t17 42.5q1 4 2 7.5t3 8.5q6 18 14 39t18 44q15 5 32 7q14 2 32.5 -0.5t38.5 -11.5q-25 -56 -43 -102q-8 -20 -14.5 -39
t-10.5 -34.5t-5 -26.5t4 -14q2 -3 5 -3q2 0 6 2t10 9t14 19t17 26t17.5 28t16.5 25q4 8 10 12q5 4 12 6t15 -2zM39 17q20 -3 37 3t19 7q-2 0 -11.5 -2t-23 -2t-29.5 4.5t-31 16.5q4 -7 9 -12t12 -9t18 -6zM31 265q2 4 6.5 11.5t11.5 16t16 15t19 8.5q-7 -1 -13 -1
q-5 -1 -10.5 -1t-7.5 -1zM175 45q0 -10 5 -17q5 -6 14 -10t28 -2q-8 -1 -17 3q-8 2 -16 8.5t-14 17.5zM129 489q12 2 32.5 3.5t43.5 -6.5q4 -2 7 -5q6 -6 2 -17l-15 -34q-1 -3 -3 -7q-3 -6 -7 -10q-6 -7 -18 -14t-32 -4q-18 2 -27 9.5t-12 15.5q-3 6 -1 13l2 8q3 9 6.5 18
t8.5 20q1 2 3 4q5 5 10 6zM241 448q12 2 32.5 3.5t43.5 -6.5q4 -2 7 -5q6 -6 2 -17l-15 -34q-1 -3 -3 -7q-3 -6 -7 -10q-6 -7 -18 -14t-32 -4q-18 2 -27 9.5t-12 15.5q-3 6 -1 13l2 8q3 9 6.5 18t8.5 20q1 2 3 4q5 5 10 6zM221 394q0 1 4.5 7t11 14t16 15t20.5 10
q-5 -1 -9 -1q-4 -1 -8.5 -1t-8.5 -1q-6 -2 -8 -5q-2 -2 -2 -3zM109 435q0 1 4.5 7t11 14t16 15t20.5 10q-5 -1 -9 -1q-4 -1 -8.5 -1t-8.5 -1q-6 -2 -8 -5q-2 -2 -2 -3z" />
    <glyph glyph-name="yacute" unicode="&#xfd;" 
d="M183 -68q35 -14 65 -21t56 7q-4 -23 -15 -41q-10 -15 -28.5 -26.5t-51.5 -7.5q-31 4 -61 18q-13 -20 -28.5 -37.5t-33.5 -29.5t-39.5 -18t-46.5 -4q-29 1 -52 12q-20 9 -37 29t-18 56q1 28 15 50q12 19 38.5 35t76.5 16q21 0 40 -2.5t37 -7.5q6 18 11 35.5t9 34.5
q-12 -12 -26 -20t-29 -10h-9q-39 2 -56 17t-23 33q-2 8 -2.5 16t-0.5 12q0 12 1.5 24.5t3.5 19.5q8 41 19 80t24 76l15 46l1 1q3 1 12.5 3.5t23 3t30 -1.5t34.5 -11q-2 -6 -5 -14q-2 -7 -5.5 -15.5t-7.5 -19.5l-12 -34q-8 -22 -15 -43.5t-14 -44.5q-10 -29 -10 -44.5
t3 -23.5q4 -9 12 -10q14 -1 28.5 17t28 43.5t24 52t16.5 42.5q7 21 16.5 45.5t21.5 53.5q14 5 31 7q14 2 32.5 -0.5t38.5 -11.5q-25 -56 -43 -102q-8 -20 -14.5 -39t-10.5 -34.5t-4.5 -26.5t3.5 -14q0 -1 1 -2t5 -1l1 5l2 -2l1 -2q6 4 12 10q6 7 14 19t16.5 26t17.5 28
t16 25q4 6 9 10t10 6.5t13 1.5h6.5t8.5 -2q14 -7 11.5 -25.5t-15.5 -41.5q-6 -10 -18.5 -33.5t-31.5 -49.5t-43.5 -47.5t-53.5 -27.5v3q-12 -4 -29 -4q-5 -16 -10 -33t-12 -34zM72 -100q-25 13 -46.5 20t-44.5 -1h-1q-13 -4 -19.5 -10.5t-9.5 -13.5t-3 -12.5v-7.5t1 -3
q1 -5 4 -9q2 -4 6.5 -8t12.5 -6q15 -5 40 1q8 2 25.5 12.5t34.5 37.5zM40 17q20 -3 36.5 3t18.5 7q-2 0 -11.5 -2t-23 -2t-29.5 4.5t-31 16.5q3 -7 9 -12q5 -5 12.5 -9t18.5 -6zM0 -213q16 -2 28 0.5t21 5.5q10 4 18 9q-15 -6 -34 -9q-17 -2 -39.5 0t-50.5 14q5 -4 13 -8
q7 -3 17.5 -6.5t26.5 -5.5zM28 265q2 4 6.5 11.5t11.5 16t16 15t19 8.5q-7 -1 -13 -1q-5 -1 -10.5 -1t-7.5 -1zM188 -133q8 -4 17 -7q8 -2 18 -2.5t22 4.5q-10 -1 -20 0q-17 0 -37 5zM262 396q-1 -4 -2.5 -5.5l-3.5 -3.5q-3 -2 -5 -3q-5 -2 -19 -7t-29 -10l-28.5 -9.5
t-17.5 -5.5q-16 -4 -22.5 -1.5t-8.5 17.5q-2 20 5.5 32t14.5 17q22 22 47 39.5t47 25.5q11 4 17 -2q3 -3 5 -8q8 -23 5 -43.5t-5 -32.5zM255 429q-3 -10 -9.5 -18.5t-13.5 -15t-13.5 -11t-9.5 -5.5l34 14q1 0 3 2q3 2 5 8q1 4 1.5 8.5t1.5 8.5t1 9z" />
    <glyph glyph-name="ydieresis" unicode="&#xff;" 
d="M183 -68q35 -14 65 -21t56 7q-4 -23 -15 -41q-10 -15 -28.5 -26.5t-51.5 -7.5q-31 4 -61 18q-13 -20 -28.5 -37.5t-33.5 -29.5t-39.5 -18t-46.5 -4q-29 1 -52 12q-20 9 -37 29t-18 56q1 28 15 50q12 19 38.5 35t76.5 16q21 0 40 -2.5t37 -7.5q6 18 11 35.5t9 34.5
q-12 -12 -26 -20t-29 -10h-9q-39 2 -56 17t-23 33q-2 8 -2.5 16t-0.5 12q0 12 1.5 24.5t3.5 19.5q8 41 19 80t24 76l15 46l1 1q3 1 12.5 3.5t23 3t30 -1.5t34.5 -11q-2 -6 -5 -14q-2 -7 -5.5 -15.5t-7.5 -19.5l-12 -34q-8 -22 -15 -43.5t-14 -44.5q-10 -29 -10 -44.5
t3 -23.5q4 -9 12 -10q14 -1 28.5 17t28 43.5t24 52t16.5 42.5q7 21 16.5 45.5t21.5 53.5q14 5 31 7q14 2 32.5 -0.5t38.5 -11.5q-25 -56 -43 -102q-8 -20 -14.5 -39t-10.5 -34.5t-4.5 -26.5t3.5 -14q0 -1 1 -2t5 -1l1 5l2 -2l1 -2q6 4 12 10q6 7 14 19t16.5 26t17.5 28
t16 25q4 6 9 10t10 6.5t13 1.5h6.5t8.5 -2q14 -7 11.5 -25.5t-15.5 -41.5q-6 -10 -18.5 -33.5t-31.5 -49.5t-43.5 -47.5t-53.5 -27.5v3q-12 -4 -29 -4q-5 -16 -10 -33t-12 -34zM72 -100q-25 13 -46.5 20t-44.5 -1h-1q-13 -4 -19.5 -10.5t-9.5 -13.5t-3 -12.5v-7.5t1 -3
q1 -5 4 -9q2 -4 6.5 -8t12.5 -6q15 -5 40 1q8 2 25.5 12.5t34.5 37.5zM40 17q20 -3 36.5 3t18.5 7q-2 0 -11.5 -2t-23 -2t-29.5 4.5t-31 16.5q3 -7 9 -12q5 -5 12.5 -9t18.5 -6zM0 -213q16 -2 28 0.5t21 5.5q10 4 18 9q-15 -6 -34 -9q-17 -2 -39.5 0t-50.5 14q5 -4 13 -8
q7 -3 17.5 -6.5t26.5 -5.5zM28 265q2 4 6.5 11.5t11.5 16t16 15t19 8.5q-7 -1 -13 -1q-5 -1 -10.5 -1t-7.5 -1zM188 -133q8 -4 17 -7q8 -2 18 -2.5t22 4.5q-10 -1 -20 0q-17 0 -37 5zM130 483q12 2 32.5 3.5t43.5 -6.5q4 -2 7 -5q6 -6 2 -17l-15 -34q-1 -3 -3 -7
q-3 -6 -7 -10q-6 -7 -18 -14t-32 -4q-18 2 -27 9.5t-12 15.5q-3 6 -1 13l2 8q3 9 6.5 18t8.5 20q1 2 3 4q5 5 10 6zM242 442q12 2 32.5 3.5t43.5 -6.5q4 -2 7 -5q6 -6 2 -17l-15 -34q-1 -3 -3 -7q-3 -6 -7 -10q-6 -7 -18 -14t-32 -4q-18 2 -27 9.5t-12 15.5q-3 6 -1 13l2 8
q3 9 6.5 18t8.5 20q1 2 3 4q5 5 10 6zM222 388q0 1 4.5 7t11 14t16 15t20.5 10q-5 -1 -9 -1q-4 -1 -8.5 -1t-8.5 -1q-6 -2 -8 -5q-2 -2 -2 -3zM110 429q0 1 4.5 7t11 14t16 15t20.5 10q-5 -1 -9 -1q-4 -1 -8.5 -1t-8.5 -1q-6 -2 -8 -5q-2 -2 -2 -3z" />
    <glyph glyph-name="Lslash" unicode="&#x141;" horiz-adv-x="577" 
d="M936 -72q9 -22 9 -41q0 -17 -8.5 -35t-35.5 -31q-15 -7 -45.5 -12.5t-71.5 -4.5t-90.5 9.5t-103 28t-110 52t-110.5 81.5l-18 -18t-19 -17l-12 -10q-26 -19 -66.5 -35.5t-93.5 -10.5q-43 7 -68.5 24t-46.5 50q-11 17 -14 36.5t-1 35.5q2 18 7 37q10 29 29 51
q17 19 45.5 34.5t73.5 15.5q28 0 51 -7t43 -18.5t37.5 -26t34.5 -29.5q8 11 14.5 22t13.5 23q5 8 15.5 28t19.5 40q-23 2 -38.5 4t-15.5 4q-4 3 -8 8t-8 12.5t-9 21.5t-5.5 24t0.5 18q1 9 3 16l117 -12q2 4 2.5 7.5t1.5 6.5q15 63 16.5 122.5t-7.5 99.5q-5 18 -11.5 29.5
t-12.5 17.5q-7 7 -15 11q7 3 21.5 7t32 3.5t35.5 -9.5t32 -31q18 -27 23.5 -62t3 -72t-11 -73t-18.5 -66l31 -3q4 -3 8 -8q6 -8 16 -35q4 -14 4.5 -24.5t-0.5 -18.5q-1 -9 -3 -15q-6 2 -32 5t-59 5q-15 -35 -37.5 -76.5t-52.5 -83.5q46 -33 105 -65.5t126.5 -51.5t140 -19.5
t146.5 31.5zM256 -3q28 18 51 39q-10 9 -24 21t-29.5 22.5t-31 18.5t-29.5 9q-17 2 -32 -2q-13 -3 -25.5 -11t-18.5 -25q-5 -15 -2 -27.5t9 -21.5t13 -15t10 -8q9 -6 21 -9q42 -12 88 9zM64 -26q13 -21 33 -37q17 -14 43.5 -23.5t64.5 -6.5q-29 2 -54 13t-45 23
q-23 14 -42 31zM683 -164q35 -8 70 -12q30 -3 65.5 -2t66.5 14q-33 -5 -68 -7q-30 -2 -66 -1t-68 8zM550 401q8 30 7.5 53t-5.5 39q-5 18 -14 33q7 -25 9.5 -47.5t3.5 -39.5q1 -20 -1 -38zM563 273q-8 2 -18 4q-8 2 -18 3.5t-20 3.5q5 -2 14.5 -5t20 -7.5t20 -11t15.5 -14.5
l-6 12q-2 5 -4 9t-4 6zM371 219q8 -2 18 -4q8 -2 17.5 -3.5t20.5 -3.5q-5 1 -15 4t-20.5 8t-20 11.5t-14.5 14.5q2 -7 5 -12q2 -5 4.5 -9t4.5 -6z" />
    <glyph glyph-name="lslash" unicode="&#x142;" horiz-adv-x="162" 
d="M199 225q15 -7 12.5 -25.5t-15.5 -41.5q-5 -9 -16 -29.5t-27 -43.5t-37 -44.5t-45 -32.5q-12 -5 -24 -7.5t-26 -0.5q-11 3 -21 9q-8 5 -16 15.5t-11 29.5q-3 13 -2.5 30.5t6.5 40.5q3 14 8 34q5 17 12 42.5t20 59.5q-20 2 -31.5 3.5t-12.5 3.5q-4 3 -8 8t-8 12.5t-9 21.5
t-5.5 24t0.5 18q1 9 3 16l109 -11l2 4q14 34 26 62t22 48q11 24 21 42l10 5q5 2 14.5 3.5t23.5 1.5t24 -3t17 -6q8 -4 13 -8q-11 -19 -22 -44q-10 -21 -23.5 -50t-27.5 -64q0 -1 -1 -1l32 -3q4 -3 8 -8q6 -8 16 -35q4 -14 4.5 -24.5t-0.5 -18.5q-1 -9 -3 -15q-6 2 -33 5
t-62 6l-9 -25q-14 -35 -25 -68.5t-10 -49.5q2 -7 4 -8q1 -3 5 -3q3 0 7 2t10 9t14 19t16.5 26t17.5 28t16 25q4 8 10 12q5 4 12 6t15 -2zM133 500q-5 -8 -10 -17q-5 -8 -9.5 -17.5t-9.5 -18.5q1 3 7 11t14 18t18 18t20 11q-7 -1 -13 -2q-5 -1 -10 -1.5t-7 -1.5zM1 45
q0 -10 5 -17q5 -6 14 -10t28 -2q-8 -1 -17 3q-8 2 -16 8.5t-14 17.5zM175 333q-8 2 -18 4q-8 2 -18 3.5t-20 3.5q5 -2 14.5 -5t20 -7.5t20 -11t15.5 -14.5l-6 12q-2 5 -4 9t-4 6zM-17 279q8 -2 18 -4q8 -2 17.5 -3.5t20.5 -3.5q-5 1 -15 4t-20.5 8t-20 11.5t-14.5 14.5
q2 -7 5 -12q2 -5 4.5 -9t4.5 -6z" />
    <glyph glyph-name="Zcaron" unicode="&#x17d;" horiz-adv-x="460" 
d="M130 -64q-12 0 -21 0.5t-14 1.5q-21 4 -34.5 13t-21.5 18t-11.5 16.5t-4.5 9.5q-5 17 -2 42t20 59q1 2 2 3.5t2 3.5q0 1 1 1q3 7 7 13.5t9 13.5q18 28 41.5 57t49.5 59q-8 8 -16 17.5t-16 25.5l-0.5 6t2 15t9 20t19.5 22l1 1q11 -18 23 -32.5t25 -25.5q58 60 120 114.5
t115 98.5q-42 -2 -81.5 -7.5t-72 -13t-56 -16.5t-34.5 -18q-11 18 -13 36q-2 16 4.5 35.5t32.5 39.5q28 22 65.5 32.5t80.5 12t88.5 -3.5t89.5 -15l9 -3t12.5 -7.5t12 -13.5t7.5 -21t-2 -24.5t-10.5 -21t-15 -18t-16.5 -15.5q-56 -45 -124 -102.5t-133 -119.5q14 -5 31 -9
t35.5 -5t36.5 2t35 11l-13 -21q-17 -25 -36.5 -38t-50.5 -15q-26 -2 -49 5t-42 18l-18 -20q-9 -9 -20 -24q-6 -6 -17 -20.5t-23 -33.5t-22 -40.5t-12 -42.5q42 6 82.5 9.5t77.5 3.5h16t16 -1h1q2 0 4 -0.5t4 -0.5q52 -5 75 -23t30 -38q6 -14 7 -37.5t-15 -49.5
q-5 -7 -10 -12t-11 -7.5t-14 0.5q4 7 4 15q0 7 -4 16t-16 20q-4 4 -9 5q-21 11 -52.5 17t-62 8.5t-55.5 2t-34 -1.5q-3 -1 -8 -1q-2 0 -5 -0.5t-5 -0.5zM198 506q6 13 15 24t17 19q10 10 19 17q-17 -5 -27.5 -15t-15.5 -20q-6 -11 -8 -25zM369 -9q20 -14 30.5 -31t12.5 -21
q-2 16 -9 26t-15 16q-9 7 -19 10zM294 187q9 -3 20 -3q9 0 21 2.5t26 10.5q-2 -1 -20 -4.5t-47 -5.5zM481 721q19 -1 40.5 -3t29.5 -2q17 -1 22.5 -5t2.5 -19q-3 -20 -14 -29t-19 -12q-6 -3 -18.5 -9t-26.5 -10.5t-27.5 -7t-20.5 0.5q-15 5 -29.5 24t-31.5 48
q-4 8 -8.5 21.5t3.5 31.5q5 14 12.5 14t21.5 -8zM474 712q-5 4 -12.5 9.5t-17.5 13.5q1 -1 6 -6.5t10.5 -14t10 -19t4.5 -21.5q0 5 1 9q2 10 2 17q0 5 -2 9q-1 2 -2 3z" />
    <glyph glyph-name="zcaron" unicode="&#x17e;" horiz-adv-x="254" 
d="M177 -69q35 -14 64.5 -20.5t55.5 7.5q-4 -23 -15 -41q-10 -15 -28.5 -26.5t-51.5 -7.5q-32 4 -61 18q-13 -20 -28.5 -37.5t-34 -29.5t-39.5 -18t-46 -4q-29 1 -53 12q-20 9 -37 29t-18 56q1 28 15 50q12 19 38.5 35t76.5 16q41 0 76 -9q16 39 18 65t-3 42q-5 18 -18 28
q-16 5 -21 14q-3 4 -3 9q-3 12 6 31.5t21 39.5q14 23 32 48q-10 0 -20 3.5t-15 8.5q-11 -22 -20.5 -38t-14.5 -24q-13 -23 -27.5 -35t-28.5 -2q-8 5 -9.5 12t-0.5 13q1 7 5 15q5 11 12 24t13.5 26.5t13 26.5t10.5 22q-10 16 -12 35.5t3 36.5t17 29t30 12q20 0 27.5 -18
t8.5 -38q0 -10 -0.5 -18t-1.5 -13q0 -2 0.5 -6t2.5 -8q5 -6 11.5 -6.5t9.5 1.5q9 5 13 12l5 5t13 3q28 -5 46 -13q16 -7 24.5 -18t-5.5 -28q-24 -23 -42 -44q-16 -18 -28 -37.5t-8 -33.5q2 -1 4 -3l9 -9q7 -8 14.5 -20t12.5 -30.5t5 -43t-7 -55.5q-6 -24 -16 -51zM65 -100
q-25 13 -47 20t-45 -1h-1q-12 -4 -18.5 -10.5t-9.5 -13.5t-3 -12.5v-7.5v-3q0 -5 4 -9q2 -4 7 -8t13 -6q14 -5 40 1q8 2 25.5 12.5t33.5 37.5h1zM-9 -213q16 -2 28 0.5t21 5.5q10 4 18 9q-15 -6 -34 -9q-17 -2 -39.5 0t-50.5 14q5 -4 13 -8q7 -3 17.5 -6.5t26.5 -5.5z
M59 302q-2 11 -3 22q-1 10 0 22.5t4 26.5q-3 -4 -5 -9t-3.5 -11.5t-1.5 -14.5q-1 -9 1 -19t8 -17zM179 -133q8 -4 17 -7q8 -2 18 -2.5t22 4.5q-10 -1 -20 0q-17 0 -37 5zM213 281q-5 8 -12.5 12t-15.5 5q-9 1 -18 0q12 -3 20.5 -6t14.5 -5q6 -3 11 -6zM208 445
q19 -1 40.5 -3t29.5 -2q17 -1 22.5 -5t2.5 -19q-3 -20 -14 -29t-19 -12q-6 -3 -18.5 -9t-26.5 -10.5t-27.5 -7t-20.5 0.5q-15 5 -29.5 24t-31.5 48q-4 8 -8.5 21.5t3.5 31.5q5 14 12.5 14t21.5 -8zM201 436q-5 4 -12.5 9.5t-17.5 13.5q1 -1 6 -6.5t10.5 -14t10 -19
t4.5 -21.5q0 5 1 9q2 10 2 17q0 5 -2 9q-1 2 -2 3z" />
    <glyph glyph-name="Scaron" unicode="&#x160;" horiz-adv-x="438" 
d="M134 485q0 1 8.5 16.5t26.5 34t47.5 36.5t72.5 26q9 2 17 2.5t16 1.5q9 0 26 -2t36 -10.5t37 -24.5t30 -43q12 -30 13.5 -56.5t1.5 -31.5v-1q-2 -25 -8.5 -47t-20.5 -39q-20 -26 -40 -33t-36 -5q-18 2 -35 12q8 13 19 44t16 75q3 28 0 46.5t-9.5 29.5t-15.5 15.5t-18 6.5
q-18 1 -33 -3q-2 0 -8 -2q-20 -8 -32 -21.5t-17 -20.5q-13 -21 -17 -35q-3 -9 -4 -16q-6 -26 -5 -52q1 -23 7.5 -50.5t26.5 -52.5q20 -26 48.5 -51t51 -54.5t32 -65.5t-7.5 -84q-8 -20 -23.5 -39.5t-40.5 -35t-60 -24.5t-81 -9q-42 0 -70 10t-45.5 25t-26.5 33t-12.5 34.5
t-3.5 28.5t1 16l3 14q3 14 7.5 23.5t6.5 12.5q11 20 23 30.5t19 15.5h1q13 8 33 11.5t43 -11.5q8 -6 12 -11t6 -11t-1 -14q-5 3 -11 4q-5 1 -13 -0.5t-16 -7.5t-18 -22t-9 -35q1 -5 4 -13.5t11 -17t22 -15t38 -7.5h13t18.5 0.5t18 1t11.5 1.5q11 4 24 11q20 13 26 32t7 30v1
q0 3 -1.5 12.5t-9 25t-24.5 36.5t-47 45q-37 29 -54 62.5t-24 61.5q-8 33 -6 64q2 29 8.5 50.5t14.5 35.5zM438 386q-17 -28 -32.5 -37.5t-18.5 -10.5q14 -2 23.5 5t15.5 17q7 11 12 26zM43 130q14 12 31.5 19.5t20.5 9.5q-13 2 -22.5 -2.5t-16.5 -10.5q-8 -7 -13 -16z
M386 722q19 -1 40.5 -3t29.5 -2q17 -1 22.5 -5t2.5 -19q-3 -20 -14 -29t-19 -12q-6 -3 -18.5 -9t-26.5 -10.5t-27.5 -7t-20.5 0.5q-15 5 -29.5 24t-31.5 48q-4 8 -8.5 21.5t3.5 31.5q5 14 12.5 14t21.5 -8zM379 713q-5 4 -12.5 9.5t-17.5 13.5q1 -1 6 -6.5t10.5 -14t10 -19
t4.5 -21.5q0 5 1 9q2 10 2 17q0 5 -2 9q-1 2 -2 3z" />
    <glyph glyph-name="scaron" unicode="&#x161;" horiz-adv-x="254" 
d="M186 325q-11 -20 -8 -42.5t8.5 -49.5t9 -60t-5.5 -73q-10 -42 -30.5 -63.5t-42.5 -29.5q-26 -11 -54 -9q-41 1 -62.5 17t-30.5 36q-11 23 -11 51q0 27 6 46.5t16.5 33t23.5 20t27 8.5l35 70l15 30t13 24q7 11 13 21q23 -2 38 -7t24 -10q11 -6 16 -13zM71 91
q18 5 25.5 21.5t9 36.5t-1 38.5t-4.5 27.5l-15 -25q4 -5 5.5 -9.5t3.5 -8.5l2 -8q-12 -1 -23 -5q-9 -4 -18 -12t-12 -23q-6 -20 6 -30q3 -3 7 -3.5t7 -0.5q4 0 8 1zM-7 47q11 -13 27 -22q14 -8 34 -11.5t49 4.5q-3 0 -14 -1t-26.5 1.5t-33.5 8.5t-36 20zM119 341
q20 -5 34 -10t16 -7q-6 6 -14.5 9.5t-16.5 5.5q-10 2 -19 2zM186 467q19 -1 40.5 -3t29.5 -2q17 -1 22.5 -5t2.5 -19q-3 -20 -14 -29t-19 -12q-6 -3 -18.5 -9t-26.5 -10.5t-27.5 -7t-20.5 0.5q-15 5 -29.5 24t-31.5 48q-4 8 -8.5 21.5t3.5 31.5q5 14 12.5 14t21.5 -8z
M179 458q-5 4 -12.5 9.5t-17.5 13.5q1 -1 6 -6.5t10.5 -14t10 -19t4.5 -21.5q0 5 1 9q2 10 2 17q0 5 -2 9q-1 2 -2 3z" />
    <glyph glyph-name="Ydieresis" unicode="&#x178;" horiz-adv-x="910" 
d="M550 -296q-44 -20 -90 -25.5t-86.5 -3t-72.5 9t-49 11.5q-29 9 -61 23t-61 33.5t-52 45.5t-34 58q-11 30 -6 50.5t16 32.5q12 14 31 22q4 -9 14.5 -25t27 -35t39.5 -39t53 -38q68 -38 125 -46.5t99 -3.5q49 5 90 26q35 17 65 50.5t55 75.5t45 87.5t34.5 87.5t24 75.5
t14.5 50.5q-32 -62 -69.5 -122t-81.5 -108q-36 -39 -76 -54t-69 -15q-22 0 -38 4t-26 9l-7 3q-2 1 -3 2q-1 0 -1 1q-15 10 -25.5 28t-11.5 47q-2 49 17 104t46 108.5t56 102.5t49 87q6 12 14 27.5t15 29.5t10.5 24.5t0.5 13.5q-2 3 -9.5 2t-17.5 -3t-20 -5.5t-18 -6.5
q-39 -14 -70.5 -33t-55 -38.5t-38 -37t-20.5 -27.5q-17 9 -27 25q-9 14 -12 34.5t10 50.5q10 25 31.5 44.5t48 34t56.5 24.5t57 16q9 2 28.5 4t41 -1t42.5 -13t34 -32q15 -27 15.5 -54t-6.5 -52.5t-18 -49t-20 -42.5v1q-14 -33 -31.5 -68t-34.5 -70t-32 -70.5t-24 -68.5
q-7 -26 -4 -39.5t8 -19.5q6 -7 16 -8q26 -2 56 21t61 60.5t61.5 84.5t57.5 94.5t49 90.5t36 72q7 37 12 67t8 52q4 26 5 46q5 2 13 1q6 -1 15.5 -3.5t20.5 -10.5t18.5 -16t12.5 -14q5 -7 8 -13q-8 -61 -20 -127q-11 -57 -28.5 -127.5t-42.5 -142.5q-12 -41 -28 -84
q-14 -38 -32.5 -83t-42.5 -90q-3 -6 -7 -13q-4 -6 -9 -14.5t-12 -19.5q-11 -16 -21.5 -30t-21.5 -26l-9 -10q-48 -48 -111 -77zM56 -130q3 -16 11 -32q7 -14 19 -29t32 -27q-12 13 -23 27q-10 12 -20.5 28t-18.5 33zM300 418q0 27 8 49t10 26q-13 -12 -17 -25.5t-4 -24.5
q0 -13 3 -25zM389 18q-1 -13 3 -24q3 -10 11 -19t24 -13q-8 5 -15 13q-6 7 -12.5 17.5t-10.5 25.5zM673 756q12 2 32.5 3.5t43.5 -6.5q4 -2 7 -5q6 -6 2 -17l-15 -34q-1 -3 -3 -7q-3 -6 -7 -10q-6 -7 -18 -14t-32 -4q-18 2 -27 9.5t-12 15.5q-3 6 -1 13l2 8q3 9 6.5 18
t8.5 20q1 2 3 4q5 5 10 6zM785 715q12 2 32.5 3.5t43.5 -6.5q4 -2 7 -5q6 -6 2 -17l-15 -34q-1 -3 -3 -7q-3 -6 -7 -10q-6 -7 -18 -14t-32 -4q-18 2 -27 9.5t-12 15.5q-3 6 -1 13l2 8q3 9 6.5 18t8.5 20q1 2 3 4q5 5 10 6zM765 661q0 1 4.5 7t11 14t16 15t20.5 10
q-5 -1 -9 -1q-4 -1 -8.5 -1t-8.5 -1q-6 -2 -8 -5q-2 -2 -2 -3zM653 702q0 1 4.5 7t11 14t16 15t20.5 10q-5 -1 -9 -1q-4 -1 -8.5 -1t-8.5 -1q-6 -2 -8 -5q-2 -2 -2 -3z" />
    <glyph glyph-name="oe" unicode="&#x153;" horiz-adv-x="497" 
d="M535 225q15 -7 12 -25.5t-16 -41.5q-4 -7 -12 -21.5t-19 -33.5q-8 -11 -20.5 -27.5t-30.5 -32.5t-41 -30t-51 -20l-22 -3q-14 -2 -29 0q-18 1 -35 5q-15 4 -31 11t-28 21l-1 1q-1 0 -1 0.5t-1 0.5q-20 -18 -41 -26t-35 -11q-4 -1 -6.5 -1.5t-4.5 -0.5h-5q-13 -1 -28 0
q-18 1 -35 5q-15 4 -31 11t-28 21q-1 0 -1 1q-16 19 -19 44t0 48q3 26 12 54q15 46 35.5 75.5t44 47t48.5 24t48 6.5q14 0 26 -3q9 -2 24 -12t23 -33q0 -1 2 -7v-1l3 -19q30 44 67 59.5t72 15.5q15 0 26 -3q10 -2 24.5 -12t22.5 -33l1 -1q0 -2 1.5 -7.5t2.5 -15.5
q1 -5 1 -16q0 -13 -5 -30l-1 -2v-2q-2 -6 -4 -9v-1q-4 -9 -11.5 -21.5t-19.5 -24t-29 -19.5t-40 -9q-14 -1 -22.5 1.5t-10.5 2.5q-14 5 -26 14q-2 -8 -3.5 -18t0.5 -19q0 -2 1 -6.5t4 -10.5q2 -3 5 -6.5t7 -5.5q3 -4 8 -5l4 -2q16 -5 31.5 -3t29.5 8l19 9q14 9 26 22t21 24
l11 15q11 17 22.5 35.5t21.5 32.5q5 8 10 12t11.5 6t15.5 -2zM181 262q-11 5 -24 0t-27 -18.5t-27.5 -35.5t-23.5 -50q-3 -9 -6 -19q-2 -8 -3.5 -18t-0.5 -19q0 -5 6 -17q2 -3 4.5 -6.5t6.5 -5.5q2 -2 4 -3l4 -2l5 -2q2 0 3 -0.5t3 -0.5q18 -5 32 0t23 13q11 9 18 21
q11 19 11 31t-4 19q-4 8 -13 11q-17 5 -27 -1t-15 -16q-6 -11 -8 -27q-11 8 -13.5 18.5t-0.5 21.5q2 12 8 26q9 22 29.5 33t42.5 9q2 13 1 23.5t-8 14.5zM398 262q-20 10 -48 -14.5t-48 -74.5q5 -4 20 -8.5t40 3.5q15 6 24 15.5t13.5 20.5t6 21.5t1.5 16.5q-2 16 -9 20z
M254 28q13 -11 31 -17q15 -5 37 -6t51 10q-20 -4 -40 -4q-17 0 -38.5 3t-40.5 14zM146 15q-20 -4 -40 -4q-17 0 -38.5 3t-40.5 14q13 -11 31 -17q15 -5 37 -6t51 10zM327 299q-20 -5 -33.5 -15.5t-21.5 -21.5q-10 -12 -16 -27q8 11 20 22.5t23 20.5q13 11 28 21zM196 146
q1 6 0 10q-2 10 -8 15q-8 4 -17 2q-4 -1 -9 -3q8 1 15 -1q6 -2 11.5 -7t7.5 -16zM54 263q17 20 35 30t24 12q-15 -2 -26 -8.5t-19 -14.5q-9 -9 -14 -19zM338 154q9 -2 18 -1q8 1 16 4.5t15 12.5q-6 -5 -14 -9q-7 -3 -16 -5.5t-19 -1.5zM220 215q-1 -1 -2 -1q0 -1 1 -1
q-1 0 1 2z" />
    <glyph glyph-name="ae" unicode="&#xe6;" horiz-adv-x="473" 
d="M509 225q15 -7 12 -25.5t-16 -41.5q-4 -7 -12 -21.5t-19 -33.5q-8 -11 -20.5 -27.5t-30.5 -32.5t-41 -30t-51 -20l-22 -3q-14 -2 -29 0q-14 0 -32 3t-35.5 10.5t-31 19t-19.5 28.5q-14 -23 -39 -39.5t-63 -13.5q-25 2 -41 10.5t-25.5 21t-13.5 28.5t-5 32q-2 38 13 84
t35.5 75.5t44 47t48.5 24t48 6.5q26 0 39.5 -6.5t20.5 -14.5l8 18q13 4 27 6q12 2 28 1t34 -7q16 3 33 3q15 0 26 -3q10 -2 24.5 -12t22.5 -33l1 -1q0 -2 1.5 -7.5t2.5 -15.5q1 -5 1 -16q0 -13 -5 -30l-1 -2v-2q-2 -6 -4 -9v-1q-4 -9 -11.5 -21.5t-19.5 -24t-29 -19.5
t-40 -9q-14 -1 -22.5 1.5t-10.5 2.5q-14 5 -26 14q-2 -8 -3.5 -18t0.5 -19q0 -2 0.5 -5t2.5 -8q2 -3 4 -7q3 -5 10 -9q3 -4 8 -5l4 -2q16 -5 31.5 -3t29.5 8l19 9q14 9 26 22t21 24l11 15q11 17 22.5 35.5t21.5 32.5q5 8 10 12t11.5 6t15.5 -2zM184 195q3 9 5 19.5t2.5 20.5
t-1.5 17t-8 10q-11 5 -24 0t-27 -18.5t-27.5 -35.5t-23.5 -50q-7 -21 -9 -38q-2 -14 1.5 -27t17.5 -15q8 -2 18.5 1t22 13t23 28t22.5 48q0 2 0.5 2.5t0.5 1.5t1 2v1q0 2 1 3zM372 262q-20 10 -48 -14.5t-48 -74.5q5 -4 20 -8.5t40 3.5q15 6 24 15.5t13.5 20.5t6 21.5
t1.5 16.5q-2 16 -9 20zM20 199q11 22 24.5 39t26 28.5t22.5 18t14 8.5q-24 -7 -40.5 -22.5t-27.5 -31.5q-12 -18 -19 -40zM3 60q1 -11 7 -20q5 -8 15 -14.5t30 -8.5q-7 2 -24 13t-28 30zM312 154q9 -2 18 -1q8 1 16 4.5t15 12.5q-6 -5 -14 -9q-7 -3 -16 -5.5t-19 -1.5z
M228 28q13 -11 31 -17q15 -5 37 -6t51 10q-20 -4 -40 -4q-17 0 -38.5 3t-40.5 14zM301 299q-20 -5 -33.5 -15.5t-21.5 -21.5q-10 -12 -16 -27q8 11 20 22.5t23 20.5q13 11 28 21z" />
    <glyph glyph-name="zero" unicode="0" horiz-adv-x="560" 
d="M381 670q54 -2 84.5 -19.5t44.5 -41.5q13 -22 16.5 -46t2 -45t-5.5 -36.5t-5 -18.5l-1 -1q-8 -23 -20.5 -42t-31.5 -32q-20 -14 -36 -18t-29 -2q13 -5 33 -15.5t37 -30.5t26.5 -51.5t2.5 -77.5q-3 -25 -13 -50q-8 -22 -24.5 -46.5t-43.5 -46.5q-25 -21 -57 -32
q-33 -13 -72 -17h-3q-6 0 -9 -1h-10q-56 0 -95.5 10.5t-67.5 27.5q-25 16 -40.5 37t-23.5 44v1q-1 0 -1 1q-9 27 -11 56.5t0.5 59t8.5 56.5t13 49q2 7 4.5 14.5t6.5 16.5q2 7 4 12t4 9t3 7q17 40 45 88.5t67 89.5t88 67.5t109 23.5zM373 377q-5 2 -9.5 5.5t-6.5 5.5
q-4 3 -5 5q11 11 30.5 37.5t36.5 67.5q17 42 13.5 64.5t-15.5 33.5q-14 12 -38 15q-30 0 -56 -13t-48.5 -33.5t-40.5 -46.5t-33 -53q-34 -64 -59 -145q-21 -77 -14.5 -123.5t29 -71t54 -32t59.5 -7.5h5q7 0 23 3t35 12.5t37 27t30 47.5q12 31 9 53t-12 37t-20.5 23.5
t-18.5 11.5q-20 9 -41 9q-18 -1 -27.5 -6t-14.5 -11q-5 -7 -6 -16q-8 2 -11.5 8t-5.5 12q-2 7 -2 15q2 28 17.5 42t29.5 19q9 4 29 7t47 -3zM400 389q12 -8 24 -4.5t21 10.5q11 8 20 20q-14 -11 -25.5 -16.5t-20.5 -7.5q-11 -3 -19 -2zM315 360q-14 -2 -25 -7
q-10 -5 -18 -14t-7 -26q1 5 11.5 21t38.5 26z" />
    <glyph glyph-name="one" unicode="1" horiz-adv-x="380" 
d="M189 219q-4 -14 -10 -43.5t-8 -62.5t2.5 -63t20.5 -46q-10 -2 -21 -3q-9 -1 -21 -1.5t-23 1.5l-6 2q-18 4 -27.5 15t-14.5 23t-5.5 23.5t-0.5 18.5q3 58 16.5 119.5t32.5 121.5t40 115t41 99q-4 -4 -6 -5l-10 -8l-25 -17q-10 -7 -17 -9l-6 -3q-5 -2 -9.5 -3.5t-9.5 -3.5
q-9 -3 -16 -3q-16 -2 -27 2q-17 4 -28 12l-6 5q-7 5 -11 11.5t-6 12.5q-1 1 -1 2t-1 3l-2 9v6v5v5q0 1 1 2q1 0 1 -0.5t1 -0.5h9q22 -2 50 4q4 0 6 1q17 3 36.5 9t39.5 15q13 6 27 15l13 8q8 6 16.5 12t16.5 14l7 6l2 2q2 2 3 2l8 6l2 2q1 0 1.5 0.5t1.5 0.5l1 1q5 3 11 5.5
t12 4.5q12 3 30 3q14 0 23 -3t14 -6q6 -4 10 -9q-31 -59 -63 -129q-27 -60 -58 -138.5t-57 -166.5zM94 70q0 -14 4 -25q4 -10 13 -19t29 -11q-2 0 -7 2.5t-12 8.5t-14 16.5t-13 27.5zM70 508q1 0 1 -0.5t1 -0.5q4 -2 15 -5t28 1q8 1 19 6l7 3q2 0 2 0.5t2 1.5q0 -1 -1 -1h-3
q-1 0 -1.5 -0.5t-1.5 -0.5h-1l-10 -2t-12 -2q-12 -2 -24 -2t-22 3zM257 586l14 14q1 2 2 2.5t2 1.5l-9 -9z" />
    <glyph glyph-name="two" unicode="2" horiz-adv-x="447" 
d="M315 283q-45 -51 -96 -103.5t-106 -97.5q4 0 8 -0.5t9 -1.5q9 -1 34 -2t56 0.5t62.5 6.5t54.5 16l10 6q13 10 17.5 19t5.5 16q1 8 -2 15q8 2 13.5 -0.5t10.5 -7.5t9 -12q14 -26 10.5 -49.5t-11.5 -37.5q-9 -20 -34.5 -37t-77.5 -22h-9q-8 -1 -16 -1h-16q-51 1 -93 5
t-84 13q-24 7 -40 23t-15 45q0 13 4 24t9 19t10 13l7 7q12 9 20.5 16.5t13.5 11.5l24 21q79 73 151 148q24 26 46 50t37.5 48t23.5 48.5t4 52.5q-6 22 -20 33q-13 9 -36 7.5t-62 -27.5q-38 -26 -62 -50.5t-32 -38.5q-17 9 -26 24q-8 13 -9.5 34t13.5 51q10 20 27 36.5
t39 30.5l1 1q3 2 17.5 9t35.5 13.5t45.5 9t47.5 -5.5q26 -9 47.5 -34.5t32.5 -77.5l2 -12t1 -12q4 -47 -12 -91t-44 -84q-12 -18 -26.5 -35t-29.5 -33zM140 511q-1 8 2 19q2 9 7 20.5t16 25.5q-12 -9 -20 -20q-7 -9 -10 -21t5 -24zM384 112q4 -8 4 -19q0 -9 -4.5 -22.5
t-15.5 -30.5q12 8 18 19q5 9 6.5 22.5t-8.5 30.5z" />
    </font>
</defs>
</svg>
